<?xml version="1.0" encoding="utf-8" standalone="no"?>
<!DOCTYPE svg PUBLIC "-//W3C//DTD SVG 1.1//EN"
  "http://www.w3.org/Graphics/SVG/1.1/DTD/svg11.dtd">
<!-- Created with matplotlib (http://matplotlib.org/) -->
<svg height="683pt" version="1.1" viewBox="0 0 1147 683" width="1147pt" xmlns="http://www.w3.org/2000/svg" xmlns:xlink="http://www.w3.org/1999/xlink">
 <defs>
  <style type="text/css">
*{stroke-linecap:butt;stroke-linejoin:round;stroke-miterlimit:100000;}
  </style>
 </defs>
 <g id="figure_1">
  <g id="patch_1">
   <path d="M 0 683.871094 
L 1147.082812 683.871094 
L 1147.082812 0 
L 0 0 
L 0 683.871094 
z
" style="fill:none;"/>
  </g>
  <g id="axes_1">
   <g id="patch_2">
    <path d="M 11.370703 622.8 
L 1127.370703 622.8 
L 1127.370703 36 
L 11.370703 36 
L 11.370703 622.8 
z
" style="fill:none;"/>
   </g>
   <g id="matplotlib.axis_1">
    <g id="xtick_1">
     <g id="line2d_1">
      <defs>
       <path d="M 0 0 
L 0 0 
" id="mb77fd3b104" style="stroke:#262626;"/>
      </defs>
      <g>
       <use style="fill:#262626;stroke:#262626;" x="11.370703125" xlink:href="#mb77fd3b104" y="622.8"/>
      </g>
     </g>
     <g id="line2d_2">
      <g>
       <use style="fill:#262626;stroke:#262626;" x="11.370703125" xlink:href="#mb77fd3b104" y="36.0"/>
      </g>
     </g>
     <g id="text_1">
      <!-- 0 -->
      <defs>
       <path d="M 4.15625 35.296875 
Q 4.15625 48 6.765625 55.734375 
Q 9.375 63.484375 14.515625 67.671875 
Q 19.671875 71.875 27.484375 71.875 
Q 33.25 71.875 37.59375 69.546875 
Q 41.9375 67.234375 44.765625 62.859375 
Q 47.609375 58.5 49.21875 52.21875 
Q 50.828125 45.953125 50.828125 35.296875 
Q 50.828125 22.703125 48.234375 14.96875 
Q 45.65625 7.234375 40.5 3 
Q 35.359375 -1.21875 27.484375 -1.21875 
Q 17.140625 -1.21875 11.234375 6.203125 
Q 4.15625 15.140625 4.15625 35.296875 
M 13.1875 35.296875 
Q 13.1875 17.671875 17.3125 11.828125 
Q 21.4375 6 27.484375 6 
Q 33.546875 6 37.671875 11.859375 
Q 41.796875 17.71875 41.796875 35.296875 
Q 41.796875 52.984375 37.671875 58.78125 
Q 33.546875 64.59375 27.390625 64.59375 
Q 21.34375 64.59375 17.71875 59.46875 
Q 13.1875 52.9375 13.1875 35.296875 
" id="ArialMT-30"/>
      </defs>
      <g style="fill:#262626;" transform="translate(7.2 640.53671875)scale(0.15 -0.15)">
       <use xlink:href="#ArialMT-30"/>
      </g>
     </g>
    </g>
    <g id="xtick_2">
     <g id="line2d_3">
      <g>
       <use style="fill:#262626;stroke:#262626;" x="234.570703125" xlink:href="#mb77fd3b104" y="622.8"/>
      </g>
     </g>
     <g id="line2d_4">
      <g>
       <use style="fill:#262626;stroke:#262626;" x="234.570703125" xlink:href="#mb77fd3b104" y="36.0"/>
      </g>
     </g>
     <g id="text_2">
      <!-- 20 -->
      <defs>
       <path d="M 50.34375 8.453125 
L 50.34375 0 
L 3.03125 0 
Q 2.9375 3.171875 4.046875 6.109375 
Q 5.859375 10.9375 9.828125 15.625 
Q 13.8125 20.3125 21.34375 26.46875 
Q 33.015625 36.03125 37.109375 41.625 
Q 41.21875 47.21875 41.21875 52.203125 
Q 41.21875 57.421875 37.46875 61 
Q 33.734375 64.59375 27.734375 64.59375 
Q 21.390625 64.59375 17.578125 60.78125 
Q 13.765625 56.984375 13.71875 50.25 
L 4.6875 51.171875 
Q 5.609375 61.28125 11.65625 66.578125 
Q 17.71875 71.875 27.9375 71.875 
Q 38.234375 71.875 44.234375 66.15625 
Q 50.25 60.453125 50.25 52 
Q 50.25 47.703125 48.484375 43.546875 
Q 46.734375 39.40625 42.65625 34.8125 
Q 38.578125 30.21875 29.109375 22.21875 
Q 21.1875 15.578125 18.9375 13.203125 
Q 16.703125 10.84375 15.234375 8.453125 
z
" id="ArialMT-32"/>
      </defs>
      <g style="fill:#262626;" transform="translate(226.229296875 640.53671875)scale(0.15 -0.15)">
       <use xlink:href="#ArialMT-32"/>
       <use x="55.615234375" xlink:href="#ArialMT-30"/>
      </g>
     </g>
    </g>
    <g id="xtick_3">
     <g id="line2d_5">
      <g>
       <use style="fill:#262626;stroke:#262626;" x="457.770703125" xlink:href="#mb77fd3b104" y="622.8"/>
      </g>
     </g>
     <g id="line2d_6">
      <g>
       <use style="fill:#262626;stroke:#262626;" x="457.770703125" xlink:href="#mb77fd3b104" y="36.0"/>
      </g>
     </g>
     <g id="text_3">
      <!-- 40 -->
      <defs>
       <path d="M 32.328125 0 
L 32.328125 17.140625 
L 1.265625 17.140625 
L 1.265625 25.203125 
L 33.9375 71.578125 
L 41.109375 71.578125 
L 41.109375 25.203125 
L 50.78125 25.203125 
L 50.78125 17.140625 
L 41.109375 17.140625 
L 41.109375 0 
z
M 32.328125 25.203125 
L 32.328125 57.46875 
L 9.90625 25.203125 
z
" id="ArialMT-34"/>
      </defs>
      <g style="fill:#262626;" transform="translate(449.429296875 640.53671875)scale(0.15 -0.15)">
       <use xlink:href="#ArialMT-34"/>
       <use x="55.615234375" xlink:href="#ArialMT-30"/>
      </g>
     </g>
    </g>
    <g id="xtick_4">
     <g id="line2d_7">
      <g>
       <use style="fill:#262626;stroke:#262626;" x="680.970703125" xlink:href="#mb77fd3b104" y="622.8"/>
      </g>
     </g>
     <g id="line2d_8">
      <g>
       <use style="fill:#262626;stroke:#262626;" x="680.970703125" xlink:href="#mb77fd3b104" y="36.0"/>
      </g>
     </g>
     <g id="text_4">
      <!-- 60 -->
      <defs>
       <path d="M 49.75 54.046875 
L 41.015625 53.375 
Q 39.84375 58.546875 37.703125 60.890625 
Q 34.125 64.65625 28.90625 64.65625 
Q 24.703125 64.65625 21.53125 62.3125 
Q 17.390625 59.28125 14.984375 53.46875 
Q 12.59375 47.65625 12.5 36.921875 
Q 15.671875 41.75 20.265625 44.09375 
Q 24.859375 46.4375 29.890625 46.4375 
Q 38.671875 46.4375 44.84375 39.96875 
Q 51.03125 33.5 51.03125 23.25 
Q 51.03125 16.5 48.125 10.71875 
Q 45.21875 4.9375 40.140625 1.859375 
Q 35.0625 -1.21875 28.609375 -1.21875 
Q 17.625 -1.21875 10.6875 6.859375 
Q 3.765625 14.9375 3.765625 33.5 
Q 3.765625 54.25 11.421875 63.671875 
Q 18.109375 71.875 29.4375 71.875 
Q 37.890625 71.875 43.28125 67.140625 
Q 48.6875 62.40625 49.75 54.046875 
M 13.875 23.1875 
Q 13.875 18.65625 15.796875 14.5 
Q 17.71875 10.359375 21.1875 8.171875 
Q 24.65625 6 28.46875 6 
Q 34.03125 6 38.03125 10.484375 
Q 42.046875 14.984375 42.046875 22.703125 
Q 42.046875 30.125 38.078125 34.390625 
Q 34.125 38.671875 28.125 38.671875 
Q 22.171875 38.671875 18.015625 34.390625 
Q 13.875 30.125 13.875 23.1875 
" id="ArialMT-36"/>
      </defs>
      <g style="fill:#262626;" transform="translate(672.629296875 640.53671875)scale(0.15 -0.15)">
       <use xlink:href="#ArialMT-36"/>
       <use x="55.615234375" xlink:href="#ArialMT-30"/>
      </g>
     </g>
    </g>
    <g id="xtick_5">
     <g id="line2d_9">
      <g>
       <use style="fill:#262626;stroke:#262626;" x="904.170703125" xlink:href="#mb77fd3b104" y="622.8"/>
      </g>
     </g>
     <g id="line2d_10">
      <g>
       <use style="fill:#262626;stroke:#262626;" x="904.170703125" xlink:href="#mb77fd3b104" y="36.0"/>
      </g>
     </g>
     <g id="text_5">
      <!-- 80 -->
      <defs>
       <path d="M 17.671875 38.8125 
Q 12.203125 40.828125 9.5625 44.53125 
Q 6.9375 48.25 6.9375 53.421875 
Q 6.9375 61.234375 12.546875 66.546875 
Q 18.171875 71.875 27.484375 71.875 
Q 36.859375 71.875 42.578125 66.421875 
Q 48.296875 60.984375 48.296875 53.171875 
Q 48.296875 48.1875 45.671875 44.5 
Q 43.0625 40.828125 37.75 38.8125 
Q 44.34375 36.671875 47.78125 31.875 
Q 51.21875 27.09375 51.21875 20.453125 
Q 51.21875 11.28125 44.71875 5.03125 
Q 38.234375 -1.21875 27.640625 -1.21875 
Q 17.046875 -1.21875 10.546875 5.046875 
Q 4.046875 11.328125 4.046875 20.703125 
Q 4.046875 27.6875 7.59375 32.390625 
Q 11.140625 37.109375 17.671875 38.8125 
M 15.921875 53.71875 
Q 15.921875 48.640625 19.1875 45.40625 
Q 22.46875 42.1875 27.6875 42.1875 
Q 32.765625 42.1875 36.015625 45.375 
Q 39.265625 48.578125 39.265625 53.21875 
Q 39.265625 58.0625 35.90625 61.359375 
Q 32.5625 64.65625 27.59375 64.65625 
Q 22.5625 64.65625 19.234375 61.421875 
Q 15.921875 58.203125 15.921875 53.71875 
M 13.09375 20.65625 
Q 13.09375 16.890625 14.875 13.375 
Q 16.65625 9.859375 20.171875 7.921875 
Q 23.6875 6 27.734375 6 
Q 34.03125 6 38.125 10.046875 
Q 42.234375 14.109375 42.234375 20.359375 
Q 42.234375 26.703125 38.015625 30.859375 
Q 33.796875 35.015625 27.4375 35.015625 
Q 21.234375 35.015625 17.15625 30.90625 
Q 13.09375 26.8125 13.09375 20.65625 
" id="ArialMT-38"/>
      </defs>
      <g style="fill:#262626;" transform="translate(895.829296875 640.53671875)scale(0.15 -0.15)">
       <use xlink:href="#ArialMT-38"/>
       <use x="55.615234375" xlink:href="#ArialMT-30"/>
      </g>
     </g>
    </g>
    <g id="xtick_6">
     <g id="line2d_11">
      <g>
       <use style="fill:#262626;stroke:#262626;" x="1127.37070313" xlink:href="#mb77fd3b104" y="622.8"/>
      </g>
     </g>
     <g id="line2d_12">
      <g>
       <use style="fill:#262626;stroke:#262626;" x="1127.37070313" xlink:href="#mb77fd3b104" y="36.0"/>
      </g>
     </g>
     <g id="text_6">
      <!-- 100 -->
      <defs>
       <path d="M 37.25 0 
L 28.46875 0 
L 28.46875 56 
Q 25.296875 52.984375 20.140625 49.953125 
Q 14.984375 46.921875 10.890625 45.40625 
L 10.890625 53.90625 
Q 18.265625 57.375 23.78125 62.296875 
Q 29.296875 67.234375 31.59375 71.875 
L 37.25 71.875 
z
" id="ArialMT-31"/>
      </defs>
      <g style="fill:#262626;" transform="translate(1114.85859375 640.53671875)scale(0.15 -0.15)">
       <use xlink:href="#ArialMT-31"/>
       <use x="55.615234375" xlink:href="#ArialMT-30"/>
       <use x="111.23046875" xlink:href="#ArialMT-30"/>
      </g>
     </g>
    </g>
    <g id="text_7">
     <!-- Length of Stay (Days) -->
     <defs>
      <path d="M 40.4375 6.390625 
Q 35.546875 2.25 31.03125 0.53125 
Q 26.515625 -1.171875 21.34375 -1.171875 
Q 12.796875 -1.171875 8.203125 3 
Q 3.609375 7.171875 3.609375 13.671875 
Q 3.609375 17.484375 5.34375 20.625 
Q 7.078125 23.78125 9.890625 25.6875 
Q 12.703125 27.59375 16.21875 28.5625 
Q 18.796875 29.25 24.03125 29.890625 
Q 34.671875 31.15625 39.703125 32.90625 
Q 39.75 34.71875 39.75 35.203125 
Q 39.75 40.578125 37.25 42.78125 
Q 33.890625 45.75 27.25 45.75 
Q 21.046875 45.75 18.09375 43.578125 
Q 15.140625 41.40625 13.71875 35.890625 
L 5.125 37.0625 
Q 6.296875 42.578125 8.984375 45.96875 
Q 11.671875 49.359375 16.75 51.1875 
Q 21.828125 53.03125 28.515625 53.03125 
Q 35.15625 53.03125 39.296875 51.46875 
Q 43.453125 49.90625 45.40625 47.53125 
Q 47.359375 45.171875 48.140625 41.546875 
Q 48.578125 39.3125 48.578125 33.453125 
L 48.578125 21.734375 
Q 48.578125 9.46875 49.140625 6.21875 
Q 49.703125 2.984375 51.375 0 
L 42.1875 0 
Q 40.828125 2.734375 40.4375 6.390625 
M 39.703125 26.03125 
Q 34.90625 24.078125 25.34375 22.703125 
Q 19.921875 21.921875 17.671875 20.9375 
Q 15.4375 19.96875 14.203125 18.09375 
Q 12.984375 16.21875 12.984375 13.921875 
Q 12.984375 10.40625 15.640625 8.0625 
Q 18.3125 5.71875 23.4375 5.71875 
Q 28.515625 5.71875 32.46875 7.9375 
Q 36.421875 10.15625 38.28125 14.015625 
Q 39.703125 17 39.703125 22.796875 
z
" id="ArialMT-61"/>
      <path d="M 4.984375 -4.296875 
L 13.53125 -5.5625 
Q 14.0625 -9.515625 16.5 -11.328125 
Q 19.78125 -13.765625 25.4375 -13.765625 
Q 31.546875 -13.765625 34.859375 -11.328125 
Q 38.1875 -8.890625 39.359375 -4.5 
Q 40.046875 -1.8125 39.984375 6.78125 
Q 34.234375 0 25.640625 0 
Q 14.9375 0 9.078125 7.71875 
Q 3.21875 15.4375 3.21875 26.21875 
Q 3.21875 33.640625 5.90625 39.90625 
Q 8.59375 46.1875 13.6875 49.609375 
Q 18.796875 53.03125 25.6875 53.03125 
Q 34.859375 53.03125 40.828125 45.609375 
L 40.828125 51.859375 
L 48.921875 51.859375 
L 48.921875 7.03125 
Q 48.921875 -5.078125 46.453125 -10.125 
Q 44 -15.1875 38.640625 -18.109375 
Q 33.296875 -21.046875 25.484375 -21.046875 
Q 16.21875 -21.046875 10.5 -16.875 
Q 4.78125 -12.703125 4.984375 -4.296875 
M 12.25 26.859375 
Q 12.25 16.65625 16.296875 11.96875 
Q 20.359375 7.28125 26.46875 7.28125 
Q 32.515625 7.28125 36.609375 11.9375 
Q 40.71875 16.609375 40.71875 26.5625 
Q 40.71875 36.078125 36.5 40.90625 
Q 32.28125 45.75 26.3125 45.75 
Q 20.453125 45.75 16.34375 40.984375 
Q 12.25 36.234375 12.25 26.859375 
" id="ArialMT-67"/>
      <path d="M 8.6875 0 
L 8.6875 45.015625 
L 0.921875 45.015625 
L 0.921875 51.859375 
L 8.6875 51.859375 
L 8.6875 57.375 
Q 8.6875 62.59375 9.625 65.140625 
Q 10.890625 68.5625 14.078125 70.671875 
Q 17.28125 72.796875 23.046875 72.796875 
Q 26.765625 72.796875 31.25 71.921875 
L 29.9375 64.265625 
Q 27.203125 64.75 24.75 64.75 
Q 20.75 64.75 19.09375 63.03125 
Q 17.4375 61.328125 17.4375 56.640625 
L 17.4375 51.859375 
L 27.546875 51.859375 
L 27.546875 45.015625 
L 17.4375 45.015625 
L 17.4375 0 
z
" id="ArialMT-66"/>
      <path d="M 42.09375 16.703125 
L 51.171875 15.578125 
Q 49.03125 7.625 43.21875 3.21875 
Q 37.40625 -1.171875 28.375 -1.171875 
Q 17 -1.171875 10.328125 5.828125 
Q 3.65625 12.84375 3.65625 25.484375 
Q 3.65625 38.578125 10.390625 45.796875 
Q 17.140625 53.03125 27.875 53.03125 
Q 38.28125 53.03125 44.875 45.953125 
Q 51.46875 38.875 51.46875 26.03125 
Q 51.46875 25.25 51.421875 23.6875 
L 12.75 23.6875 
Q 13.234375 15.140625 17.578125 10.59375 
Q 21.921875 6.0625 28.421875 6.0625 
Q 33.25 6.0625 36.671875 8.59375 
Q 40.09375 11.140625 42.09375 16.703125 
M 13.234375 30.90625 
L 42.1875 30.90625 
Q 41.609375 37.453125 38.875 40.71875 
Q 34.671875 45.796875 27.984375 45.796875 
Q 21.921875 45.796875 17.796875 41.75 
Q 13.671875 37.703125 13.234375 30.90625 
" id="ArialMT-65"/>
      <path d="M 25.78125 7.859375 
L 27.046875 0.09375 
Q 23.34375 -0.6875 20.40625 -0.6875 
Q 15.625 -0.6875 12.984375 0.828125 
Q 10.359375 2.34375 9.28125 4.8125 
Q 8.203125 7.28125 8.203125 15.1875 
L 8.203125 45.015625 
L 1.765625 45.015625 
L 1.765625 51.859375 
L 8.203125 51.859375 
L 8.203125 64.703125 
L 16.9375 69.96875 
L 16.9375 51.859375 
L 25.78125 51.859375 
L 25.78125 45.015625 
L 16.9375 45.015625 
L 16.9375 14.703125 
Q 16.9375 10.9375 17.40625 9.859375 
Q 17.875 8.796875 18.921875 8.15625 
Q 19.96875 7.515625 21.921875 7.515625 
Q 23.390625 7.515625 25.78125 7.859375 
" id="ArialMT-74"/>
      <path d="M 4.5 23 
L 13.421875 23.78125 
Q 14.0625 18.40625 16.375 14.96875 
Q 18.703125 11.53125 23.578125 9.40625 
Q 28.46875 7.28125 34.578125 7.28125 
Q 39.984375 7.28125 44.140625 8.890625 
Q 48.296875 10.5 50.3125 13.296875 
Q 52.34375 16.109375 52.34375 19.4375 
Q 52.34375 22.796875 50.390625 25.3125 
Q 48.4375 27.828125 43.953125 29.546875 
Q 41.0625 30.671875 31.203125 33.03125 
Q 21.34375 35.40625 17.390625 37.5 
Q 12.25 40.1875 9.734375 44.15625 
Q 7.234375 48.140625 7.234375 53.078125 
Q 7.234375 58.5 10.296875 63.203125 
Q 13.375 67.921875 19.28125 70.359375 
Q 25.203125 72.796875 32.421875 72.796875 
Q 40.375 72.796875 46.453125 70.234375 
Q 52.546875 67.671875 55.8125 62.6875 
Q 59.078125 57.71875 59.328125 51.421875 
L 50.25 50.734375 
Q 49.515625 57.515625 45.28125 60.984375 
Q 41.0625 64.453125 32.8125 64.453125 
Q 24.21875 64.453125 20.28125 61.296875 
Q 16.359375 58.15625 16.359375 53.71875 
Q 16.359375 49.859375 19.140625 47.359375 
Q 21.875 44.875 33.421875 42.265625 
Q 44.96875 39.65625 49.265625 37.703125 
Q 55.515625 34.8125 58.484375 30.390625 
Q 61.46875 25.984375 61.46875 20.21875 
Q 61.46875 14.5 58.203125 9.4375 
Q 54.9375 4.390625 48.796875 1.578125 
Q 42.671875 -1.21875 35.015625 -1.21875 
Q 25.296875 -1.21875 18.71875 1.609375 
Q 12.15625 4.4375 8.421875 10.125 
Q 4.6875 15.828125 4.5 23 
" id="ArialMT-53"/>
      <path d="M 6.59375 0 
L 6.59375 71.578125 
L 15.375 71.578125 
L 15.375 45.90625 
Q 21.53125 53.03125 30.90625 53.03125 
Q 36.671875 53.03125 40.921875 50.75 
Q 45.171875 48.484375 47 44.484375 
Q 48.828125 40.484375 48.828125 32.859375 
L 48.828125 0 
L 40.046875 0 
L 40.046875 32.859375 
Q 40.046875 39.453125 37.1875 42.453125 
Q 34.328125 45.453125 29.109375 45.453125 
Q 25.203125 45.453125 21.75 43.421875 
Q 18.3125 41.40625 16.84375 37.9375 
Q 15.375 34.46875 15.375 28.375 
L 15.375 0 
z
" id="ArialMT-68"/>
      <path d="M 7.71875 0 
L 7.71875 71.578125 
L 32.375 71.578125 
Q 40.71875 71.578125 45.125 70.5625 
Q 51.265625 69.140625 55.609375 65.4375 
Q 61.28125 60.640625 64.078125 53.1875 
Q 66.890625 45.75 66.890625 36.1875 
Q 66.890625 28.03125 64.984375 21.734375 
Q 63.09375 15.4375 60.109375 11.296875 
Q 57.125 7.171875 53.578125 4.796875 
Q 50.046875 2.4375 45.046875 1.21875 
Q 40.046875 0 33.546875 0 
z
M 17.1875 8.453125 
L 32.46875 8.453125 
Q 39.546875 8.453125 43.578125 9.765625 
Q 47.609375 11.078125 50 13.484375 
Q 53.375 16.84375 55.25 22.53125 
Q 57.125 28.21875 57.125 36.328125 
Q 57.125 47.5625 53.4375 53.59375 
Q 49.75 59.625 44.484375 61.671875 
Q 40.671875 63.140625 32.234375 63.140625 
L 17.1875 63.140625 
z
" id="ArialMT-44"/>
      <path d="M 6.203125 -19.96875 
L 5.21875 -11.71875 
Q 8.109375 -12.5 10.25 -12.5 
Q 13.1875 -12.5 14.9375 -11.515625 
Q 16.703125 -10.546875 17.828125 -8.796875 
Q 18.65625 -7.46875 20.515625 -2.25 
Q 20.75 -1.515625 21.296875 -0.09375 
L 1.609375 51.859375 
L 11.078125 51.859375 
L 21.875 21.828125 
Q 23.96875 16.109375 25.640625 9.8125 
Q 27.15625 15.875 29.25 21.625 
L 40.328125 51.859375 
L 49.125 51.859375 
L 29.390625 -0.875 
Q 26.21875 -9.421875 24.46875 -12.640625 
Q 22.125 -17 19.09375 -19.015625 
Q 16.0625 -21.046875 11.859375 -21.046875 
Q 9.328125 -21.046875 6.203125 -19.96875 
" id="ArialMT-79"/>
      <path d="M 12.359375 -21.046875 
L 6.0625 -21.046875 
Q 20.65625 2.390625 20.65625 25.875 
Q 20.65625 35.0625 18.5625 44.09375 
Q 16.890625 51.421875 13.921875 58.15625 
Q 12.015625 62.546875 6.0625 72.796875 
L 12.359375 72.796875 
Q 21.53125 60.546875 25.921875 48.1875 
Q 29.6875 37.546875 29.6875 25.921875 
Q 29.6875 12.75 24.625 0.4375 
Q 19.578125 -11.859375 12.359375 -21.046875 
" id="ArialMT-29"/>
      <path d="M 3.328125 25.921875 
Q 3.328125 40.328125 11.328125 47.265625 
Q 18.015625 53.03125 27.640625 53.03125 
Q 38.328125 53.03125 45.109375 46.015625 
Q 51.90625 39.015625 51.90625 26.65625 
Q 51.90625 16.65625 48.90625 10.90625 
Q 45.90625 5.171875 40.15625 2 
Q 34.421875 -1.171875 27.640625 -1.171875 
Q 16.75 -1.171875 10.03125 5.8125 
Q 3.328125 12.796875 3.328125 25.921875 
M 12.359375 25.921875 
Q 12.359375 15.96875 16.703125 11.015625 
Q 21.046875 6.0625 27.640625 6.0625 
Q 34.1875 6.0625 38.53125 11.03125 
Q 42.875 16.015625 42.875 26.21875 
Q 42.875 35.84375 38.5 40.796875 
Q 34.125 45.75 27.640625 45.75 
Q 21.046875 45.75 16.703125 40.8125 
Q 12.359375 35.890625 12.359375 25.921875 
" id="ArialMT-6f"/>
      <path d="M 6.59375 0 
L 6.59375 51.859375 
L 14.5 51.859375 
L 14.5 44.484375 
Q 20.21875 53.03125 31 53.03125 
Q 35.6875 53.03125 39.625 51.34375 
Q 43.5625 49.65625 45.515625 46.921875 
Q 47.46875 44.1875 48.25 40.4375 
Q 48.734375 37.984375 48.734375 31.890625 
L 48.734375 0 
L 39.9375 0 
L 39.9375 31.546875 
Q 39.9375 36.921875 38.90625 39.578125 
Q 37.890625 42.234375 35.28125 43.8125 
Q 32.671875 45.40625 29.15625 45.40625 
Q 23.53125 45.40625 19.453125 41.84375 
Q 15.375 38.28125 15.375 28.328125 
L 15.375 0 
z
" id="ArialMT-6e"/>
      <path d="M 23.390625 -21.046875 
Q 16.109375 -11.859375 11.078125 0.4375 
Q 6.0625 12.75 6.0625 25.921875 
Q 6.0625 37.546875 9.8125 48.1875 
Q 14.203125 60.546875 23.390625 72.796875 
L 29.6875 72.796875 
Q 23.78125 62.640625 21.875 58.296875 
Q 18.890625 51.5625 17.1875 44.234375 
Q 15.09375 35.109375 15.09375 25.875 
Q 15.09375 2.390625 29.6875 -21.046875 
z
" id="ArialMT-28"/>
      <path d="M 7.328125 0 
L 7.328125 71.578125 
L 16.796875 71.578125 
L 16.796875 8.453125 
L 52.046875 8.453125 
L 52.046875 0 
z
" id="ArialMT-4c"/>
      <path d="M 3.078125 15.484375 
L 11.765625 16.84375 
Q 12.5 11.625 15.84375 8.84375 
Q 19.1875 6.0625 25.203125 6.0625 
Q 31.25 6.0625 34.171875 8.515625 
Q 37.109375 10.984375 37.109375 14.3125 
Q 37.109375 17.28125 34.515625 19 
Q 32.71875 20.171875 25.53125 21.96875 
Q 15.875 24.421875 12.140625 26.203125 
Q 8.40625 27.984375 6.46875 31.125 
Q 4.546875 34.28125 4.546875 38.09375 
Q 4.546875 41.546875 6.125 44.5 
Q 7.71875 47.46875 10.453125 49.421875 
Q 12.5 50.921875 16.03125 51.96875 
Q 19.578125 53.03125 23.640625 53.03125 
Q 29.734375 53.03125 34.34375 51.265625 
Q 38.96875 49.515625 41.15625 46.5 
Q 43.359375 43.5 44.1875 38.484375 
L 35.59375 37.3125 
Q 35.015625 41.3125 32.203125 43.546875 
Q 29.390625 45.796875 24.265625 45.796875 
Q 18.21875 45.796875 15.625 43.796875 
Q 13.03125 41.796875 13.03125 39.109375 
Q 13.03125 37.40625 14.109375 36.03125 
Q 15.1875 34.625 17.484375 33.6875 
Q 18.796875 33.203125 25.25 31.453125 
Q 34.578125 28.953125 38.25 27.359375 
Q 41.9375 25.78125 44.03125 22.75 
Q 46.140625 19.734375 46.140625 15.234375 
Q 46.140625 10.84375 43.578125 6.953125 
Q 41.015625 3.078125 36.171875 0.953125 
Q 31.34375 -1.171875 25.25 -1.171875 
Q 15.140625 -1.171875 9.84375 3.03125 
Q 4.546875 7.234375 3.078125 15.484375 
" id="ArialMT-73"/>
      <path id="ArialMT-20"/>
     </defs>
     <g style="fill:#262626;" transform="translate(424.308984375 670.35703125)scale(0.3 -0.3)">
      <use xlink:href="#ArialMT-4c"/>
      <use x="55.615234375" xlink:href="#ArialMT-65"/>
      <use x="111.23046875" xlink:href="#ArialMT-6e"/>
      <use x="166.845703125" xlink:href="#ArialMT-67"/>
      <use x="222.4609375" xlink:href="#ArialMT-74"/>
      <use x="250.244140625" xlink:href="#ArialMT-68"/>
      <use x="305.859375" xlink:href="#ArialMT-20"/>
      <use x="333.642578125" xlink:href="#ArialMT-6f"/>
      <use x="389.2578125" xlink:href="#ArialMT-66"/>
      <use x="417.041015625" xlink:href="#ArialMT-20"/>
      <use x="444.82421875" xlink:href="#ArialMT-53"/>
      <use x="511.5234375" xlink:href="#ArialMT-74"/>
      <use x="539.306640625" xlink:href="#ArialMT-61"/>
      <use x="594.921875" xlink:href="#ArialMT-79"/>
      <use x="644.921875" xlink:href="#ArialMT-20"/>
      <use x="672.705078125" xlink:href="#ArialMT-28"/>
      <use x="706.005859375" xlink:href="#ArialMT-44"/>
      <use x="778.22265625" xlink:href="#ArialMT-61"/>
      <use x="833.837890625" xlink:href="#ArialMT-79"/>
      <use x="883.837890625" xlink:href="#ArialMT-73"/>
      <use x="933.837890625" xlink:href="#ArialMT-29"/>
     </g>
    </g>
   </g>
   <g id="patch_3">
    <path clip-path="url(#p40361b334c)" d="M 22.530703 622.8 
L 44.404303 622.8 
L 44.404303 90.7191 
L 22.530703 90.7191 
z
" style="fill:#dc322f;opacity:0.5;stroke:#eeeeee;stroke-linejoin:miter;stroke-width:0.3;"/>
   </g>
   <g id="patch_4">
    <path clip-path="url(#p40361b334c)" d="M 44.404303 622.8 
L 66.277903 622.8 
L 66.277903 239.0328 
L 44.404303 239.0328 
z
" style="fill:#dc322f;opacity:0.5;stroke:#eeeeee;stroke-linejoin:miter;stroke-width:0.3;"/>
   </g>
   <g id="patch_5">
    <path clip-path="url(#p40361b334c)" d="M 66.277903 622.8 
L 88.151503 622.8 
L 88.151503 340.4025 
L 66.277903 340.4025 
z
" style="fill:#dc322f;opacity:0.5;stroke:#eeeeee;stroke-linejoin:miter;stroke-width:0.3;"/>
   </g>
   <g id="patch_6">
    <path clip-path="url(#p40361b334c)" d="M 88.151503 622.8 
L 110.025103 622.8 
L 110.025103 392.6277 
L 88.151503 392.6277 
z
" style="fill:#dc322f;opacity:0.5;stroke:#eeeeee;stroke-linejoin:miter;stroke-width:0.3;"/>
   </g>
   <g id="patch_7">
    <path clip-path="url(#p40361b334c)" d="M 110.025103 622.8 
L 131.898703 622.8 
L 131.898703 449.1072 
L 110.025103 449.1072 
z
" style="fill:#dc322f;opacity:0.5;stroke:#eeeeee;stroke-linejoin:miter;stroke-width:0.3;"/>
   </g>
   <g id="patch_8">
    <path clip-path="url(#p40361b334c)" d="M 131.898703 622.8 
L 153.772303 622.8 
L 153.772303 488.2761 
L 131.898703 488.2761 
z
" style="fill:#dc322f;opacity:0.5;stroke:#eeeeee;stroke-linejoin:miter;stroke-width:0.3;"/>
   </g>
   <g id="patch_9">
    <path clip-path="url(#p40361b334c)" d="M 153.772303 622.8 
L 175.645903 622.8 
L 175.645903 504.1197 
L 153.772303 504.1197 
z
" style="fill:#dc322f;opacity:0.5;stroke:#eeeeee;stroke-linejoin:miter;stroke-width:0.3;"/>
   </g>
   <g id="patch_10">
    <path clip-path="url(#p40361b334c)" d="M 175.645903 622.8 
L 197.519503 622.8 
L 197.519503 532.5795 
L 175.645903 532.5795 
z
" style="fill:#dc322f;opacity:0.5;stroke:#eeeeee;stroke-linejoin:miter;stroke-width:0.3;"/>
   </g>
   <g id="patch_11">
    <path clip-path="url(#p40361b334c)" d="M 197.519503 622.8 
L 219.393103 622.8 
L 219.393103 547.6896 
L 197.519503 547.6896 
z
" style="fill:#dc322f;opacity:0.5;stroke:#eeeeee;stroke-linejoin:miter;stroke-width:0.3;"/>
   </g>
   <g id="patch_12">
    <path clip-path="url(#p40361b334c)" d="M 219.393103 622.8 
L 241.266703 622.8 
L 241.266703 564.12 
L 219.393103 564.12 
z
" style="fill:#dc322f;opacity:0.5;stroke:#eeeeee;stroke-linejoin:miter;stroke-width:0.3;"/>
   </g>
   <g id="patch_13">
    <path clip-path="url(#p40361b334c)" d="M 241.266703 622.8 
L 263.140303 622.8 
L 263.140303 562.9464 
L 241.266703 562.9464 
z
" style="fill:#dc322f;opacity:0.5;stroke:#eeeeee;stroke-linejoin:miter;stroke-width:0.3;"/>
   </g>
   <g id="patch_14">
    <path clip-path="url(#p40361b334c)" d="M 263.140303 622.8 
L 285.013903 622.8 
L 285.013903 577.9098 
L 263.140303 577.9098 
z
" style="fill:#dc322f;opacity:0.5;stroke:#eeeeee;stroke-linejoin:miter;stroke-width:0.3;"/>
   </g>
   <g id="patch_15">
    <path clip-path="url(#p40361b334c)" d="M 285.013903 622.8 
L 306.887503 622.8 
L 306.887503 585.3915 
L 285.013903 585.3915 
z
" style="fill:#dc322f;opacity:0.5;stroke:#eeeeee;stroke-linejoin:miter;stroke-width:0.3;"/>
   </g>
   <g id="patch_16">
    <path clip-path="url(#p40361b334c)" d="M 306.887503 622.8 
L 328.761103 622.8 
L 328.761103 587.4453 
L 306.887503 587.4453 
z
" style="fill:#dc322f;opacity:0.5;stroke:#eeeeee;stroke-linejoin:miter;stroke-width:0.3;"/>
   </g>
   <g id="patch_17">
    <path clip-path="url(#p40361b334c)" d="M 328.761103 622.8 
L 350.634703 622.8 
L 350.634703 591.8463 
L 328.761103 591.8463 
z
" style="fill:#dc322f;opacity:0.5;stroke:#eeeeee;stroke-linejoin:miter;stroke-width:0.3;"/>
   </g>
   <g id="patch_18">
    <path clip-path="url(#p40361b334c)" d="M 350.634703 622.8 
L 372.508303 622.8 
L 372.508303 595.6605 
L 350.634703 595.6605 
z
" style="fill:#dc322f;opacity:0.5;stroke:#eeeeee;stroke-linejoin:miter;stroke-width:0.3;"/>
   </g>
   <g id="patch_19">
    <path clip-path="url(#p40361b334c)" d="M 372.508303 622.8 
L 394.381903 622.8 
L 394.381903 593.9001 
L 372.508303 593.9001 
z
" style="fill:#dc322f;opacity:0.5;stroke:#eeeeee;stroke-linejoin:miter;stroke-width:0.3;"/>
   </g>
   <g id="patch_20">
    <path clip-path="url(#p40361b334c)" d="M 394.381903 622.8 
L 416.255503 622.8 
L 416.255503 598.0077 
L 394.381903 598.0077 
z
" style="fill:#dc322f;opacity:0.5;stroke:#eeeeee;stroke-linejoin:miter;stroke-width:0.3;"/>
   </g>
   <g id="patch_21">
    <path clip-path="url(#p40361b334c)" d="M 416.255503 622.8 
L 438.129103 622.8 
L 438.129103 600.9417 
L 416.255503 600.9417 
z
" style="fill:#dc322f;opacity:0.5;stroke:#eeeeee;stroke-linejoin:miter;stroke-width:0.3;"/>
   </g>
   <g id="patch_22">
    <path clip-path="url(#p40361b334c)" d="M 438.129103 622.8 
L 460.002703 622.8 
L 460.002703 604.0224 
L 438.129103 604.0224 
z
" style="fill:#dc322f;opacity:0.5;stroke:#eeeeee;stroke-linejoin:miter;stroke-width:0.3;"/>
   </g>
   <g id="patch_23">
    <path clip-path="url(#p40361b334c)" d="M 460.002703 622.8 
L 481.876303 622.8 
L 481.876303 603.1422 
L 460.002703 603.1422 
z
" style="fill:#dc322f;opacity:0.5;stroke:#eeeeee;stroke-linejoin:miter;stroke-width:0.3;"/>
   </g>
   <g id="patch_24">
    <path clip-path="url(#p40361b334c)" d="M 481.876303 622.8 
L 503.749903 622.8 
L 503.749903 606.0762 
L 481.876303 606.0762 
z
" style="fill:#dc322f;opacity:0.5;stroke:#eeeeee;stroke-linejoin:miter;stroke-width:0.3;"/>
   </g>
   <g id="patch_25">
    <path clip-path="url(#p40361b334c)" d="M 503.749903 622.8 
L 525.623503 622.8 
L 525.623503 609.8904 
L 503.749903 609.8904 
z
" style="fill:#dc322f;opacity:0.5;stroke:#eeeeee;stroke-linejoin:miter;stroke-width:0.3;"/>
   </g>
   <g id="patch_26">
    <path clip-path="url(#p40361b334c)" d="M 525.623503 622.8 
L 547.497103 622.8 
L 547.497103 609.597 
L 525.623503 609.597 
z
" style="fill:#dc322f;opacity:0.5;stroke:#eeeeee;stroke-linejoin:miter;stroke-width:0.3;"/>
   </g>
   <g id="patch_27">
    <path clip-path="url(#p40361b334c)" d="M 547.497103 622.8 
L 569.370703 622.8 
L 569.370703 613.5579 
L 547.497103 613.5579 
z
" style="fill:#dc322f;opacity:0.5;stroke:#eeeeee;stroke-linejoin:miter;stroke-width:0.3;"/>
   </g>
   <g id="patch_28">
    <path clip-path="url(#p40361b334c)" d="M 569.370703 622.8 
L 591.244303 622.8 
L 591.244303 609.4503 
L 569.370703 609.4503 
z
" style="fill:#dc322f;opacity:0.5;stroke:#eeeeee;stroke-linejoin:miter;stroke-width:0.3;"/>
   </g>
   <g id="patch_29">
    <path clip-path="url(#p40361b334c)" d="M 591.244303 622.8 
L 613.117903 622.8 
L 613.117903 610.3305 
L 591.244303 610.3305 
z
" style="fill:#dc322f;opacity:0.5;stroke:#eeeeee;stroke-linejoin:miter;stroke-width:0.3;"/>
   </g>
   <g id="patch_30">
    <path clip-path="url(#p40361b334c)" d="M 613.117903 622.8 
L 634.991503 622.8 
L 634.991503 611.7975 
L 613.117903 611.7975 
z
" style="fill:#dc322f;opacity:0.5;stroke:#eeeeee;stroke-linejoin:miter;stroke-width:0.3;"/>
   </g>
   <g id="patch_31">
    <path clip-path="url(#p40361b334c)" d="M 634.991503 622.8 
L 656.865103 622.8 
L 656.865103 609.3036 
L 634.991503 609.3036 
z
" style="fill:#dc322f;opacity:0.5;stroke:#eeeeee;stroke-linejoin:miter;stroke-width:0.3;"/>
   </g>
   <g id="patch_32">
    <path clip-path="url(#p40361b334c)" d="M 656.865103 622.8 
L 678.738703 622.8 
L 678.738703 612.3843 
L 656.865103 612.3843 
z
" style="fill:#dc322f;opacity:0.5;stroke:#eeeeee;stroke-linejoin:miter;stroke-width:0.3;"/>
   </g>
   <g id="patch_33">
    <path clip-path="url(#p40361b334c)" d="M 678.738703 622.8 
L 700.612303 622.8 
L 700.612303 612.9711 
L 678.738703 612.9711 
z
" style="fill:#dc322f;opacity:0.5;stroke:#eeeeee;stroke-linejoin:miter;stroke-width:0.3;"/>
   </g>
   <g id="patch_34">
    <path clip-path="url(#p40361b334c)" d="M 700.612303 622.8 
L 722.485903 622.8 
L 722.485903 611.3574 
L 700.612303 611.3574 
z
" style="fill:#dc322f;opacity:0.5;stroke:#eeeeee;stroke-linejoin:miter;stroke-width:0.3;"/>
   </g>
   <g id="patch_35">
    <path clip-path="url(#p40361b334c)" d="M 722.485903 622.8 
L 744.359503 622.8 
L 744.359503 611.3574 
L 722.485903 611.3574 
z
" style="fill:#dc322f;opacity:0.5;stroke:#eeeeee;stroke-linejoin:miter;stroke-width:0.3;"/>
   </g>
   <g id="patch_36">
    <path clip-path="url(#p40361b334c)" d="M 744.359503 622.8 
L 766.233103 622.8 
L 766.233103 613.7046 
L 744.359503 613.7046 
z
" style="fill:#dc322f;opacity:0.5;stroke:#eeeeee;stroke-linejoin:miter;stroke-width:0.3;"/>
   </g>
   <g id="patch_37">
    <path clip-path="url(#p40361b334c)" d="M 766.233103 622.8 
L 788.106703 622.8 
L 788.106703 617.3721 
L 766.233103 617.3721 
z
" style="fill:#dc322f;opacity:0.5;stroke:#eeeeee;stroke-linejoin:miter;stroke-width:0.3;"/>
   </g>
   <g id="patch_38">
    <path clip-path="url(#p40361b334c)" d="M 788.106703 622.8 
L 809.980303 622.8 
L 809.980303 614.5848 
L 788.106703 614.5848 
z
" style="fill:#dc322f;opacity:0.5;stroke:#eeeeee;stroke-linejoin:miter;stroke-width:0.3;"/>
   </g>
   <g id="patch_39">
    <path clip-path="url(#p40361b334c)" d="M 809.980303 622.8 
L 831.853903 622.8 
L 831.853903 615.3183 
L 809.980303 615.3183 
z
" style="fill:#dc322f;opacity:0.5;stroke:#eeeeee;stroke-linejoin:miter;stroke-width:0.3;"/>
   </g>
   <g id="patch_40">
    <path clip-path="url(#p40361b334c)" d="M 831.853903 622.8 
L 853.727503 622.8 
L 853.727503 615.7584 
L 831.853903 615.7584 
z
" style="fill:#dc322f;opacity:0.5;stroke:#eeeeee;stroke-linejoin:miter;stroke-width:0.3;"/>
   </g>
   <g id="patch_41">
    <path clip-path="url(#p40361b334c)" d="M 853.727503 622.8 
L 875.601103 622.8 
L 875.601103 616.4919 
L 853.727503 616.4919 
z
" style="fill:#dc322f;opacity:0.5;stroke:#eeeeee;stroke-linejoin:miter;stroke-width:0.3;"/>
   </g>
   <g id="patch_42">
    <path clip-path="url(#p40361b334c)" d="M 875.601103 622.8 
L 897.474703 622.8 
L 897.474703 616.6386 
L 875.601103 616.6386 
z
" style="fill:#dc322f;opacity:0.5;stroke:#eeeeee;stroke-linejoin:miter;stroke-width:0.3;"/>
   </g>
   <g id="patch_43">
    <path clip-path="url(#p40361b334c)" d="M 897.474703 622.8 
L 919.348303 622.8 
L 919.348303 617.6655 
L 897.474703 617.6655 
z
" style="fill:#dc322f;opacity:0.5;stroke:#eeeeee;stroke-linejoin:miter;stroke-width:0.3;"/>
   </g>
   <g id="patch_44">
    <path clip-path="url(#p40361b334c)" d="M 919.348303 622.8 
L 941.221903 622.8 
L 941.221903 618.8391 
L 919.348303 618.8391 
z
" style="fill:#dc322f;opacity:0.5;stroke:#eeeeee;stroke-linejoin:miter;stroke-width:0.3;"/>
   </g>
   <g id="patch_45">
    <path clip-path="url(#p40361b334c)" d="M 941.221903 622.8 
L 963.095503 622.8 
L 963.095503 614.1447 
L 941.221903 614.1447 
z
" style="fill:#dc322f;opacity:0.5;stroke:#eeeeee;stroke-linejoin:miter;stroke-width:0.3;"/>
   </g>
   <g id="patch_46">
    <path clip-path="url(#p40361b334c)" d="M 963.095503 622.8 
L 984.969103 622.8 
L 984.969103 617.8122 
L 963.095503 617.8122 
z
" style="fill:#dc322f;opacity:0.5;stroke:#eeeeee;stroke-linejoin:miter;stroke-width:0.3;"/>
   </g>
   <g id="patch_47">
    <path clip-path="url(#p40361b334c)" d="M 984.969103 622.8 
L 1006.842703 622.8 
L 1006.842703 618.8391 
L 984.969103 618.8391 
z
" style="fill:#dc322f;opacity:0.5;stroke:#eeeeee;stroke-linejoin:miter;stroke-width:0.3;"/>
   </g>
   <g id="patch_48">
    <path clip-path="url(#p40361b334c)" d="M 1006.842703 622.8 
L 1028.716303 622.8 
L 1028.716303 619.4259 
L 1006.842703 619.4259 
z
" style="fill:#dc322f;opacity:0.5;stroke:#eeeeee;stroke-linejoin:miter;stroke-width:0.3;"/>
   </g>
   <g id="patch_49">
    <path clip-path="url(#p40361b334c)" d="M 1028.716303 622.8 
L 1050.589903 622.8 
L 1050.589903 618.5457 
L 1028.716303 618.5457 
z
" style="fill:#dc322f;opacity:0.5;stroke:#eeeeee;stroke-linejoin:miter;stroke-width:0.3;"/>
   </g>
   <g id="patch_50">
    <path clip-path="url(#p40361b334c)" d="M 1050.589903 622.8 
L 1072.463503 622.8 
L 1072.463503 619.2792 
L 1050.589903 619.2792 
z
" style="fill:#dc322f;opacity:0.5;stroke:#eeeeee;stroke-linejoin:miter;stroke-width:0.3;"/>
   </g>
   <g id="patch_51">
    <path clip-path="url(#p40361b334c)" d="M 1072.463503 622.8 
L 1094.337103 622.8 
L 1094.337103 618.9858 
L 1072.463503 618.9858 
z
" style="fill:#dc322f;opacity:0.5;stroke:#eeeeee;stroke-linejoin:miter;stroke-width:0.3;"/>
   </g>
   <g id="patch_52">
    <path clip-path="url(#p40361b334c)" d="M 1094.337103 622.8 
L 1116.210703 622.8 
L 1116.210703 618.399 
L 1094.337103 618.399 
z
" style="fill:#dc322f;opacity:0.5;stroke:#eeeeee;stroke-linejoin:miter;stroke-width:0.3;"/>
   </g>
   <g id="patch_53">
    <path d="M 11.370703 36 
L 1127.370703 36 
" style="fill:none;stroke:#262626;stroke-linecap:square;stroke-linejoin:miter;stroke-width:1.25;"/>
   </g>
   <g id="patch_54">
    <path d="M 1127.370703 622.8 
L 1127.370703 36 
" style="fill:none;stroke:#262626;stroke-linecap:square;stroke-linejoin:miter;stroke-width:1.25;"/>
   </g>
   <g id="patch_55">
    <path d="M 11.370703 622.8 
L 1127.370703 622.8 
" style="fill:none;stroke:#262626;stroke-linecap:square;stroke-linejoin:miter;stroke-width:1.25;"/>
   </g>
   <g id="patch_56">
    <path d="M 11.370703 622.8 
L 11.370703 36 
" style="fill:none;stroke:#262626;stroke-linecap:square;stroke-linejoin:miter;stroke-width:1.25;"/>
   </g>
  </g>
  <g id="text_8">
   <!-- Length of Stay Distribution: Patients with Cerebrovascular Disease -->
   <defs>
    <path d="M 40.4375 19 
L 49.078125 17.875 
Q 47.65625 8.9375 41.8125 3.875 
Q 35.984375 -1.171875 27.484375 -1.171875 
Q 16.84375 -1.171875 10.375 5.78125 
Q 3.90625 12.75 3.90625 25.734375 
Q 3.90625 34.125 6.6875 40.421875 
Q 9.46875 46.734375 15.15625 49.875 
Q 20.84375 53.03125 27.546875 53.03125 
Q 35.984375 53.03125 41.359375 48.75 
Q 46.734375 44.484375 48.25 36.625 
L 39.703125 35.296875 
Q 38.484375 40.53125 35.375 43.15625 
Q 32.28125 45.796875 27.875 45.796875 
Q 21.234375 45.796875 17.078125 41.03125 
Q 12.9375 36.28125 12.9375 25.984375 
Q 12.9375 15.53125 16.9375 10.796875 
Q 20.953125 6.0625 27.390625 6.0625 
Q 32.5625 6.0625 36.03125 9.234375 
Q 39.5 12.40625 40.4375 19 
" id="ArialMT-63"/>
    <path d="M 14.703125 0 
L 6.546875 0 
L 6.546875 71.578125 
L 15.328125 71.578125 
L 15.328125 46.046875 
Q 20.90625 53.03125 29.546875 53.03125 
Q 34.328125 53.03125 38.59375 51.09375 
Q 42.875 49.171875 45.625 45.671875 
Q 48.390625 42.1875 49.953125 37.25 
Q 51.515625 32.328125 51.515625 26.703125 
Q 51.515625 13.375 44.921875 6.09375 
Q 38.328125 -1.171875 29.109375 -1.171875 
Q 19.921875 -1.171875 14.703125 6.5 
z
M 14.59375 26.3125 
Q 14.59375 17 17.140625 12.84375 
Q 21.296875 6.0625 28.375 6.0625 
Q 34.125 6.0625 38.328125 11.0625 
Q 42.53125 16.0625 42.53125 25.984375 
Q 42.53125 36.140625 38.5 40.96875 
Q 34.46875 45.796875 28.765625 45.796875 
Q 23 45.796875 18.796875 40.796875 
Q 14.59375 35.796875 14.59375 26.3125 
" id="ArialMT-62"/>
    <path d="M 21 0 
L 1.265625 51.859375 
L 10.546875 51.859375 
L 21.6875 20.796875 
Q 23.484375 15.765625 25 10.359375 
Q 26.171875 14.453125 28.265625 20.21875 
L 39.796875 51.859375 
L 48.828125 51.859375 
L 29.203125 0 
z
" id="ArialMT-76"/>
    <path d="M 9.03125 41.84375 
L 9.03125 51.859375 
L 19.046875 51.859375 
L 19.046875 41.84375 
z
M 9.03125 0 
L 9.03125 10.015625 
L 19.046875 10.015625 
L 19.046875 0 
z
" id="ArialMT-3a"/>
    <path d="M 6.640625 61.46875 
L 6.640625 71.578125 
L 15.4375 71.578125 
L 15.4375 61.46875 
z
M 6.640625 0 
L 6.640625 51.859375 
L 15.4375 51.859375 
L 15.4375 0 
z
" id="ArialMT-69"/>
    <path d="M 16.15625 0 
L 0.296875 51.859375 
L 9.375 51.859375 
L 17.625 21.921875 
L 20.703125 10.796875 
Q 20.90625 11.625 23.390625 21.484375 
L 31.640625 51.859375 
L 40.671875 51.859375 
L 48.4375 21.78125 
L 51.03125 11.859375 
L 54 21.875 
L 62.890625 51.859375 
L 71.4375 51.859375 
L 55.21875 0 
L 46.09375 0 
L 37.84375 31.0625 
L 35.84375 39.890625 
L 25.34375 0 
z
" id="ArialMT-77"/>
    <path d="M 6.5 0 
L 6.5 51.859375 
L 14.40625 51.859375 
L 14.40625 44 
Q 17.4375 49.515625 20 51.265625 
Q 22.5625 53.03125 25.640625 53.03125 
Q 30.078125 53.03125 34.671875 50.203125 
L 31.640625 42.046875 
Q 28.421875 43.953125 25.203125 43.953125 
Q 22.3125 43.953125 20.015625 42.21875 
Q 17.71875 40.484375 16.75 37.40625 
Q 15.28125 32.71875 15.28125 27.15625 
L 15.28125 0 
z
" id="ArialMT-72"/>
    <path d="M 6.390625 0 
L 6.390625 71.578125 
L 15.1875 71.578125 
L 15.1875 0 
z
" id="ArialMT-6c"/>
    <path d="M 58.796875 25.09375 
L 68.265625 22.703125 
Q 65.28125 11.03125 57.546875 4.90625 
Q 49.8125 -1.21875 38.625 -1.21875 
Q 27.046875 -1.21875 19.796875 3.484375 
Q 12.546875 8.203125 8.765625 17.140625 
Q 4.984375 26.078125 4.984375 36.328125 
Q 4.984375 47.515625 9.25 55.828125 
Q 13.53125 64.15625 21.40625 68.46875 
Q 29.296875 72.796875 38.765625 72.796875 
Q 49.515625 72.796875 56.828125 67.328125 
Q 64.15625 61.859375 67.046875 51.953125 
L 57.71875 49.75 
Q 55.21875 57.5625 50.484375 61.125 
Q 45.75 64.703125 38.578125 64.703125 
Q 30.328125 64.703125 24.78125 60.734375 
Q 19.234375 56.78125 16.984375 50.109375 
Q 14.75 43.453125 14.75 36.375 
Q 14.75 27.25 17.40625 20.4375 
Q 20.0625 13.625 25.671875 10.25 
Q 31.296875 6.890625 37.84375 6.890625 
Q 45.796875 6.890625 51.3125 11.46875 
Q 56.84375 16.0625 58.796875 25.09375 
" id="ArialMT-43"/>
    <path d="M 40.578125 0 
L 40.578125 7.625 
Q 34.515625 -1.171875 24.125 -1.171875 
Q 19.53125 -1.171875 15.546875 0.578125 
Q 11.578125 2.34375 9.640625 5 
Q 7.71875 7.671875 6.9375 11.53125 
Q 6.390625 14.109375 6.390625 19.734375 
L 6.390625 51.859375 
L 15.1875 51.859375 
L 15.1875 23.09375 
Q 15.1875 16.21875 15.71875 13.8125 
Q 16.546875 10.359375 19.234375 8.375 
Q 21.921875 6.390625 25.875 6.390625 
Q 29.828125 6.390625 33.296875 8.421875 
Q 36.765625 10.453125 38.203125 13.9375 
Q 39.65625 17.4375 39.65625 24.078125 
L 39.65625 51.859375 
L 48.4375 51.859375 
L 48.4375 0 
z
" id="ArialMT-75"/>
    <path d="M 7.71875 0 
L 7.71875 71.578125 
L 34.71875 71.578125 
Q 41.84375 71.578125 45.609375 70.90625 
Q 50.875 70.015625 54.4375 67.546875 
Q 58.015625 65.09375 60.1875 60.640625 
Q 62.359375 56.203125 62.359375 50.875 
Q 62.359375 41.75 56.546875 35.421875 
Q 50.734375 29.109375 35.546875 29.109375 
L 17.1875 29.109375 
L 17.1875 0 
z
M 17.1875 37.546875 
L 35.6875 37.546875 
Q 44.875 37.546875 48.734375 40.96875 
Q 52.59375 44.390625 52.59375 50.59375 
Q 52.59375 55.078125 50.3125 58.265625 
Q 48.046875 61.46875 44.34375 62.5 
Q 41.9375 63.140625 35.5 63.140625 
L 17.1875 63.140625 
z
" id="ArialMT-50"/>
   </defs>
   <g style="fill:#262626;" transform="translate(35.8671875 32.67890625)scale(0.35 -0.35)">
    <use xlink:href="#ArialMT-4c"/>
    <use x="55.615234375" xlink:href="#ArialMT-65"/>
    <use x="111.23046875" xlink:href="#ArialMT-6e"/>
    <use x="166.845703125" xlink:href="#ArialMT-67"/>
    <use x="222.4609375" xlink:href="#ArialMT-74"/>
    <use x="250.244140625" xlink:href="#ArialMT-68"/>
    <use x="305.859375" xlink:href="#ArialMT-20"/>
    <use x="333.642578125" xlink:href="#ArialMT-6f"/>
    <use x="389.2578125" xlink:href="#ArialMT-66"/>
    <use x="417.041015625" xlink:href="#ArialMT-20"/>
    <use x="444.82421875" xlink:href="#ArialMT-53"/>
    <use x="511.5234375" xlink:href="#ArialMT-74"/>
    <use x="539.306640625" xlink:href="#ArialMT-61"/>
    <use x="594.921875" xlink:href="#ArialMT-79"/>
    <use x="644.921875" xlink:href="#ArialMT-20"/>
    <use x="672.705078125" xlink:href="#ArialMT-44"/>
    <use x="744.921875" xlink:href="#ArialMT-69"/>
    <use x="767.138671875" xlink:href="#ArialMT-73"/>
    <use x="817.138671875" xlink:href="#ArialMT-74"/>
    <use x="844.921875" xlink:href="#ArialMT-72"/>
    <use x="878.22265625" xlink:href="#ArialMT-69"/>
    <use x="900.439453125" xlink:href="#ArialMT-62"/>
    <use x="956.0546875" xlink:href="#ArialMT-75"/>
    <use x="1011.66992188" xlink:href="#ArialMT-74"/>
    <use x="1039.453125" xlink:href="#ArialMT-69"/>
    <use x="1061.66992188" xlink:href="#ArialMT-6f"/>
    <use x="1117.28515625" xlink:href="#ArialMT-6e"/>
    <use x="1172.90039062" xlink:href="#ArialMT-3a"/>
    <use x="1200.68359375" xlink:href="#ArialMT-20"/>
    <use x="1228.46679688" xlink:href="#ArialMT-50"/>
    <use x="1295.16601562" xlink:href="#ArialMT-61"/>
    <use x="1350.78125" xlink:href="#ArialMT-74"/>
    <use x="1378.56445312" xlink:href="#ArialMT-69"/>
    <use x="1400.78125" xlink:href="#ArialMT-65"/>
    <use x="1456.39648438" xlink:href="#ArialMT-6e"/>
    <use x="1512.01171875" xlink:href="#ArialMT-74"/>
    <use x="1539.79492188" xlink:href="#ArialMT-73"/>
    <use x="1589.79492188" xlink:href="#ArialMT-20"/>
    <use x="1617.578125" xlink:href="#ArialMT-77"/>
    <use x="1689.79492188" xlink:href="#ArialMT-69"/>
    <use x="1712.01171875" xlink:href="#ArialMT-74"/>
    <use x="1739.79492188" xlink:href="#ArialMT-68"/>
    <use x="1795.41015625" xlink:href="#ArialMT-20"/>
    <use x="1823.19335938" xlink:href="#ArialMT-43"/>
    <use x="1895.41015625" xlink:href="#ArialMT-65"/>
    <use x="1951.02539062" xlink:href="#ArialMT-72"/>
    <use x="1984.32617188" xlink:href="#ArialMT-65"/>
    <use x="2039.94140625" xlink:href="#ArialMT-62"/>
    <use x="2095.55664062" xlink:href="#ArialMT-72"/>
    <use x="2128.85742188" xlink:href="#ArialMT-6f"/>
    <use x="2184.47265625" xlink:href="#ArialMT-76"/>
    <use x="2234.47265625" xlink:href="#ArialMT-61"/>
    <use x="2290.08789062" xlink:href="#ArialMT-73"/>
    <use x="2340.08789062" xlink:href="#ArialMT-63"/>
    <use x="2390.08789062" xlink:href="#ArialMT-75"/>
    <use x="2445.703125" xlink:href="#ArialMT-6c"/>
    <use x="2467.91992188" xlink:href="#ArialMT-61"/>
    <use x="2523.53515625" xlink:href="#ArialMT-72"/>
    <use x="2556.8359375" xlink:href="#ArialMT-20"/>
    <use x="2584.61914062" xlink:href="#ArialMT-44"/>
    <use x="2656.8359375" xlink:href="#ArialMT-69"/>
    <use x="2679.05273438" xlink:href="#ArialMT-73"/>
    <use x="2729.05273438" xlink:href="#ArialMT-65"/>
    <use x="2784.66796875" xlink:href="#ArialMT-61"/>
    <use x="2840.28320312" xlink:href="#ArialMT-73"/>
    <use x="2890.28320312" xlink:href="#ArialMT-65"/>
   </g>
  </g>
 </g>
 <defs>
  <clipPath id="p40361b334c">
   <rect height="586.8" width="1116.0" x="11.370703125" y="36.0"/>
  </clipPath>
 </defs>
</svg>
