<?xml version="1.0" encoding="utf-8" standalone="no"?>
<!DOCTYPE svg PUBLIC "-//W3C//DTD SVG 1.1//EN"
  "http://www.w3.org/Graphics/SVG/1.1/DTD/svg11.dtd">
<!-- Created with matplotlib (http://matplotlib.org/) -->
<svg height="656pt" version="1.1" viewBox="0 0 1179 656" width="1179pt" xmlns="http://www.w3.org/2000/svg" xmlns:xlink="http://www.w3.org/1999/xlink">
 <defs>
  <style type="text/css">
*{stroke-linecap:butt;stroke-linejoin:round;stroke-miterlimit:100000;}
  </style>
 </defs>
 <g id="figure_1">
  <g id="patch_1">
   <path d="M 0 656.75 
L 1179.103516 656.75 
L 1179.103516 0 
L 0 0 
L 0 656.75 
z
" style="fill:none;"/>
  </g>
  <g id="axes_1">
   <g id="patch_2">
    <path d="M 43.391406 595.678906 
L 1159.391406 595.678906 
L 1159.391406 37.678906 
L 43.391406 37.678906 
L 43.391406 595.678906 
z
" style="fill:none;"/>
   </g>
   <g id="matplotlib.axis_1">
    <g id="xtick_1">
     <g id="line2d_1">
      <defs>
       <path d="M 0 0 
L 0 0 
" id="mb3f1bd97f7" style="stroke:#262626;"/>
      </defs>
      <g>
       <use style="fill:#262626;stroke:#262626;" x="43.39140625" xlink:href="#mb3f1bd97f7" y="595.67890625"/>
      </g>
     </g>
     <g id="line2d_2">
      <g>
       <use style="fill:#262626;stroke:#262626;" x="43.39140625" xlink:href="#mb3f1bd97f7" y="37.67890625"/>
      </g>
     </g>
     <g id="text_1">
      <!-- 0 -->
      <defs>
       <path d="M 4.15625 35.296875 
Q 4.15625 48 6.765625 55.734375 
Q 9.375 63.484375 14.515625 67.671875 
Q 19.671875 71.875 27.484375 71.875 
Q 33.25 71.875 37.59375 69.546875 
Q 41.9375 67.234375 44.765625 62.859375 
Q 47.609375 58.5 49.21875 52.21875 
Q 50.828125 45.953125 50.828125 35.296875 
Q 50.828125 22.703125 48.234375 14.96875 
Q 45.65625 7.234375 40.5 3 
Q 35.359375 -1.21875 27.484375 -1.21875 
Q 17.140625 -1.21875 11.234375 6.203125 
Q 4.15625 15.140625 4.15625 35.296875 
M 13.1875 35.296875 
Q 13.1875 17.671875 17.3125 11.828125 
Q 21.4375 6 27.484375 6 
Q 33.546875 6 37.671875 11.859375 
Q 41.796875 17.71875 41.796875 35.296875 
Q 41.796875 52.984375 37.671875 58.78125 
Q 33.546875 64.59375 27.390625 64.59375 
Q 21.34375 64.59375 17.71875 59.46875 
Q 13.1875 52.9375 13.1875 35.296875 
" id="ArialMT-30"/>
      </defs>
      <g style="fill:#262626;" transform="translate(39.220703125 613.415625)scale(0.15 -0.15)">
       <use xlink:href="#ArialMT-30"/>
      </g>
     </g>
    </g>
    <g id="xtick_2">
     <g id="line2d_3">
      <g>
       <use style="fill:#262626;stroke:#262626;" x="266.59140625" xlink:href="#mb3f1bd97f7" y="595.67890625"/>
      </g>
     </g>
     <g id="line2d_4">
      <g>
       <use style="fill:#262626;stroke:#262626;" x="266.59140625" xlink:href="#mb3f1bd97f7" y="37.67890625"/>
      </g>
     </g>
     <g id="text_2">
      <!-- 20 -->
      <defs>
       <path d="M 50.34375 8.453125 
L 50.34375 0 
L 3.03125 0 
Q 2.9375 3.171875 4.046875 6.109375 
Q 5.859375 10.9375 9.828125 15.625 
Q 13.8125 20.3125 21.34375 26.46875 
Q 33.015625 36.03125 37.109375 41.625 
Q 41.21875 47.21875 41.21875 52.203125 
Q 41.21875 57.421875 37.46875 61 
Q 33.734375 64.59375 27.734375 64.59375 
Q 21.390625 64.59375 17.578125 60.78125 
Q 13.765625 56.984375 13.71875 50.25 
L 4.6875 51.171875 
Q 5.609375 61.28125 11.65625 66.578125 
Q 17.71875 71.875 27.9375 71.875 
Q 38.234375 71.875 44.234375 66.15625 
Q 50.25 60.453125 50.25 52 
Q 50.25 47.703125 48.484375 43.546875 
Q 46.734375 39.40625 42.65625 34.8125 
Q 38.578125 30.21875 29.109375 22.21875 
Q 21.1875 15.578125 18.9375 13.203125 
Q 16.703125 10.84375 15.234375 8.453125 
z
" id="ArialMT-32"/>
      </defs>
      <g style="fill:#262626;" transform="translate(258.25 613.415625)scale(0.15 -0.15)">
       <use xlink:href="#ArialMT-32"/>
       <use x="55.615234375" xlink:href="#ArialMT-30"/>
      </g>
     </g>
    </g>
    <g id="xtick_3">
     <g id="line2d_5">
      <g>
       <use style="fill:#262626;stroke:#262626;" x="489.79140625" xlink:href="#mb3f1bd97f7" y="595.67890625"/>
      </g>
     </g>
     <g id="line2d_6">
      <g>
       <use style="fill:#262626;stroke:#262626;" x="489.79140625" xlink:href="#mb3f1bd97f7" y="37.67890625"/>
      </g>
     </g>
     <g id="text_3">
      <!-- 40 -->
      <defs>
       <path d="M 32.328125 0 
L 32.328125 17.140625 
L 1.265625 17.140625 
L 1.265625 25.203125 
L 33.9375 71.578125 
L 41.109375 71.578125 
L 41.109375 25.203125 
L 50.78125 25.203125 
L 50.78125 17.140625 
L 41.109375 17.140625 
L 41.109375 0 
z
M 32.328125 25.203125 
L 32.328125 57.46875 
L 9.90625 25.203125 
z
" id="ArialMT-34"/>
      </defs>
      <g style="fill:#262626;" transform="translate(481.45 613.415625)scale(0.15 -0.15)">
       <use xlink:href="#ArialMT-34"/>
       <use x="55.615234375" xlink:href="#ArialMT-30"/>
      </g>
     </g>
    </g>
    <g id="xtick_4">
     <g id="line2d_7">
      <g>
       <use style="fill:#262626;stroke:#262626;" x="712.99140625" xlink:href="#mb3f1bd97f7" y="595.67890625"/>
      </g>
     </g>
     <g id="line2d_8">
      <g>
       <use style="fill:#262626;stroke:#262626;" x="712.99140625" xlink:href="#mb3f1bd97f7" y="37.67890625"/>
      </g>
     </g>
     <g id="text_4">
      <!-- 60 -->
      <defs>
       <path d="M 49.75 54.046875 
L 41.015625 53.375 
Q 39.84375 58.546875 37.703125 60.890625 
Q 34.125 64.65625 28.90625 64.65625 
Q 24.703125 64.65625 21.53125 62.3125 
Q 17.390625 59.28125 14.984375 53.46875 
Q 12.59375 47.65625 12.5 36.921875 
Q 15.671875 41.75 20.265625 44.09375 
Q 24.859375 46.4375 29.890625 46.4375 
Q 38.671875 46.4375 44.84375 39.96875 
Q 51.03125 33.5 51.03125 23.25 
Q 51.03125 16.5 48.125 10.71875 
Q 45.21875 4.9375 40.140625 1.859375 
Q 35.0625 -1.21875 28.609375 -1.21875 
Q 17.625 -1.21875 10.6875 6.859375 
Q 3.765625 14.9375 3.765625 33.5 
Q 3.765625 54.25 11.421875 63.671875 
Q 18.109375 71.875 29.4375 71.875 
Q 37.890625 71.875 43.28125 67.140625 
Q 48.6875 62.40625 49.75 54.046875 
M 13.875 23.1875 
Q 13.875 18.65625 15.796875 14.5 
Q 17.71875 10.359375 21.1875 8.171875 
Q 24.65625 6 28.46875 6 
Q 34.03125 6 38.03125 10.484375 
Q 42.046875 14.984375 42.046875 22.703125 
Q 42.046875 30.125 38.078125 34.390625 
Q 34.125 38.671875 28.125 38.671875 
Q 22.171875 38.671875 18.015625 34.390625 
Q 13.875 30.125 13.875 23.1875 
" id="ArialMT-36"/>
      </defs>
      <g style="fill:#262626;" transform="translate(704.65 613.415625)scale(0.15 -0.15)">
       <use xlink:href="#ArialMT-36"/>
       <use x="55.615234375" xlink:href="#ArialMT-30"/>
      </g>
     </g>
    </g>
    <g id="xtick_5">
     <g id="line2d_9">
      <g>
       <use style="fill:#262626;stroke:#262626;" x="936.19140625" xlink:href="#mb3f1bd97f7" y="595.67890625"/>
      </g>
     </g>
     <g id="line2d_10">
      <g>
       <use style="fill:#262626;stroke:#262626;" x="936.19140625" xlink:href="#mb3f1bd97f7" y="37.67890625"/>
      </g>
     </g>
     <g id="text_5">
      <!-- 80 -->
      <defs>
       <path d="M 17.671875 38.8125 
Q 12.203125 40.828125 9.5625 44.53125 
Q 6.9375 48.25 6.9375 53.421875 
Q 6.9375 61.234375 12.546875 66.546875 
Q 18.171875 71.875 27.484375 71.875 
Q 36.859375 71.875 42.578125 66.421875 
Q 48.296875 60.984375 48.296875 53.171875 
Q 48.296875 48.1875 45.671875 44.5 
Q 43.0625 40.828125 37.75 38.8125 
Q 44.34375 36.671875 47.78125 31.875 
Q 51.21875 27.09375 51.21875 20.453125 
Q 51.21875 11.28125 44.71875 5.03125 
Q 38.234375 -1.21875 27.640625 -1.21875 
Q 17.046875 -1.21875 10.546875 5.046875 
Q 4.046875 11.328125 4.046875 20.703125 
Q 4.046875 27.6875 7.59375 32.390625 
Q 11.140625 37.109375 17.671875 38.8125 
M 15.921875 53.71875 
Q 15.921875 48.640625 19.1875 45.40625 
Q 22.46875 42.1875 27.6875 42.1875 
Q 32.765625 42.1875 36.015625 45.375 
Q 39.265625 48.578125 39.265625 53.21875 
Q 39.265625 58.0625 35.90625 61.359375 
Q 32.5625 64.65625 27.59375 64.65625 
Q 22.5625 64.65625 19.234375 61.421875 
Q 15.921875 58.203125 15.921875 53.71875 
M 13.09375 20.65625 
Q 13.09375 16.890625 14.875 13.375 
Q 16.65625 9.859375 20.171875 7.921875 
Q 23.6875 6 27.734375 6 
Q 34.03125 6 38.125 10.046875 
Q 42.234375 14.109375 42.234375 20.359375 
Q 42.234375 26.703125 38.015625 30.859375 
Q 33.796875 35.015625 27.4375 35.015625 
Q 21.234375 35.015625 17.15625 30.90625 
Q 13.09375 26.8125 13.09375 20.65625 
" id="ArialMT-38"/>
      </defs>
      <g style="fill:#262626;" transform="translate(927.85 613.415625)scale(0.15 -0.15)">
       <use xlink:href="#ArialMT-38"/>
       <use x="55.615234375" xlink:href="#ArialMT-30"/>
      </g>
     </g>
    </g>
    <g id="xtick_6">
     <g id="line2d_11">
      <g>
       <use style="fill:#262626;stroke:#262626;" x="1159.39140625" xlink:href="#mb3f1bd97f7" y="595.67890625"/>
      </g>
     </g>
     <g id="line2d_12">
      <g>
       <use style="fill:#262626;stroke:#262626;" x="1159.39140625" xlink:href="#mb3f1bd97f7" y="37.67890625"/>
      </g>
     </g>
     <g id="text_6">
      <!-- 100 -->
      <defs>
       <path d="M 37.25 0 
L 28.46875 0 
L 28.46875 56 
Q 25.296875 52.984375 20.140625 49.953125 
Q 14.984375 46.921875 10.890625 45.40625 
L 10.890625 53.90625 
Q 18.265625 57.375 23.78125 62.296875 
Q 29.296875 67.234375 31.59375 71.875 
L 37.25 71.875 
z
" id="ArialMT-31"/>
      </defs>
      <g style="fill:#262626;" transform="translate(1146.87929688 613.415625)scale(0.15 -0.15)">
       <use xlink:href="#ArialMT-31"/>
       <use x="55.615234375" xlink:href="#ArialMT-30"/>
       <use x="111.23046875" xlink:href="#ArialMT-30"/>
      </g>
     </g>
    </g>
    <g id="text_7">
     <!-- Length of Stay (Days) -->
     <defs>
      <path d="M 40.4375 6.390625 
Q 35.546875 2.25 31.03125 0.53125 
Q 26.515625 -1.171875 21.34375 -1.171875 
Q 12.796875 -1.171875 8.203125 3 
Q 3.609375 7.171875 3.609375 13.671875 
Q 3.609375 17.484375 5.34375 20.625 
Q 7.078125 23.78125 9.890625 25.6875 
Q 12.703125 27.59375 16.21875 28.5625 
Q 18.796875 29.25 24.03125 29.890625 
Q 34.671875 31.15625 39.703125 32.90625 
Q 39.75 34.71875 39.75 35.203125 
Q 39.75 40.578125 37.25 42.78125 
Q 33.890625 45.75 27.25 45.75 
Q 21.046875 45.75 18.09375 43.578125 
Q 15.140625 41.40625 13.71875 35.890625 
L 5.125 37.0625 
Q 6.296875 42.578125 8.984375 45.96875 
Q 11.671875 49.359375 16.75 51.1875 
Q 21.828125 53.03125 28.515625 53.03125 
Q 35.15625 53.03125 39.296875 51.46875 
Q 43.453125 49.90625 45.40625 47.53125 
Q 47.359375 45.171875 48.140625 41.546875 
Q 48.578125 39.3125 48.578125 33.453125 
L 48.578125 21.734375 
Q 48.578125 9.46875 49.140625 6.21875 
Q 49.703125 2.984375 51.375 0 
L 42.1875 0 
Q 40.828125 2.734375 40.4375 6.390625 
M 39.703125 26.03125 
Q 34.90625 24.078125 25.34375 22.703125 
Q 19.921875 21.921875 17.671875 20.9375 
Q 15.4375 19.96875 14.203125 18.09375 
Q 12.984375 16.21875 12.984375 13.921875 
Q 12.984375 10.40625 15.640625 8.0625 
Q 18.3125 5.71875 23.4375 5.71875 
Q 28.515625 5.71875 32.46875 7.9375 
Q 36.421875 10.15625 38.28125 14.015625 
Q 39.703125 17 39.703125 22.796875 
z
" id="ArialMT-61"/>
      <path d="M 4.984375 -4.296875 
L 13.53125 -5.5625 
Q 14.0625 -9.515625 16.5 -11.328125 
Q 19.78125 -13.765625 25.4375 -13.765625 
Q 31.546875 -13.765625 34.859375 -11.328125 
Q 38.1875 -8.890625 39.359375 -4.5 
Q 40.046875 -1.8125 39.984375 6.78125 
Q 34.234375 0 25.640625 0 
Q 14.9375 0 9.078125 7.71875 
Q 3.21875 15.4375 3.21875 26.21875 
Q 3.21875 33.640625 5.90625 39.90625 
Q 8.59375 46.1875 13.6875 49.609375 
Q 18.796875 53.03125 25.6875 53.03125 
Q 34.859375 53.03125 40.828125 45.609375 
L 40.828125 51.859375 
L 48.921875 51.859375 
L 48.921875 7.03125 
Q 48.921875 -5.078125 46.453125 -10.125 
Q 44 -15.1875 38.640625 -18.109375 
Q 33.296875 -21.046875 25.484375 -21.046875 
Q 16.21875 -21.046875 10.5 -16.875 
Q 4.78125 -12.703125 4.984375 -4.296875 
M 12.25 26.859375 
Q 12.25 16.65625 16.296875 11.96875 
Q 20.359375 7.28125 26.46875 7.28125 
Q 32.515625 7.28125 36.609375 11.9375 
Q 40.71875 16.609375 40.71875 26.5625 
Q 40.71875 36.078125 36.5 40.90625 
Q 32.28125 45.75 26.3125 45.75 
Q 20.453125 45.75 16.34375 40.984375 
Q 12.25 36.234375 12.25 26.859375 
" id="ArialMT-67"/>
      <path d="M 8.6875 0 
L 8.6875 45.015625 
L 0.921875 45.015625 
L 0.921875 51.859375 
L 8.6875 51.859375 
L 8.6875 57.375 
Q 8.6875 62.59375 9.625 65.140625 
Q 10.890625 68.5625 14.078125 70.671875 
Q 17.28125 72.796875 23.046875 72.796875 
Q 26.765625 72.796875 31.25 71.921875 
L 29.9375 64.265625 
Q 27.203125 64.75 24.75 64.75 
Q 20.75 64.75 19.09375 63.03125 
Q 17.4375 61.328125 17.4375 56.640625 
L 17.4375 51.859375 
L 27.546875 51.859375 
L 27.546875 45.015625 
L 17.4375 45.015625 
L 17.4375 0 
z
" id="ArialMT-66"/>
      <path d="M 42.09375 16.703125 
L 51.171875 15.578125 
Q 49.03125 7.625 43.21875 3.21875 
Q 37.40625 -1.171875 28.375 -1.171875 
Q 17 -1.171875 10.328125 5.828125 
Q 3.65625 12.84375 3.65625 25.484375 
Q 3.65625 38.578125 10.390625 45.796875 
Q 17.140625 53.03125 27.875 53.03125 
Q 38.28125 53.03125 44.875 45.953125 
Q 51.46875 38.875 51.46875 26.03125 
Q 51.46875 25.25 51.421875 23.6875 
L 12.75 23.6875 
Q 13.234375 15.140625 17.578125 10.59375 
Q 21.921875 6.0625 28.421875 6.0625 
Q 33.25 6.0625 36.671875 8.59375 
Q 40.09375 11.140625 42.09375 16.703125 
M 13.234375 30.90625 
L 42.1875 30.90625 
Q 41.609375 37.453125 38.875 40.71875 
Q 34.671875 45.796875 27.984375 45.796875 
Q 21.921875 45.796875 17.796875 41.75 
Q 13.671875 37.703125 13.234375 30.90625 
" id="ArialMT-65"/>
      <path d="M 25.78125 7.859375 
L 27.046875 0.09375 
Q 23.34375 -0.6875 20.40625 -0.6875 
Q 15.625 -0.6875 12.984375 0.828125 
Q 10.359375 2.34375 9.28125 4.8125 
Q 8.203125 7.28125 8.203125 15.1875 
L 8.203125 45.015625 
L 1.765625 45.015625 
L 1.765625 51.859375 
L 8.203125 51.859375 
L 8.203125 64.703125 
L 16.9375 69.96875 
L 16.9375 51.859375 
L 25.78125 51.859375 
L 25.78125 45.015625 
L 16.9375 45.015625 
L 16.9375 14.703125 
Q 16.9375 10.9375 17.40625 9.859375 
Q 17.875 8.796875 18.921875 8.15625 
Q 19.96875 7.515625 21.921875 7.515625 
Q 23.390625 7.515625 25.78125 7.859375 
" id="ArialMT-74"/>
      <path d="M 4.5 23 
L 13.421875 23.78125 
Q 14.0625 18.40625 16.375 14.96875 
Q 18.703125 11.53125 23.578125 9.40625 
Q 28.46875 7.28125 34.578125 7.28125 
Q 39.984375 7.28125 44.140625 8.890625 
Q 48.296875 10.5 50.3125 13.296875 
Q 52.34375 16.109375 52.34375 19.4375 
Q 52.34375 22.796875 50.390625 25.3125 
Q 48.4375 27.828125 43.953125 29.546875 
Q 41.0625 30.671875 31.203125 33.03125 
Q 21.34375 35.40625 17.390625 37.5 
Q 12.25 40.1875 9.734375 44.15625 
Q 7.234375 48.140625 7.234375 53.078125 
Q 7.234375 58.5 10.296875 63.203125 
Q 13.375 67.921875 19.28125 70.359375 
Q 25.203125 72.796875 32.421875 72.796875 
Q 40.375 72.796875 46.453125 70.234375 
Q 52.546875 67.671875 55.8125 62.6875 
Q 59.078125 57.71875 59.328125 51.421875 
L 50.25 50.734375 
Q 49.515625 57.515625 45.28125 60.984375 
Q 41.0625 64.453125 32.8125 64.453125 
Q 24.21875 64.453125 20.28125 61.296875 
Q 16.359375 58.15625 16.359375 53.71875 
Q 16.359375 49.859375 19.140625 47.359375 
Q 21.875 44.875 33.421875 42.265625 
Q 44.96875 39.65625 49.265625 37.703125 
Q 55.515625 34.8125 58.484375 30.390625 
Q 61.46875 25.984375 61.46875 20.21875 
Q 61.46875 14.5 58.203125 9.4375 
Q 54.9375 4.390625 48.796875 1.578125 
Q 42.671875 -1.21875 35.015625 -1.21875 
Q 25.296875 -1.21875 18.71875 1.609375 
Q 12.15625 4.4375 8.421875 10.125 
Q 4.6875 15.828125 4.5 23 
" id="ArialMT-53"/>
      <path d="M 6.59375 0 
L 6.59375 71.578125 
L 15.375 71.578125 
L 15.375 45.90625 
Q 21.53125 53.03125 30.90625 53.03125 
Q 36.671875 53.03125 40.921875 50.75 
Q 45.171875 48.484375 47 44.484375 
Q 48.828125 40.484375 48.828125 32.859375 
L 48.828125 0 
L 40.046875 0 
L 40.046875 32.859375 
Q 40.046875 39.453125 37.1875 42.453125 
Q 34.328125 45.453125 29.109375 45.453125 
Q 25.203125 45.453125 21.75 43.421875 
Q 18.3125 41.40625 16.84375 37.9375 
Q 15.375 34.46875 15.375 28.375 
L 15.375 0 
z
" id="ArialMT-68"/>
      <path d="M 7.71875 0 
L 7.71875 71.578125 
L 32.375 71.578125 
Q 40.71875 71.578125 45.125 70.5625 
Q 51.265625 69.140625 55.609375 65.4375 
Q 61.28125 60.640625 64.078125 53.1875 
Q 66.890625 45.75 66.890625 36.1875 
Q 66.890625 28.03125 64.984375 21.734375 
Q 63.09375 15.4375 60.109375 11.296875 
Q 57.125 7.171875 53.578125 4.796875 
Q 50.046875 2.4375 45.046875 1.21875 
Q 40.046875 0 33.546875 0 
z
M 17.1875 8.453125 
L 32.46875 8.453125 
Q 39.546875 8.453125 43.578125 9.765625 
Q 47.609375 11.078125 50 13.484375 
Q 53.375 16.84375 55.25 22.53125 
Q 57.125 28.21875 57.125 36.328125 
Q 57.125 47.5625 53.4375 53.59375 
Q 49.75 59.625 44.484375 61.671875 
Q 40.671875 63.140625 32.234375 63.140625 
L 17.1875 63.140625 
z
" id="ArialMT-44"/>
      <path d="M 6.203125 -19.96875 
L 5.21875 -11.71875 
Q 8.109375 -12.5 10.25 -12.5 
Q 13.1875 -12.5 14.9375 -11.515625 
Q 16.703125 -10.546875 17.828125 -8.796875 
Q 18.65625 -7.46875 20.515625 -2.25 
Q 20.75 -1.515625 21.296875 -0.09375 
L 1.609375 51.859375 
L 11.078125 51.859375 
L 21.875 21.828125 
Q 23.96875 16.109375 25.640625 9.8125 
Q 27.15625 15.875 29.25 21.625 
L 40.328125 51.859375 
L 49.125 51.859375 
L 29.390625 -0.875 
Q 26.21875 -9.421875 24.46875 -12.640625 
Q 22.125 -17 19.09375 -19.015625 
Q 16.0625 -21.046875 11.859375 -21.046875 
Q 9.328125 -21.046875 6.203125 -19.96875 
" id="ArialMT-79"/>
      <path d="M 12.359375 -21.046875 
L 6.0625 -21.046875 
Q 20.65625 2.390625 20.65625 25.875 
Q 20.65625 35.0625 18.5625 44.09375 
Q 16.890625 51.421875 13.921875 58.15625 
Q 12.015625 62.546875 6.0625 72.796875 
L 12.359375 72.796875 
Q 21.53125 60.546875 25.921875 48.1875 
Q 29.6875 37.546875 29.6875 25.921875 
Q 29.6875 12.75 24.625 0.4375 
Q 19.578125 -11.859375 12.359375 -21.046875 
" id="ArialMT-29"/>
      <path d="M 3.328125 25.921875 
Q 3.328125 40.328125 11.328125 47.265625 
Q 18.015625 53.03125 27.640625 53.03125 
Q 38.328125 53.03125 45.109375 46.015625 
Q 51.90625 39.015625 51.90625 26.65625 
Q 51.90625 16.65625 48.90625 10.90625 
Q 45.90625 5.171875 40.15625 2 
Q 34.421875 -1.171875 27.640625 -1.171875 
Q 16.75 -1.171875 10.03125 5.8125 
Q 3.328125 12.796875 3.328125 25.921875 
M 12.359375 25.921875 
Q 12.359375 15.96875 16.703125 11.015625 
Q 21.046875 6.0625 27.640625 6.0625 
Q 34.1875 6.0625 38.53125 11.03125 
Q 42.875 16.015625 42.875 26.21875 
Q 42.875 35.84375 38.5 40.796875 
Q 34.125 45.75 27.640625 45.75 
Q 21.046875 45.75 16.703125 40.8125 
Q 12.359375 35.890625 12.359375 25.921875 
" id="ArialMT-6f"/>
      <path d="M 6.59375 0 
L 6.59375 51.859375 
L 14.5 51.859375 
L 14.5 44.484375 
Q 20.21875 53.03125 31 53.03125 
Q 35.6875 53.03125 39.625 51.34375 
Q 43.5625 49.65625 45.515625 46.921875 
Q 47.46875 44.1875 48.25 40.4375 
Q 48.734375 37.984375 48.734375 31.890625 
L 48.734375 0 
L 39.9375 0 
L 39.9375 31.546875 
Q 39.9375 36.921875 38.90625 39.578125 
Q 37.890625 42.234375 35.28125 43.8125 
Q 32.671875 45.40625 29.15625 45.40625 
Q 23.53125 45.40625 19.453125 41.84375 
Q 15.375 38.28125 15.375 28.328125 
L 15.375 0 
z
" id="ArialMT-6e"/>
      <path d="M 23.390625 -21.046875 
Q 16.109375 -11.859375 11.078125 0.4375 
Q 6.0625 12.75 6.0625 25.921875 
Q 6.0625 37.546875 9.8125 48.1875 
Q 14.203125 60.546875 23.390625 72.796875 
L 29.6875 72.796875 
Q 23.78125 62.640625 21.875 58.296875 
Q 18.890625 51.5625 17.1875 44.234375 
Q 15.09375 35.109375 15.09375 25.875 
Q 15.09375 2.390625 29.6875 -21.046875 
z
" id="ArialMT-28"/>
      <path d="M 7.328125 0 
L 7.328125 71.578125 
L 16.796875 71.578125 
L 16.796875 8.453125 
L 52.046875 8.453125 
L 52.046875 0 
z
" id="ArialMT-4c"/>
      <path d="M 3.078125 15.484375 
L 11.765625 16.84375 
Q 12.5 11.625 15.84375 8.84375 
Q 19.1875 6.0625 25.203125 6.0625 
Q 31.25 6.0625 34.171875 8.515625 
Q 37.109375 10.984375 37.109375 14.3125 
Q 37.109375 17.28125 34.515625 19 
Q 32.71875 20.171875 25.53125 21.96875 
Q 15.875 24.421875 12.140625 26.203125 
Q 8.40625 27.984375 6.46875 31.125 
Q 4.546875 34.28125 4.546875 38.09375 
Q 4.546875 41.546875 6.125 44.5 
Q 7.71875 47.46875 10.453125 49.421875 
Q 12.5 50.921875 16.03125 51.96875 
Q 19.578125 53.03125 23.640625 53.03125 
Q 29.734375 53.03125 34.34375 51.265625 
Q 38.96875 49.515625 41.15625 46.5 
Q 43.359375 43.5 44.1875 38.484375 
L 35.59375 37.3125 
Q 35.015625 41.3125 32.203125 43.546875 
Q 29.390625 45.796875 24.265625 45.796875 
Q 18.21875 45.796875 15.625 43.796875 
Q 13.03125 41.796875 13.03125 39.109375 
Q 13.03125 37.40625 14.109375 36.03125 
Q 15.1875 34.625 17.484375 33.6875 
Q 18.796875 33.203125 25.25 31.453125 
Q 34.578125 28.953125 38.25 27.359375 
Q 41.9375 25.78125 44.03125 22.75 
Q 46.140625 19.734375 46.140625 15.234375 
Q 46.140625 10.84375 43.578125 6.953125 
Q 41.015625 3.078125 36.171875 0.953125 
Q 31.34375 -1.171875 25.25 -1.171875 
Q 15.140625 -1.171875 9.84375 3.03125 
Q 4.546875 7.234375 3.078125 15.484375 
" id="ArialMT-73"/>
      <path id="ArialMT-20"/>
     </defs>
     <g style="fill:#262626;" transform="translate(456.3296875 643.2359375)scale(0.3 -0.3)">
      <use xlink:href="#ArialMT-4c"/>
      <use x="55.615234375" xlink:href="#ArialMT-65"/>
      <use x="111.23046875" xlink:href="#ArialMT-6e"/>
      <use x="166.845703125" xlink:href="#ArialMT-67"/>
      <use x="222.4609375" xlink:href="#ArialMT-74"/>
      <use x="250.244140625" xlink:href="#ArialMT-68"/>
      <use x="305.859375" xlink:href="#ArialMT-20"/>
      <use x="333.642578125" xlink:href="#ArialMT-6f"/>
      <use x="389.2578125" xlink:href="#ArialMT-66"/>
      <use x="417.041015625" xlink:href="#ArialMT-20"/>
      <use x="444.82421875" xlink:href="#ArialMT-53"/>
      <use x="511.5234375" xlink:href="#ArialMT-74"/>
      <use x="539.306640625" xlink:href="#ArialMT-61"/>
      <use x="594.921875" xlink:href="#ArialMT-79"/>
      <use x="644.921875" xlink:href="#ArialMT-20"/>
      <use x="672.705078125" xlink:href="#ArialMT-28"/>
      <use x="706.005859375" xlink:href="#ArialMT-44"/>
      <use x="778.22265625" xlink:href="#ArialMT-61"/>
      <use x="833.837890625" xlink:href="#ArialMT-79"/>
      <use x="883.837890625" xlink:href="#ArialMT-73"/>
      <use x="933.837890625" xlink:href="#ArialMT-29"/>
     </g>
    </g>
   </g>
   <g id="matplotlib.axis_2">
    <g id="ytick_1">
     <g id="line2d_13">
      <g>
       <use style="fill:#262626;stroke:#262626;" x="43.39140625" xlink:href="#mb3f1bd97f7" y="595.67890625"/>
      </g>
     </g>
     <g id="line2d_14">
      <g>
       <use style="fill:#262626;stroke:#262626;" x="1159.39140625" xlink:href="#mb3f1bd97f7" y="595.67890625"/>
      </g>
     </g>
     <g id="text_8">
      <!-- 0.00 -->
      <defs>
       <path d="M 9.078125 0 
L 9.078125 10.015625 
L 19.09375 10.015625 
L 19.09375 0 
z
" id="ArialMT-2e"/>
      </defs>
      <g style="fill:#262626;" transform="translate(7.2 599.556640625)scale(0.15 -0.15)">
       <use xlink:href="#ArialMT-30"/>
       <use x="55.615234375" xlink:href="#ArialMT-2e"/>
       <use x="83.3984375" xlink:href="#ArialMT-30"/>
       <use x="139.013671875" xlink:href="#ArialMT-30"/>
      </g>
     </g>
    </g>
    <g id="ytick_2">
     <g id="line2d_15">
      <g>
       <use style="fill:#262626;stroke:#262626;" x="43.39140625" xlink:href="#mb3f1bd97f7" y="502.67890625"/>
      </g>
     </g>
     <g id="line2d_16">
      <g>
       <use style="fill:#262626;stroke:#262626;" x="1159.39140625" xlink:href="#mb3f1bd97f7" y="502.67890625"/>
      </g>
     </g>
     <g id="text_9">
      <!-- 0.02 -->
      <g style="fill:#262626;" transform="translate(7.2 506.556640625)scale(0.15 -0.15)">
       <use xlink:href="#ArialMT-30"/>
       <use x="55.615234375" xlink:href="#ArialMT-2e"/>
       <use x="83.3984375" xlink:href="#ArialMT-30"/>
       <use x="139.013671875" xlink:href="#ArialMT-32"/>
      </g>
     </g>
    </g>
    <g id="ytick_3">
     <g id="line2d_17">
      <g>
       <use style="fill:#262626;stroke:#262626;" x="43.39140625" xlink:href="#mb3f1bd97f7" y="409.67890625"/>
      </g>
     </g>
     <g id="line2d_18">
      <g>
       <use style="fill:#262626;stroke:#262626;" x="1159.39140625" xlink:href="#mb3f1bd97f7" y="409.67890625"/>
      </g>
     </g>
     <g id="text_10">
      <!-- 0.04 -->
      <g style="fill:#262626;" transform="translate(7.2 413.556640625)scale(0.15 -0.15)">
       <use xlink:href="#ArialMT-30"/>
       <use x="55.615234375" xlink:href="#ArialMT-2e"/>
       <use x="83.3984375" xlink:href="#ArialMT-30"/>
       <use x="139.013671875" xlink:href="#ArialMT-34"/>
      </g>
     </g>
    </g>
    <g id="ytick_4">
     <g id="line2d_19">
      <g>
       <use style="fill:#262626;stroke:#262626;" x="43.39140625" xlink:href="#mb3f1bd97f7" y="316.67890625"/>
      </g>
     </g>
     <g id="line2d_20">
      <g>
       <use style="fill:#262626;stroke:#262626;" x="1159.39140625" xlink:href="#mb3f1bd97f7" y="316.67890625"/>
      </g>
     </g>
     <g id="text_11">
      <!-- 0.06 -->
      <g style="fill:#262626;" transform="translate(7.2 320.556640625)scale(0.15 -0.15)">
       <use xlink:href="#ArialMT-30"/>
       <use x="55.615234375" xlink:href="#ArialMT-2e"/>
       <use x="83.3984375" xlink:href="#ArialMT-30"/>
       <use x="139.013671875" xlink:href="#ArialMT-36"/>
      </g>
     </g>
    </g>
    <g id="ytick_5">
     <g id="line2d_21">
      <g>
       <use style="fill:#262626;stroke:#262626;" x="43.39140625" xlink:href="#mb3f1bd97f7" y="223.67890625"/>
      </g>
     </g>
     <g id="line2d_22">
      <g>
       <use style="fill:#262626;stroke:#262626;" x="1159.39140625" xlink:href="#mb3f1bd97f7" y="223.67890625"/>
      </g>
     </g>
     <g id="text_12">
      <!-- 0.08 -->
      <g style="fill:#262626;" transform="translate(7.2 227.556640625)scale(0.15 -0.15)">
       <use xlink:href="#ArialMT-30"/>
       <use x="55.615234375" xlink:href="#ArialMT-2e"/>
       <use x="83.3984375" xlink:href="#ArialMT-30"/>
       <use x="139.013671875" xlink:href="#ArialMT-38"/>
      </g>
     </g>
    </g>
    <g id="ytick_6">
     <g id="line2d_23">
      <g>
       <use style="fill:#262626;stroke:#262626;" x="43.39140625" xlink:href="#mb3f1bd97f7" y="130.67890625"/>
      </g>
     </g>
     <g id="line2d_24">
      <g>
       <use style="fill:#262626;stroke:#262626;" x="1159.39140625" xlink:href="#mb3f1bd97f7" y="130.67890625"/>
      </g>
     </g>
     <g id="text_13">
      <!-- 0.10 -->
      <g style="fill:#262626;" transform="translate(7.2 134.556640625)scale(0.15 -0.15)">
       <use xlink:href="#ArialMT-30"/>
       <use x="55.615234375" xlink:href="#ArialMT-2e"/>
       <use x="83.3984375" xlink:href="#ArialMT-31"/>
       <use x="139.013671875" xlink:href="#ArialMT-30"/>
      </g>
     </g>
    </g>
    <g id="ytick_7">
     <g id="line2d_25">
      <g>
       <use style="fill:#262626;stroke:#262626;" x="43.39140625" xlink:href="#mb3f1bd97f7" y="37.67890625"/>
      </g>
     </g>
     <g id="line2d_26">
      <g>
       <use style="fill:#262626;stroke:#262626;" x="1159.39140625" xlink:href="#mb3f1bd97f7" y="37.67890625"/>
      </g>
     </g>
     <g id="text_14">
      <!-- 0.12 -->
      <g style="fill:#262626;" transform="translate(7.2 41.556640625)scale(0.15 -0.15)">
       <use xlink:href="#ArialMT-30"/>
       <use x="55.615234375" xlink:href="#ArialMT-2e"/>
       <use x="83.3984375" xlink:href="#ArialMT-31"/>
       <use x="139.013671875" xlink:href="#ArialMT-32"/>
      </g>
     </g>
    </g>
   </g>
   <g id="patch_3">
    <path clip-path="url(#p234fab5ec1)" d="M 54.551406 595.678906 
L 76.425006 595.678906 
L 76.425006 122.935667 
L 54.551406 122.935667 
z
" style="fill:#dc322f;opacity:0.5;stroke:#eeeeee;stroke-linejoin:miter;stroke-width:0.3;"/>
   </g>
   <g id="patch_4">
    <path clip-path="url(#p234fab5ec1)" d="M 76.425006 595.678906 
L 98.298606 595.678906 
L 98.298606 254.709423 
L 76.425006 254.709423 
z
" style="fill:#dc322f;opacity:0.5;stroke:#eeeeee;stroke-linejoin:miter;stroke-width:0.3;"/>
   </g>
   <g id="patch_5">
    <path clip-path="url(#p234fab5ec1)" d="M 98.298606 595.678906 
L 120.172206 595.678906 
L 120.172206 344.774375 
L 98.298606 344.774375 
z
" style="fill:#dc322f;opacity:0.5;stroke:#eeeeee;stroke-linejoin:miter;stroke-width:0.3;"/>
   </g>
   <g id="patch_6">
    <path clip-path="url(#p234fab5ec1)" d="M 120.172206 595.678906 
L 142.045806 595.678906 
L 142.045806 391.17542 
L 120.172206 391.17542 
z
" style="fill:#dc322f;opacity:0.5;stroke:#eeeeee;stroke-linejoin:miter;stroke-width:0.3;"/>
   </g>
   <g id="patch_7">
    <path clip-path="url(#p234fab5ec1)" d="M 142.045806 595.678906 
L 163.919406 595.678906 
L 163.919406 441.356327 
L 142.045806 441.356327 
z
" style="fill:#dc322f;opacity:0.5;stroke:#eeeeee;stroke-linejoin:miter;stroke-width:0.3;"/>
   </g>
   <g id="patch_8">
    <path clip-path="url(#p234fab5ec1)" d="M 163.919406 595.678906 
L 185.793006 595.678906 
L 185.793006 476.157111 
L 163.919406 476.157111 
z
" style="fill:#dc322f;opacity:0.5;stroke:#eeeeee;stroke-linejoin:miter;stroke-width:0.3;"/>
   </g>
   <g id="patch_9">
    <path clip-path="url(#p234fab5ec1)" d="M 185.793006 595.678906 
L 207.666606 595.678906 
L 207.666606 490.233833 
L 185.793006 490.233833 
z
" style="fill:#dc322f;opacity:0.5;stroke:#eeeeee;stroke-linejoin:miter;stroke-width:0.3;"/>
   </g>
   <g id="patch_10">
    <path clip-path="url(#p234fab5ec1)" d="M 207.666606 595.678906 
L 229.540206 595.678906 
L 229.540206 515.519796 
L 207.666606 515.519796 
z
" style="fill:#dc322f;opacity:0.5;stroke:#eeeeee;stroke-linejoin:miter;stroke-width:0.3;"/>
   </g>
   <g id="patch_11">
    <path clip-path="url(#p234fab5ec1)" d="M 229.540206 595.678906 
L 251.413806 595.678906 
L 251.413806 528.944818 
L 229.540206 528.944818 
z
" style="fill:#dc322f;opacity:0.5;stroke:#eeeeee;stroke-linejoin:miter;stroke-width:0.3;"/>
   </g>
   <g id="patch_12">
    <path clip-path="url(#p234fab5ec1)" d="M 251.413806 595.678906 
L 273.287406 595.678906 
L 273.287406 543.5429 
L 251.413806 543.5429 
z
" style="fill:#dc322f;opacity:0.5;stroke:#eeeeee;stroke-linejoin:miter;stroke-width:0.3;"/>
   </g>
   <g id="patch_13">
    <path clip-path="url(#p234fab5ec1)" d="M 273.287406 595.678906 
L 295.161006 595.678906 
L 295.161006 542.50018 
L 273.287406 542.50018 
z
" style="fill:#dc322f;opacity:0.5;stroke:#eeeeee;stroke-linejoin:miter;stroke-width:0.3;"/>
   </g>
   <g id="patch_14">
    <path clip-path="url(#p234fab5ec1)" d="M 295.161006 595.678906 
L 317.034606 595.678906 
L 317.034606 555.794861 
L 295.161006 555.794861 
z
" style="fill:#dc322f;opacity:0.5;stroke:#eeeeee;stroke-linejoin:miter;stroke-width:0.3;"/>
   </g>
   <g id="patch_15">
    <path clip-path="url(#p234fab5ec1)" d="M 317.034606 595.678906 
L 338.908206 595.678906 
L 338.908206 562.442202 
L 317.034606 562.442202 
z
" style="fill:#dc322f;opacity:0.5;stroke:#eeeeee;stroke-linejoin:miter;stroke-width:0.3;"/>
   </g>
   <g id="patch_16">
    <path clip-path="url(#p234fab5ec1)" d="M 338.908206 595.678906 
L 360.781806 595.678906 
L 360.781806 564.266962 
L 338.908206 564.266962 
z
" style="fill:#dc322f;opacity:0.5;stroke:#eeeeee;stroke-linejoin:miter;stroke-width:0.3;"/>
   </g>
   <g id="patch_17">
    <path clip-path="url(#p234fab5ec1)" d="M 360.781806 595.678906 
L 382.655406 595.678906 
L 382.655406 568.177163 
L 360.781806 568.177163 
z
" style="fill:#dc322f;opacity:0.5;stroke:#eeeeee;stroke-linejoin:miter;stroke-width:0.3;"/>
   </g>
   <g id="patch_18">
    <path clip-path="url(#p234fab5ec1)" d="M 382.655406 595.678906 
L 404.529006 595.678906 
L 404.529006 571.566003 
L 382.655406 571.566003 
z
" style="fill:#dc322f;opacity:0.5;stroke:#eeeeee;stroke-linejoin:miter;stroke-width:0.3;"/>
   </g>
   <g id="patch_19">
    <path clip-path="url(#p234fab5ec1)" d="M 404.529006 595.678906 
L 426.402606 595.678906 
L 426.402606 570.001923 
L 404.529006 570.001923 
z
" style="fill:#dc322f;opacity:0.5;stroke:#eeeeee;stroke-linejoin:miter;stroke-width:0.3;"/>
   </g>
   <g id="patch_20">
    <path clip-path="url(#p234fab5ec1)" d="M 426.402606 595.678906 
L 448.276206 595.678906 
L 448.276206 573.651443 
L 426.402606 573.651443 
z
" style="fill:#dc322f;opacity:0.5;stroke:#eeeeee;stroke-linejoin:miter;stroke-width:0.3;"/>
   </g>
   <g id="patch_21">
    <path clip-path="url(#p234fab5ec1)" d="M 448.276206 595.678906 
L 470.149806 595.678906 
L 470.149806 576.258244 
L 448.276206 576.258244 
z
" style="fill:#dc322f;opacity:0.5;stroke:#eeeeee;stroke-linejoin:miter;stroke-width:0.3;"/>
   </g>
   <g id="patch_22">
    <path clip-path="url(#p234fab5ec1)" d="M 470.149806 595.678906 
L 492.023406 595.678906 
L 492.023406 578.995384 
L 470.149806 578.995384 
z
" style="fill:#dc322f;opacity:0.5;stroke:#eeeeee;stroke-linejoin:miter;stroke-width:0.3;"/>
   </g>
   <g id="patch_23">
    <path clip-path="url(#p234fab5ec1)" d="M 492.023406 595.678906 
L 513.897006 595.678906 
L 513.897006 578.213344 
L 492.023406 578.213344 
z
" style="fill:#dc322f;opacity:0.5;stroke:#eeeeee;stroke-linejoin:miter;stroke-width:0.3;"/>
   </g>
   <g id="patch_24">
    <path clip-path="url(#p234fab5ec1)" d="M 513.897006 595.678906 
L 535.770606 595.678906 
L 535.770606 580.820144 
L 513.897006 580.820144 
z
" style="fill:#dc322f;opacity:0.5;stroke:#eeeeee;stroke-linejoin:miter;stroke-width:0.3;"/>
   </g>
   <g id="patch_25">
    <path clip-path="url(#p234fab5ec1)" d="M 535.770606 595.678906 
L 557.644206 595.678906 
L 557.644206 584.208985 
L 535.770606 584.208985 
z
" style="fill:#dc322f;opacity:0.5;stroke:#eeeeee;stroke-linejoin:miter;stroke-width:0.3;"/>
   </g>
   <g id="patch_26">
    <path clip-path="url(#p234fab5ec1)" d="M 557.644206 595.678906 
L 579.517806 595.678906 
L 579.517806 583.948305 
L 557.644206 583.948305 
z
" style="fill:#dc322f;opacity:0.5;stroke:#eeeeee;stroke-linejoin:miter;stroke-width:0.3;"/>
   </g>
   <g id="patch_27">
    <path clip-path="url(#p234fab5ec1)" d="M 579.517806 595.678906 
L 601.391406 595.678906 
L 601.391406 587.467485 
L 579.517806 587.467485 
z
" style="fill:#dc322f;opacity:0.5;stroke:#eeeeee;stroke-linejoin:miter;stroke-width:0.3;"/>
   </g>
   <g id="patch_28">
    <path clip-path="url(#p234fab5ec1)" d="M 601.391406 595.678906 
L 623.265006 595.678906 
L 623.265006 583.817965 
L 601.391406 583.817965 
z
" style="fill:#dc322f;opacity:0.5;stroke:#eeeeee;stroke-linejoin:miter;stroke-width:0.3;"/>
   </g>
   <g id="patch_29">
    <path clip-path="url(#p234fab5ec1)" d="M 623.265006 595.678906 
L 645.138606 595.678906 
L 645.138606 584.600005 
L 623.265006 584.600005 
z
" style="fill:#dc322f;opacity:0.5;stroke:#eeeeee;stroke-linejoin:miter;stroke-width:0.3;"/>
   </g>
   <g id="patch_30">
    <path clip-path="url(#p234fab5ec1)" d="M 645.138606 595.678906 
L 667.012206 595.678906 
L 667.012206 585.903405 
L 645.138606 585.903405 
z
" style="fill:#dc322f;opacity:0.5;stroke:#eeeeee;stroke-linejoin:miter;stroke-width:0.3;"/>
   </g>
   <g id="patch_31">
    <path clip-path="url(#p234fab5ec1)" d="M 667.012206 595.678906 
L 688.885806 595.678906 
L 688.885806 583.687625 
L 667.012206 583.687625 
z
" style="fill:#dc322f;opacity:0.5;stroke:#eeeeee;stroke-linejoin:miter;stroke-width:0.3;"/>
   </g>
   <g id="patch_32">
    <path clip-path="url(#p234fab5ec1)" d="M 688.885806 595.678906 
L 710.759406 595.678906 
L 710.759406 586.424765 
L 688.885806 586.424765 
z
" style="fill:#dc322f;opacity:0.5;stroke:#eeeeee;stroke-linejoin:miter;stroke-width:0.3;"/>
   </g>
   <g id="patch_33">
    <path clip-path="url(#p234fab5ec1)" d="M 710.759406 595.678906 
L 732.633006 595.678906 
L 732.633006 586.946125 
L 710.759406 586.946125 
z
" style="fill:#dc322f;opacity:0.5;stroke:#eeeeee;stroke-linejoin:miter;stroke-width:0.3;"/>
   </g>
   <g id="patch_34">
    <path clip-path="url(#p234fab5ec1)" d="M 732.633006 595.678906 
L 754.506606 595.678906 
L 754.506606 585.512385 
L 732.633006 585.512385 
z
" style="fill:#dc322f;opacity:0.5;stroke:#eeeeee;stroke-linejoin:miter;stroke-width:0.3;"/>
   </g>
   <g id="patch_35">
    <path clip-path="url(#p234fab5ec1)" d="M 754.506606 595.678906 
L 776.380206 595.678906 
L 776.380206 585.512385 
L 754.506606 585.512385 
z
" style="fill:#dc322f;opacity:0.5;stroke:#eeeeee;stroke-linejoin:miter;stroke-width:0.3;"/>
   </g>
   <g id="patch_36">
    <path clip-path="url(#p234fab5ec1)" d="M 776.380206 595.678906 
L 798.253806 595.678906 
L 798.253806 587.597825 
L 776.380206 587.597825 
z
" style="fill:#dc322f;opacity:0.5;stroke:#eeeeee;stroke-linejoin:miter;stroke-width:0.3;"/>
   </g>
   <g id="patch_37">
    <path clip-path="url(#p234fab5ec1)" d="M 798.253806 595.678906 
L 820.127406 595.678906 
L 820.127406 590.856326 
L 798.253806 590.856326 
z
" style="fill:#dc322f;opacity:0.5;stroke:#eeeeee;stroke-linejoin:miter;stroke-width:0.3;"/>
   </g>
   <g id="patch_38">
    <path clip-path="url(#p234fab5ec1)" d="M 820.127406 595.678906 
L 842.001006 595.678906 
L 842.001006 588.379865 
L 820.127406 588.379865 
z
" style="fill:#dc322f;opacity:0.5;stroke:#eeeeee;stroke-linejoin:miter;stroke-width:0.3;"/>
   </g>
   <g id="patch_39">
    <path clip-path="url(#p234fab5ec1)" d="M 842.001006 595.678906 
L 863.874606 595.678906 
L 863.874606 589.031565 
L 842.001006 589.031565 
z
" style="fill:#dc322f;opacity:0.5;stroke:#eeeeee;stroke-linejoin:miter;stroke-width:0.3;"/>
   </g>
   <g id="patch_40">
    <path clip-path="url(#p234fab5ec1)" d="M 863.874606 595.678906 
L 885.748206 595.678906 
L 885.748206 589.422585 
L 863.874606 589.422585 
z
" style="fill:#dc322f;opacity:0.5;stroke:#eeeeee;stroke-linejoin:miter;stroke-width:0.3;"/>
   </g>
   <g id="patch_41">
    <path clip-path="url(#p234fab5ec1)" d="M 885.748206 595.678906 
L 907.621806 595.678906 
L 907.621806 590.074286 
L 885.748206 590.074286 
z
" style="fill:#dc322f;opacity:0.5;stroke:#eeeeee;stroke-linejoin:miter;stroke-width:0.3;"/>
   </g>
   <g id="patch_42">
    <path clip-path="url(#p234fab5ec1)" d="M 907.621806 595.678906 
L 929.495406 595.678906 
L 929.495406 590.204626 
L 907.621806 590.204626 
z
" style="fill:#dc322f;opacity:0.5;stroke:#eeeeee;stroke-linejoin:miter;stroke-width:0.3;"/>
   </g>
   <g id="patch_43">
    <path clip-path="url(#p234fab5ec1)" d="M 929.495406 595.678906 
L 951.369006 595.678906 
L 951.369006 591.117006 
L 929.495406 591.117006 
z
" style="fill:#dc322f;opacity:0.5;stroke:#eeeeee;stroke-linejoin:miter;stroke-width:0.3;"/>
   </g>
   <g id="patch_44">
    <path clip-path="url(#p234fab5ec1)" d="M 951.369006 595.678906 
L 973.242606 595.678906 
L 973.242606 592.159726 
L 951.369006 592.159726 
z
" style="fill:#dc322f;opacity:0.5;stroke:#eeeeee;stroke-linejoin:miter;stroke-width:0.3;"/>
   </g>
   <g id="patch_45">
    <path clip-path="url(#p234fab5ec1)" d="M 973.242606 595.678906 
L 995.116206 595.678906 
L 995.116206 587.988845 
L 973.242606 587.988845 
z
" style="fill:#dc322f;opacity:0.5;stroke:#eeeeee;stroke-linejoin:miter;stroke-width:0.3;"/>
   </g>
   <g id="patch_46">
    <path clip-path="url(#p234fab5ec1)" d="M 995.116206 595.678906 
L 1016.989806 595.678906 
L 1016.989806 591.247346 
L 995.116206 591.247346 
z
" style="fill:#dc322f;opacity:0.5;stroke:#eeeeee;stroke-linejoin:miter;stroke-width:0.3;"/>
   </g>
   <g id="patch_47">
    <path clip-path="url(#p234fab5ec1)" d="M 1016.989806 595.678906 
L 1038.863406 595.678906 
L 1038.863406 592.159726 
L 1016.989806 592.159726 
z
" style="fill:#dc322f;opacity:0.5;stroke:#eeeeee;stroke-linejoin:miter;stroke-width:0.3;"/>
   </g>
   <g id="patch_48">
    <path clip-path="url(#p234fab5ec1)" d="M 1038.863406 595.678906 
L 1060.737006 595.678906 
L 1060.737006 592.681086 
L 1038.863406 592.681086 
z
" style="fill:#dc322f;opacity:0.5;stroke:#eeeeee;stroke-linejoin:miter;stroke-width:0.3;"/>
   </g>
   <g id="patch_49">
    <path clip-path="url(#p234fab5ec1)" d="M 1060.737006 595.678906 
L 1082.610606 595.678906 
L 1082.610606 591.899046 
L 1060.737006 591.899046 
z
" style="fill:#dc322f;opacity:0.5;stroke:#eeeeee;stroke-linejoin:miter;stroke-width:0.3;"/>
   </g>
   <g id="patch_50">
    <path clip-path="url(#p234fab5ec1)" d="M 1082.610606 595.678906 
L 1104.484206 595.678906 
L 1104.484206 592.550746 
L 1082.610606 592.550746 
z
" style="fill:#dc322f;opacity:0.5;stroke:#eeeeee;stroke-linejoin:miter;stroke-width:0.3;"/>
   </g>
   <g id="patch_51">
    <path clip-path="url(#p234fab5ec1)" d="M 1104.484206 595.678906 
L 1126.357806 595.678906 
L 1126.357806 592.290066 
L 1104.484206 592.290066 
z
" style="fill:#dc322f;opacity:0.5;stroke:#eeeeee;stroke-linejoin:miter;stroke-width:0.3;"/>
   </g>
   <g id="patch_52">
    <path clip-path="url(#p234fab5ec1)" d="M 1126.357806 595.678906 
L 1148.231406 595.678906 
L 1148.231406 591.768706 
L 1126.357806 591.768706 
z
" style="fill:#dc322f;opacity:0.5;stroke:#eeeeee;stroke-linejoin:miter;stroke-width:0.3;"/>
   </g>
   <g id="line2d_27">
    <path clip-path="url(#p234fab5ec1)" d="M 54.551406 342.856695 
L 61.187082 239.071246 
L 63.398974 208.115396 
L 65.610866 181.00338 
L 66.716812 169.237298 
L 67.822758 158.828671 
L 68.928704 149.882807 
L 70.034649 142.488187 
L 71.140595 136.714686 
L 72.246541 132.612144 
L 73.352487 130.209347 
L 74.458433 129.513436 
L 75.564379 130.509764 
L 76.670325 133.162208 
L 77.776271 137.413926 
L 78.882217 143.188532 
L 79.988163 150.391666 
L 81.094109 158.912902 
L 82.200055 168.62795 
L 84.411947 191.087781 
L 86.623839 216.595615 
L 91.047622 271.86125 
L 94.36546 312.558838 
L 96.577352 337.578571 
L 98.789244 360.133309 
L 101.001136 379.802025 
L 103.213028 396.37181 
L 104.318974 403.479543 
L 105.42492 409.814932 
L 106.530866 415.398138 
L 107.636812 420.256573 
L 108.742758 424.423696 
L 109.848704 427.937849 
L 110.954649 430.841117 
L 112.060595 433.178277 
L 113.166541 434.995814 
L 114.272487 436.341034 
L 115.378433 437.261287 
L 116.484379 437.803286 
L 117.590325 438.012534 
L 118.696271 437.93286 
L 119.802217 437.606044 
L 120.908163 437.071541 
L 122.014109 436.366288 
L 124.226001 434.578023 
L 127.543839 431.385129 
L 131.967622 427.123005 
L 134.179514 425.284502 
L 136.391406 423.760712 
L 138.603298 422.611646 
L 140.81519 421.878599 
L 143.027082 421.587672 
L 144.133028 421.612725 
L 145.238974 421.752645 
L 146.34492 422.007604 
L 148.556812 422.86081 
L 150.768704 424.164264 
L 152.980595 425.903622 
L 155.192487 428.059272 
L 157.404379 430.60715 
L 159.616271 433.51945 
L 161.828163 436.765263 
L 164.040055 440.311176 
L 167.357893 446.115011 
L 170.675731 452.389649 
L 175.099514 461.267878 
L 190.582758 493.032084 
L 195.006541 501.317496 
L 198.324379 507.098417 
L 201.642217 512.457543 
L 204.960055 517.365063 
L 208.277893 521.804755 
L 211.595731 525.772808 
L 214.913568 529.276364 
L 218.231406 532.331898 
L 221.549244 534.963512 
L 224.867082 537.201217 
L 228.18492 539.079283 
L 231.502758 540.634698 
L 234.820595 541.905784 
L 238.138433 542.930996 
L 241.456271 543.747917 
L 245.880055 544.574875 
L 250.303839 545.173679 
L 255.833568 545.706604 
L 265.787082 546.39097 
L 276.846541 547.201697 
L 284.588163 547.989331 
L 292.329785 549.022406 
L 300.071406 550.311722 
L 307.813028 551.841126 
L 316.660595 553.839666 
L 326.614109 556.328635 
L 342.097352 560.469678 
L 360.898433 565.461889 
L 371.957893 568.172466 
L 381.911406 570.386814 
L 390.758974 572.146341 
L 399.606541 573.696307 
L 408.454109 575.03458 
L 417.301677 576.167573 
L 427.25519 577.213479 
L 437.208704 578.042648 
L 448.268163 578.747635 
L 461.539514 579.355107 
L 477.022758 579.831378 
L 500.247622 580.294959 
L 551.121136 581.259176 
L 579.875731 582.061215 
L 614.160055 583.252369 
L 721.436812 587.14934 
L 756.827082 588.11424 
L 794.429244 588.909791 
L 837.561136 589.585738 
L 896.176271 590.257495 
L 1062.068163 591.81832 
L 1159.391406 592.656185 
L 1159.391406 592.656185 
" style="fill:none;stroke:#dc322f;stroke-linecap:round;stroke-width:1.75;"/>
   </g>
   <g id="line2d_28">
    <path clip-path="url(#p234fab5ec1)" d="M 54.551406 581.317057 
L 57.869244 578.463066 
L 61.187082 575.188161 
L 64.50492 571.463099 
L 67.822758 567.263635 
L 71.140595 562.572173 
L 74.458433 557.379458 
L 77.776271 551.686232 
L 81.094109 545.504774 
L 84.411947 538.860239 
L 87.729785 531.791703 
L 92.153568 521.802305 
L 97.683298 508.652238 
L 109.848704 479.272931 
L 114.272487 469.316927 
L 117.590325 462.405278 
L 120.908163 456.111603 
L 123.120055 452.31904 
L 125.331947 448.888087 
L 127.543839 445.849312 
L 129.755731 443.230207 
L 131.967622 441.054785 
L 134.179514 439.343202 
L 136.391406 438.111456 
L 137.497352 437.679319 
L 138.603298 437.37113 
L 139.709244 437.187618 
L 140.81519 437.129217 
L 141.921136 437.196066 
L 143.027082 437.388007 
L 144.133028 437.704584 
L 145.238974 438.14505 
L 147.450866 439.393197 
L 149.662758 441.120711 
L 151.874649 443.311452 
L 154.086541 445.945125 
L 156.298433 448.997597 
L 158.510325 452.441262 
L 160.722217 456.245458 
L 164.040055 462.554387 
L 167.357893 469.478487 
L 170.675731 476.890185 
L 175.099514 487.305264 
L 191.688704 527.0382 
L 196.112487 536.706219 
L 199.430325 543.487411 
L 202.748163 549.816143 
L 206.066001 555.663027 
L 209.383839 561.011913 
L 212.701677 565.858631 
L 216.019514 570.209502 
L 219.337352 574.07971 
L 222.65519 577.491614 
L 225.973028 580.473075 
L 229.290866 583.055866 
L 232.608704 585.27421 
L 235.926541 587.163478 
L 239.244379 588.759078 
L 242.562217 590.095545 
L 245.880055 591.205814 
L 249.197893 592.120696 
L 253.621677 593.08517 
L 258.04546 593.811969 
L 263.57519 594.462962 
L 270.210866 594.970747 
L 277.952487 595.315323 
L 289.011947 595.547739 
L 306.707082 595.657129 
L 366.428163 595.678895 
L 1159.391406 595.678906 
L 1159.391406 595.678906 
" style="fill:none;stroke:#4c72b0;stroke-dasharray:6.000000,6.000000;stroke-dashoffset:0.0;stroke-width:1.75;"/>
   </g>
   <g id="line2d_29">
    <path clip-path="url(#p234fab5ec1)" d="M 54.551406 595.674627 
L 446.056271 595.546224 
L 639.596812 595.257843 
L 845.302758 594.709712 
L 1063.174109 594.173203 
L 1159.391406 594.096521 
L 1159.391406 594.096521 
" style="fill:none;stroke:#4c72b0;stroke-dasharray:6.000000,6.000000;stroke-dashoffset:0.0;stroke-width:1.75;"/>
   </g>
   <g id="line2d_30">
    <path clip-path="url(#p234fab5ec1)" d="M 54.551406 594.140772 
L 66.716812 593.427874 
L 77.776271 592.559725 
L 87.729785 591.5631 
L 97.683298 590.331257 
L 106.530866 589.016874 
L 115.378433 587.480078 
L 124.226001 585.711133 
L 133.073568 583.707485 
L 141.921136 581.475434 
L 151.874649 578.712465 
L 162.934109 575.378767 
L 177.311406 570.767275 
L 200.536271 563.285408 
L 210.489785 560.34743 
L 218.231406 558.28071 
L 225.973028 556.461158 
L 232.608704 555.133813 
L 239.244379 554.048236 
L 244.774109 553.343945 
L 250.303839 552.83243 
L 255.833568 552.520914 
L 261.363298 552.413826 
L 266.893028 552.51269 
L 272.422758 552.816099 
L 277.952487 553.319739 
L 283.482217 554.016496 
L 290.117893 555.093621 
L 296.753568 556.413305 
L 303.389244 557.949902 
L 311.130866 559.977783 
L 319.978433 562.543432 
L 331.037893 566.006283 
L 367.534109 577.672737 
L 377.487622 580.522039 
L 386.33519 582.841418 
L 395.182758 584.937728 
L 404.030325 586.800704 
L 412.877893 588.429551 
L 421.72546 589.831342 
L 430.573028 591.019272 
L 440.526541 592.122044 
L 450.480055 593.005431 
L 461.539514 593.767104 
L 473.70492 594.385652 
L 488.082217 594.887965 
L 505.777352 595.265747 
L 529.002217 595.515303 
L 564.392487 595.644981 
L 656.186001 595.678675 
L 1159.391406 595.678906 
L 1159.391406 595.678906 
" style="fill:none;stroke:#4c72b0;stroke-dasharray:6.000000,6.000000;stroke-dashoffset:0.0;stroke-width:1.75;"/>
   </g>
   <g id="line2d_31">
    <path clip-path="url(#p234fab5ec1)" d="M 54.551406 595.678906 
L 1159.391406 595.678906 
L 1159.391406 595.678906 
" style="fill:none;stroke:#4c72b0;stroke-dasharray:6.000000,6.000000;stroke-dashoffset:0.0;stroke-width:1.75;"/>
   </g>
   <g id="line2d_32">
    <path clip-path="url(#p234fab5ec1)" d="M 54.551406 359.049401 
L 60.081136 277.122042 
L 62.293028 247.167788 
L 64.50492 220.674581 
L 65.610866 209.096279 
L 66.716812 198.81109 
L 67.822758 189.939749 
L 68.928704 182.588171 
L 70.034649 176.845341 
L 71.140595 172.781526 
L 72.246541 170.446844 
L 73.352487 169.870235 
L 74.458433 171.05886 
L 75.564379 173.997962 
L 76.670325 178.65116 
L 77.776271 184.961208 
L 78.882217 192.85116 
L 79.988163 202.225937 
L 81.094109 212.97423 
L 83.306001 238.078397 
L 85.517893 267.037367 
L 88.835731 315.012693 
L 94.36546 397.106254 
L 96.577352 427.72365 
L 98.789244 455.959179 
L 101.001136 481.361641 
L 103.213028 503.685671 
L 105.42492 522.869092 
L 107.636812 539.000984 
L 109.848704 552.285085 
L 110.954649 557.945057 
L 112.060595 563.002685 
L 113.166541 567.499617 
L 114.272487 571.478329 
L 115.378433 574.981357 
L 116.484379 578.05064 
L 117.590325 580.726959 
L 118.696271 583.049486 
L 119.802217 585.055432 
L 120.908163 586.779783 
L 122.014109 588.255121 
L 123.120055 589.511522 
L 124.226001 590.576511 
L 125.331947 591.47508 
L 127.543839 592.860663 
L 129.755731 593.820665 
L 131.967622 594.473827 
L 134.179514 594.910273 
L 137.497352 595.299368 
L 141.921136 595.53914 
L 149.662758 595.658168 
L 177.311406 595.678902 
L 1159.391406 595.678906 
L 1159.391406 595.678906 
" style="fill:none;stroke:#4c72b0;stroke-dasharray:6.000000,6.000000;stroke-dashoffset:0.0;stroke-width:1.75;"/>
   </g>
   <g id="line2d_33">
    <path clip-path="url(#p234fab5ec1)" d="M 54.551406 595.678425 
L 1159.391406 595.671959 
L 1159.391406 595.671959 
" style="fill:none;stroke:#4c72b0;stroke-dasharray:6.000000,6.000000;stroke-dashoffset:0.0;stroke-width:1.75;"/>
   </g>
   <g id="line2d_34">
    <path clip-path="url(#p234fab5ec1)" d="M 54.551406 595.638999 
L 206.066001 595.450305 
L 303.389244 595.111878 
L 385.229244 594.608783 
L 468.17519 593.872347 
L 715.907082 591.4756 
L 771.204379 591.298308 
L 825.395731 591.348944 
L 881.798974 591.629102 
L 948.155731 592.194053 
L 1068.703839 593.502688 
L 1159.391406 594.388284 
L 1159.391406 594.388284 
" style="fill:none;stroke:#4c72b0;stroke-dasharray:6.000000,6.000000;stroke-dashoffset:0.0;stroke-width:1.75;"/>
   </g>
   <g id="line2d_35">
    <path clip-path="url(#p234fab5ec1)" d="M 54.551406 595.678877 
L 1100.776271 595.567602 
L 1159.391406 595.536781 
L 1159.391406 595.536781 
" style="fill:none;stroke:#4c72b0;stroke-dasharray:6.000000,6.000000;stroke-dashoffset:0.0;stroke-width:1.75;"/>
   </g>
   <g id="line2d_36">
    <path clip-path="url(#p234fab5ec1)" d="M 54.551406 595.430881 
L 104.318974 595.09138 
L 143.027082 594.611573 
L 176.20546 593.987579 
L 207.171947 593.188616 
L 237.032487 592.201266 
L 267.998974 590.957462 
L 304.49519 589.258671 
L 392.970866 585.0198 
L 418.407622 584.09325 
L 440.526541 583.501319 
L 461.539514 583.157777 
L 481.446541 583.046924 
L 501.353568 583.150754 
L 522.366541 583.487275 
L 544.48546 584.07266 
L 568.816271 584.948526 
L 597.570866 586.215078 
L 647.338433 588.678733 
L 692.682217 590.832079 
L 724.754649 592.136387 
L 755.721136 593.169303 
L 786.687622 593.972975 
L 819.866001 594.601351 
L 856.362217 595.063469 
L 900.600055 595.389887 
L 960.321136 595.587765 
L 1064.280055 595.670432 
L 1159.391406 595.678265 
L 1159.391406 595.678265 
" style="fill:none;stroke:#4c72b0;stroke-dasharray:6.000000,6.000000;stroke-dashoffset:0.0;stroke-width:1.75;"/>
   </g>
   <g id="patch_53">
    <path d="M 43.391406 37.678906 
L 1159.391406 37.678906 
" style="fill:none;stroke:#262626;stroke-linecap:square;stroke-linejoin:miter;stroke-width:1.25;"/>
   </g>
   <g id="patch_54">
    <path d="M 1159.391406 595.678906 
L 1159.391406 37.678906 
" style="fill:none;stroke:#262626;stroke-linecap:square;stroke-linejoin:miter;stroke-width:1.25;"/>
   </g>
   <g id="patch_55">
    <path d="M 43.391406 595.678906 
L 1159.391406 595.678906 
" style="fill:none;stroke:#262626;stroke-linecap:square;stroke-linejoin:miter;stroke-width:1.25;"/>
   </g>
   <g id="patch_56">
    <path d="M 43.391406 595.678906 
L 43.391406 37.678906 
" style="fill:none;stroke:#262626;stroke-linecap:square;stroke-linejoin:miter;stroke-width:1.25;"/>
   </g>
   <g id="text_15">
    <!-- Gaussian Mixture Model: 9 Components -->
    <defs>
     <path d="M 0.734375 0 
L 19.671875 26.953125 
L 2.15625 51.859375 
L 13.140625 51.859375 
L 21.09375 39.703125 
Q 23.34375 36.234375 24.703125 33.890625 
Q 26.859375 37.109375 28.65625 39.59375 
L 37.40625 51.859375 
L 47.90625 51.859375 
L 29.984375 27.4375 
L 49.265625 0 
L 38.484375 0 
L 27.828125 16.109375 
L 25 20.453125 
L 11.375 0 
z
" id="ArialMT-78"/>
     <path d="M 40.234375 0 
L 40.234375 6.546875 
Q 35.296875 -1.171875 25.734375 -1.171875 
Q 19.53125 -1.171875 14.328125 2.25 
Q 9.125 5.671875 6.265625 11.796875 
Q 3.421875 17.921875 3.421875 25.875 
Q 3.421875 33.640625 6 39.96875 
Q 8.59375 46.296875 13.765625 49.65625 
Q 18.953125 53.03125 25.34375 53.03125 
Q 30.03125 53.03125 33.6875 51.046875 
Q 37.359375 49.078125 39.65625 45.90625 
L 39.65625 71.578125 
L 48.390625 71.578125 
L 48.390625 0 
z
M 12.453125 25.875 
Q 12.453125 15.921875 16.640625 10.984375 
Q 20.84375 6.0625 26.5625 6.0625 
Q 32.328125 6.0625 36.34375 10.765625 
Q 40.375 15.484375 40.375 25.140625 
Q 40.375 35.796875 36.265625 40.765625 
Q 32.171875 45.75 26.171875 45.75 
Q 20.3125 45.75 16.375 40.96875 
Q 12.453125 36.1875 12.453125 25.875 
" id="ArialMT-64"/>
     <path d="M 40.578125 0 
L 40.578125 7.625 
Q 34.515625 -1.171875 24.125 -1.171875 
Q 19.53125 -1.171875 15.546875 0.578125 
Q 11.578125 2.34375 9.640625 5 
Q 7.71875 7.671875 6.9375 11.53125 
Q 6.390625 14.109375 6.390625 19.734375 
L 6.390625 51.859375 
L 15.1875 51.859375 
L 15.1875 23.09375 
Q 15.1875 16.21875 15.71875 13.8125 
Q 16.546875 10.359375 19.234375 8.375 
Q 21.921875 6.390625 25.875 6.390625 
Q 29.828125 6.390625 33.296875 8.421875 
Q 36.765625 10.453125 38.203125 13.9375 
Q 39.65625 17.4375 39.65625 24.078125 
L 39.65625 51.859375 
L 48.4375 51.859375 
L 48.4375 0 
z
" id="ArialMT-75"/>
     <path d="M 6.640625 61.46875 
L 6.640625 71.578125 
L 15.4375 71.578125 
L 15.4375 61.46875 
z
M 6.640625 0 
L 6.640625 51.859375 
L 15.4375 51.859375 
L 15.4375 0 
z
" id="ArialMT-69"/>
     <path d="M 6.59375 0 
L 6.59375 51.859375 
L 14.453125 51.859375 
L 14.453125 44.578125 
Q 16.890625 48.390625 20.9375 50.703125 
Q 25 53.03125 30.171875 53.03125 
Q 35.9375 53.03125 39.625 50.640625 
Q 43.3125 48.25 44.828125 43.953125 
Q 50.984375 53.03125 60.84375 53.03125 
Q 68.5625 53.03125 72.703125 48.75 
Q 76.859375 44.484375 76.859375 35.59375 
L 76.859375 0 
L 68.109375 0 
L 68.109375 32.671875 
Q 68.109375 37.9375 67.25 40.25 
Q 66.40625 42.578125 64.15625 43.984375 
Q 61.921875 45.40625 58.890625 45.40625 
Q 53.421875 45.40625 49.796875 41.765625 
Q 46.1875 38.140625 46.1875 30.125 
L 46.1875 0 
L 37.40625 0 
L 37.40625 33.6875 
Q 37.40625 39.546875 35.25 42.46875 
Q 33.109375 45.40625 28.21875 45.40625 
Q 24.515625 45.40625 21.359375 43.453125 
Q 18.21875 41.5 16.796875 37.734375 
Q 15.375 33.984375 15.375 26.90625 
L 15.375 0 
z
" id="ArialMT-6d"/>
     <path d="M 6.59375 -19.875 
L 6.59375 51.859375 
L 14.59375 51.859375 
L 14.59375 45.125 
Q 17.4375 49.078125 21 51.046875 
Q 24.5625 53.03125 29.640625 53.03125 
Q 36.28125 53.03125 41.359375 49.609375 
Q 46.4375 46.1875 49.015625 39.953125 
Q 51.609375 33.734375 51.609375 26.3125 
Q 51.609375 18.359375 48.75 11.984375 
Q 45.90625 5.609375 40.453125 2.21875 
Q 35.015625 -1.171875 29 -1.171875 
Q 24.609375 -1.171875 21.109375 0.6875 
Q 17.625 2.546875 15.375 5.375 
L 15.375 -19.875 
z
M 14.546875 25.640625 
Q 14.546875 15.625 18.59375 10.84375 
Q 22.65625 6.0625 28.421875 6.0625 
Q 34.28125 6.0625 38.453125 11.015625 
Q 42.625 15.96875 42.625 26.375 
Q 42.625 36.28125 38.546875 41.203125 
Q 34.46875 46.140625 28.8125 46.140625 
Q 23.1875 46.140625 18.859375 40.890625 
Q 14.546875 35.640625 14.546875 25.640625 
" id="ArialMT-70"/>
     <path d="M 6.5 0 
L 6.5 51.859375 
L 14.40625 51.859375 
L 14.40625 44 
Q 17.4375 49.515625 20 51.265625 
Q 22.5625 53.03125 25.640625 53.03125 
Q 30.078125 53.03125 34.671875 50.203125 
L 31.640625 42.046875 
Q 28.421875 43.953125 25.203125 43.953125 
Q 22.3125 43.953125 20.015625 42.21875 
Q 17.71875 40.484375 16.75 37.40625 
Q 15.28125 32.71875 15.28125 27.15625 
L 15.28125 0 
z
" id="ArialMT-72"/>
     <path d="M 6.390625 0 
L 6.390625 71.578125 
L 15.1875 71.578125 
L 15.1875 0 
z
" id="ArialMT-6c"/>
     <path d="M 5.46875 16.546875 
L 13.921875 17.328125 
Q 14.984375 11.375 18.015625 8.6875 
Q 21.046875 6 25.78125 6 
Q 29.828125 6 32.875 7.859375 
Q 35.9375 9.71875 37.890625 12.8125 
Q 39.84375 15.921875 41.15625 21.1875 
Q 42.484375 26.46875 42.484375 31.9375 
Q 42.484375 32.515625 42.4375 33.6875 
Q 39.796875 29.5 35.234375 26.875 
Q 30.671875 24.265625 25.34375 24.265625 
Q 16.453125 24.265625 10.296875 30.703125 
Q 4.15625 37.15625 4.15625 47.703125 
Q 4.15625 58.59375 10.578125 65.234375 
Q 17 71.875 26.65625 71.875 
Q 33.640625 71.875 39.421875 68.109375 
Q 45.21875 64.359375 48.21875 57.390625 
Q 51.21875 50.4375 51.21875 37.25 
Q 51.21875 23.53125 48.234375 15.40625 
Q 45.265625 7.28125 39.375 3.03125 
Q 33.5 -1.21875 25.59375 -1.21875 
Q 17.1875 -1.21875 11.859375 3.4375 
Q 6.546875 8.109375 5.46875 16.546875 
M 41.453125 48.140625 
Q 41.453125 55.71875 37.421875 60.15625 
Q 33.40625 64.59375 27.734375 64.59375 
Q 21.875 64.59375 17.53125 59.8125 
Q 13.1875 55.03125 13.1875 47.40625 
Q 13.1875 40.578125 17.3125 36.296875 
Q 21.4375 32.03125 27.484375 32.03125 
Q 33.59375 32.03125 37.515625 36.296875 
Q 41.453125 40.578125 41.453125 48.140625 
" id="ArialMT-39"/>
     <path d="M 58.796875 25.09375 
L 68.265625 22.703125 
Q 65.28125 11.03125 57.546875 4.90625 
Q 49.8125 -1.21875 38.625 -1.21875 
Q 27.046875 -1.21875 19.796875 3.484375 
Q 12.546875 8.203125 8.765625 17.140625 
Q 4.984375 26.078125 4.984375 36.328125 
Q 4.984375 47.515625 9.25 55.828125 
Q 13.53125 64.15625 21.40625 68.46875 
Q 29.296875 72.796875 38.765625 72.796875 
Q 49.515625 72.796875 56.828125 67.328125 
Q 64.15625 61.859375 67.046875 51.953125 
L 57.71875 49.75 
Q 55.21875 57.5625 50.484375 61.125 
Q 45.75 64.703125 38.578125 64.703125 
Q 30.328125 64.703125 24.78125 60.734375 
Q 19.234375 56.78125 16.984375 50.109375 
Q 14.75 43.453125 14.75 36.375 
Q 14.75 27.25 17.40625 20.4375 
Q 20.0625 13.625 25.671875 10.25 
Q 31.296875 6.890625 37.84375 6.890625 
Q 45.796875 6.890625 51.3125 11.46875 
Q 56.84375 16.0625 58.796875 25.09375 
" id="ArialMT-43"/>
     <path d="M 41.21875 28.078125 
L 41.21875 36.46875 
L 71.53125 36.53125 
L 71.53125 9.96875 
Q 64.546875 4.390625 57.125 1.578125 
Q 49.703125 -1.21875 41.890625 -1.21875 
Q 31.34375 -1.21875 22.71875 3.296875 
Q 14.109375 7.8125 9.71875 16.359375 
Q 5.328125 24.90625 5.328125 35.453125 
Q 5.328125 45.90625 9.6875 54.953125 
Q 14.0625 64.015625 22.265625 68.40625 
Q 30.46875 72.796875 41.15625 72.796875 
Q 48.921875 72.796875 55.1875 70.28125 
Q 61.46875 67.78125 65.03125 63.28125 
Q 68.609375 58.796875 70.453125 51.5625 
L 61.921875 49.21875 
Q 60.296875 54.6875 57.90625 57.8125 
Q 55.515625 60.9375 51.0625 62.8125 
Q 46.625 64.703125 41.21875 64.703125 
Q 34.71875 64.703125 29.984375 62.71875 
Q 25.25 60.75 22.34375 57.515625 
Q 19.4375 54.296875 17.828125 50.4375 
Q 15.09375 43.796875 15.09375 36.03125 
Q 15.09375 26.46875 18.390625 20.015625 
Q 21.6875 13.578125 27.984375 10.453125 
Q 34.28125 7.328125 41.359375 7.328125 
Q 47.515625 7.328125 53.375 9.6875 
Q 59.234375 12.0625 62.25 14.75 
L 62.25 28.078125 
z
" id="ArialMT-47"/>
     <path d="M 9.03125 41.84375 
L 9.03125 51.859375 
L 19.046875 51.859375 
L 19.046875 41.84375 
z
M 9.03125 0 
L 9.03125 10.015625 
L 19.046875 10.015625 
L 19.046875 0 
z
" id="ArialMT-3a"/>
     <path d="M 7.421875 0 
L 7.421875 71.578125 
L 21.6875 71.578125 
L 38.625 20.90625 
Q 40.96875 13.8125 42.046875 10.296875 
Q 43.265625 14.203125 45.84375 21.78125 
L 62.984375 71.578125 
L 75.734375 71.578125 
L 75.734375 0 
L 66.609375 0 
L 66.609375 59.90625 
L 45.796875 0 
L 37.25 0 
L 16.546875 60.9375 
L 16.546875 0 
z
" id="ArialMT-4d"/>
    </defs>
    <g style="fill:#262626;" transform="translate(289.18046875 32.67890625)scale(0.35 -0.35)">
     <use xlink:href="#ArialMT-47"/>
     <use x="77.783203125" xlink:href="#ArialMT-61"/>
     <use x="133.3984375" xlink:href="#ArialMT-75"/>
     <use x="189.013671875" xlink:href="#ArialMT-73"/>
     <use x="239.013671875" xlink:href="#ArialMT-73"/>
     <use x="289.013671875" xlink:href="#ArialMT-69"/>
     <use x="311.23046875" xlink:href="#ArialMT-61"/>
     <use x="366.845703125" xlink:href="#ArialMT-6e"/>
     <use x="422.4609375" xlink:href="#ArialMT-20"/>
     <use x="450.244140625" xlink:href="#ArialMT-4d"/>
     <use x="533.544921875" xlink:href="#ArialMT-69"/>
     <use x="555.76171875" xlink:href="#ArialMT-78"/>
     <use x="605.76171875" xlink:href="#ArialMT-74"/>
     <use x="633.544921875" xlink:href="#ArialMT-75"/>
     <use x="689.16015625" xlink:href="#ArialMT-72"/>
     <use x="722.4609375" xlink:href="#ArialMT-65"/>
     <use x="778.076171875" xlink:href="#ArialMT-20"/>
     <use x="805.859375" xlink:href="#ArialMT-4d"/>
     <use x="889.16015625" xlink:href="#ArialMT-6f"/>
     <use x="944.775390625" xlink:href="#ArialMT-64"/>
     <use x="1000.390625" xlink:href="#ArialMT-65"/>
     <use x="1056.00585938" xlink:href="#ArialMT-6c"/>
     <use x="1078.22265625" xlink:href="#ArialMT-3a"/>
     <use x="1106.00585938" xlink:href="#ArialMT-20"/>
     <use x="1133.7890625" xlink:href="#ArialMT-39"/>
     <use x="1189.40429688" xlink:href="#ArialMT-20"/>
     <use x="1217.1875" xlink:href="#ArialMT-43"/>
     <use x="1289.40429688" xlink:href="#ArialMT-6f"/>
     <use x="1345.01953125" xlink:href="#ArialMT-6d"/>
     <use x="1428.3203125" xlink:href="#ArialMT-70"/>
     <use x="1483.93554688" xlink:href="#ArialMT-6f"/>
     <use x="1539.55078125" xlink:href="#ArialMT-6e"/>
     <use x="1595.16601562" xlink:href="#ArialMT-65"/>
     <use x="1650.78125" xlink:href="#ArialMT-6e"/>
     <use x="1706.39648438" xlink:href="#ArialMT-74"/>
     <use x="1734.1796875" xlink:href="#ArialMT-73"/>
    </g>
   </g>
   <g id="legend_1">
    <g id="line2d_37">
     <path d="M 935.991406 50.678906 
L 955.991406 50.678906 
" style="fill:none;stroke:#dc322f;stroke-linecap:round;stroke-width:1.75;"/>
    </g>
    <g id="line2d_38"/>
    <g id="text_16">
     <!-- Mixture Model Probability Distribution $p(x)$ -->
     <defs>
      <path d="M 14.703125 0 
L 6.546875 0 
L 6.546875 71.578125 
L 15.328125 71.578125 
L 15.328125 46.046875 
Q 20.90625 53.03125 29.546875 53.03125 
Q 34.328125 53.03125 38.59375 51.09375 
Q 42.875 49.171875 45.625 45.671875 
Q 48.390625 42.1875 49.953125 37.25 
Q 51.515625 32.328125 51.515625 26.703125 
Q 51.515625 13.375 44.921875 6.09375 
Q 38.328125 -1.171875 29.109375 -1.171875 
Q 19.921875 -1.171875 14.703125 6.5 
z
M 14.59375 26.3125 
Q 14.59375 17 17.140625 12.84375 
Q 21.296875 6.0625 28.375 6.0625 
Q 34.125 6.0625 38.328125 11.0625 
Q 42.53125 16.0625 42.53125 25.984375 
Q 42.53125 36.140625 38.5 40.96875 
Q 34.46875 45.796875 28.765625 45.796875 
Q 23 45.796875 18.796875 40.796875 
Q 14.59375 35.796875 14.59375 26.3125 
" id="ArialMT-62"/>
      <path d="M 31 -24.8125 
Q 25.4375 -20.40625 21.40625 -14.71875 
Q 17.390625 -9.03125 14.8125 -2.578125 
Q 12.25 3.859375 10.984375 10.890625 
Q 9.71875 17.921875 9.71875 25 
Q 9.71875 32.171875 10.984375 39.203125 
Q 12.25 46.234375 14.859375 52.734375 
Q 17.484375 59.234375 21.53125 64.890625 
Q 25.59375 70.5625 31 74.8125 
Q 31 75 31.5 75 
L 32.421875 75 
Q 32.71875 75 32.953125 74.734375 
Q 33.203125 74.46875 33.203125 74.125 
Q 33.203125 73.6875 33.015625 73.484375 
Q 28.125 68.703125 24.875 63.234375 
Q 21.625 57.765625 19.640625 51.578125 
Q 17.671875 45.40625 16.796875 38.78125 
Q 15.921875 32.171875 15.921875 25 
Q 15.921875 -6.78125 32.90625 -23.296875 
Q 33.203125 -23.578125 33.203125 -24.125 
Q 33.203125 -24.359375 32.9375 -24.671875 
Q 32.671875 -25 32.421875 -25 
L 31.5 -25 
Q 31 -25 31 -24.8125 
" id="Cmr10-28"/>
      <path d="M 6.5 -25 
Q 5.609375 -25 5.609375 -24.125 
Q 5.609375 -23.6875 5.8125 -23.484375 
Q 22.90625 -6.78125 22.90625 25 
Q 22.90625 56.78125 6 73.296875 
Q 5.609375 73.53125 5.609375 74.125 
Q 5.609375 74.46875 5.875 74.734375 
Q 6.15625 75 6.5 75 
L 7.421875 75 
Q 7.71875 75 7.90625 74.8125 
Q 15.09375 69.140625 19.875 61.03125 
Q 24.65625 52.9375 26.875 43.75 
Q 29.109375 34.578125 29.109375 25 
Q 29.109375 17.921875 27.90625 11.0625 
Q 26.703125 4.203125 24.09375 -2.453125 
Q 21.484375 -9.125 17.484375 -14.765625 
Q 13.484375 -20.40625 7.90625 -24.8125 
Q 7.71875 -25 7.421875 -25 
z
" id="Cmr10-29"/>
      <path d="M 7.71875 0 
L 7.71875 71.578125 
L 34.71875 71.578125 
Q 41.84375 71.578125 45.609375 70.90625 
Q 50.875 70.015625 54.4375 67.546875 
Q 58.015625 65.09375 60.1875 60.640625 
Q 62.359375 56.203125 62.359375 50.875 
Q 62.359375 41.75 56.546875 35.421875 
Q 50.734375 29.109375 35.546875 29.109375 
L 17.1875 29.109375 
L 17.1875 0 
z
M 17.1875 37.546875 
L 35.6875 37.546875 
Q 44.875 37.546875 48.734375 40.96875 
Q 52.59375 44.390625 52.59375 50.59375 
Q 52.59375 55.078125 50.3125 58.265625 
Q 48.046875 61.46875 44.34375 62.5 
Q 41.9375 63.140625 35.5 63.140625 
L 17.1875 63.140625 
z
" id="ArialMT-50"/>
      <path d="M -2.484375 -19.390625 
Q -3.421875 -19.390625 -3.421875 -18.109375 
Q -3.078125 -15.921875 -2.09375 -15.921875 
Q 1.03125 -15.921875 2.265625 -15.359375 
Q 3.515625 -14.796875 4.203125 -12.5 
L 15.484375 32.515625 
Q 16.21875 34.375 16.21875 37.3125 
Q 16.21875 41.609375 13.28125 41.609375 
Q 10.15625 41.609375 8.640625 37.859375 
Q 7.125 34.125 5.71875 28.421875 
Q 5.71875 27.78125 4.890625 27.78125 
L 3.71875 27.78125 
Q 3.46875 27.78125 3.171875 28.140625 
Q 2.875 28.515625 2.875 28.8125 
Q 3.953125 33.15625 4.953125 36.171875 
Q 5.953125 39.203125 8.078125 41.6875 
Q 10.203125 44.1875 13.375 44.1875 
Q 16.796875 44.1875 19.375 42.25 
Q 21.96875 40.328125 22.703125 37.015625 
Q 25.4375 40.1875 28.75 42.1875 
Q 32.078125 44.1875 35.59375 44.1875 
Q 39.796875 44.1875 42.890625 41.9375 
Q 46 39.703125 47.5625 36.0625 
Q 49.125 32.421875 49.125 28.21875 
Q 49.125 21.78125 45.828125 14.890625 
Q 42.53125 8.015625 36.890625 3.4375 
Q 31.25 -1.125 24.8125 -1.125 
Q 21.875 -1.125 19.5 0.53125 
Q 17.140625 2.203125 15.828125 4.890625 
L 11.28125 -12.890625 
Q 11.03125 -14.359375 10.984375 -14.59375 
Q 10.984375 -15.921875 17.578125 -15.921875 
Q 18.609375 -15.921875 18.609375 -17.1875 
Q 18.265625 -18.5 18.046875 -18.9375 
Q 17.828125 -19.390625 16.890625 -19.390625 
z
M 24.90625 1.515625 
Q 28.375 1.515625 31.34375 4.375 
Q 34.328125 7.234375 36.1875 10.796875 
Q 37.546875 13.484375 38.734375 17.359375 
Q 39.9375 21.234375 40.8125 25.625 
Q 41.703125 30.03125 41.703125 32.625 
Q 41.703125 34.90625 41.09375 36.90625 
Q 40.484375 38.921875 39.09375 40.265625 
Q 37.703125 41.609375 35.40625 41.609375 
Q 31.734375 41.609375 28.484375 38.984375 
Q 25.25 36.375 22.609375 32.515625 
L 22.609375 32.171875 
L 17.09375 10.109375 
Q 17.78125 6.546875 19.734375 4.03125 
Q 21.6875 1.515625 24.90625 1.515625 
" id="Cmmi10-70"/>
      <path d="M 7.8125 2.875 
Q 9.578125 1.515625 12.796875 1.515625 
Q 15.921875 1.515625 18.3125 4.515625 
Q 20.703125 7.515625 21.578125 11.078125 
L 26.125 28.8125 
Q 27.203125 33.640625 27.203125 35.40625 
Q 27.203125 37.890625 25.8125 39.75 
Q 24.421875 41.609375 21.921875 41.609375 
Q 18.75 41.609375 15.96875 39.625 
Q 13.1875 37.640625 11.28125 34.59375 
Q 9.375 31.546875 8.59375 28.421875 
Q 8.40625 27.78125 7.8125 27.78125 
L 6.59375 27.78125 
Q 5.8125 27.78125 5.8125 28.71875 
L 5.8125 29 
Q 6.78125 32.71875 9.125 36.25 
Q 11.46875 39.796875 14.859375 41.984375 
Q 18.265625 44.1875 22.125 44.1875 
Q 25.78125 44.1875 28.734375 42.234375 
Q 31.6875 40.28125 32.90625 36.921875 
Q 34.625 39.984375 37.28125 42.078125 
Q 39.9375 44.1875 43.109375 44.1875 
Q 45.265625 44.1875 47.5 43.421875 
Q 49.75 42.671875 51.171875 41.109375 
Q 52.59375 39.546875 52.59375 37.203125 
Q 52.59375 34.671875 50.953125 32.828125 
Q 49.3125 31 46.78125 31 
Q 45.171875 31 44.09375 32.03125 
Q 43.015625 33.0625 43.015625 34.625 
Q 43.015625 36.71875 44.453125 38.296875 
Q 45.90625 39.890625 47.90625 40.1875 
Q 46.09375 41.609375 42.921875 41.609375 
Q 39.703125 41.609375 37.328125 38.625 
Q 34.96875 35.640625 33.984375 31.984375 
L 29.59375 14.3125 
Q 28.515625 10.296875 28.515625 7.71875 
Q 28.515625 5.171875 29.953125 3.34375 
Q 31.390625 1.515625 33.796875 1.515625 
Q 38.484375 1.515625 42.15625 5.640625 
Q 45.84375 9.765625 47.015625 14.703125 
Q 47.21875 15.28125 47.796875 15.28125 
L 49.03125 15.28125 
Q 49.421875 15.28125 49.65625 15.015625 
Q 49.90625 14.75 49.90625 14.40625 
Q 49.90625 14.3125 49.8125 14.109375 
Q 48.390625 8.15625 43.84375 3.515625 
Q 39.3125 -1.125 33.59375 -1.125 
Q 29.9375 -1.125 26.984375 0.84375 
Q 24.03125 2.828125 22.796875 6.203125 
Q 21.234375 3.265625 18.46875 1.0625 
Q 15.71875 -1.125 12.59375 -1.125 
Q 10.453125 -1.125 8.171875 -0.359375 
Q 5.90625 0.390625 4.484375 1.953125 
Q 3.078125 3.515625 3.078125 5.90625 
Q 3.078125 8.25 4.703125 10.171875 
Q 6.34375 12.109375 8.796875 12.109375 
Q 10.453125 12.109375 11.578125 11.109375 
Q 12.703125 10.109375 12.703125 8.5 
Q 12.703125 6.390625 11.296875 4.828125 
Q 9.90625 3.265625 7.8125 2.875 
" id="Cmmi10-78"/>
     </defs>
     <g style="fill:#262626;" transform="translate(963.99140625 54.17890625)scale(0.1 -0.1)">
      <use xlink:href="#ArialMT-4d"/>
      <use transform="translate(83.30078125 0.0)" xlink:href="#ArialMT-69"/>
      <use transform="translate(105.517578125 0.0)" xlink:href="#ArialMT-78"/>
      <use transform="translate(155.517578125 0.0)" xlink:href="#ArialMT-74"/>
      <use transform="translate(183.30078125 0.0)" xlink:href="#ArialMT-75"/>
      <use transform="translate(238.916015625 0.0)" xlink:href="#ArialMT-72"/>
      <use transform="translate(272.216796875 0.0)" xlink:href="#ArialMT-65"/>
      <use transform="translate(327.83203125 0.0)" xlink:href="#ArialMT-20"/>
      <use transform="translate(355.615234375 0.0)" xlink:href="#ArialMT-4d"/>
      <use transform="translate(438.916015625 0.0)" xlink:href="#ArialMT-6f"/>
      <use transform="translate(494.53125 0.0)" xlink:href="#ArialMT-64"/>
      <use transform="translate(550.146484375 0.0)" xlink:href="#ArialMT-65"/>
      <use transform="translate(605.76171875 0.0)" xlink:href="#ArialMT-6c"/>
      <use transform="translate(627.978515625 0.0)" xlink:href="#ArialMT-20"/>
      <use transform="translate(655.76171875 0.0)" xlink:href="#ArialMT-50"/>
      <use transform="translate(722.4609375 0.0)" xlink:href="#ArialMT-72"/>
      <use transform="translate(755.76171875 0.0)" xlink:href="#ArialMT-6f"/>
      <use transform="translate(811.376953125 0.0)" xlink:href="#ArialMT-62"/>
      <use transform="translate(866.9921875 0.0)" xlink:href="#ArialMT-61"/>
      <use transform="translate(922.607421875 0.0)" xlink:href="#ArialMT-62"/>
      <use transform="translate(978.22265625 0.0)" xlink:href="#ArialMT-69"/>
      <use transform="translate(1000.43945312 0.0)" xlink:href="#ArialMT-6c"/>
      <use transform="translate(1022.65625 0.0)" xlink:href="#ArialMT-69"/>
      <use transform="translate(1044.87304688 0.0)" xlink:href="#ArialMT-74"/>
      <use transform="translate(1072.65625 0.0)" xlink:href="#ArialMT-79"/>
      <use transform="translate(1122.65625 0.0)" xlink:href="#ArialMT-20"/>
      <use transform="translate(1150.43945312 0.0)" xlink:href="#ArialMT-44"/>
      <use transform="translate(1222.65625 0.0)" xlink:href="#ArialMT-69"/>
      <use transform="translate(1244.87304688 0.0)" xlink:href="#ArialMT-73"/>
      <use transform="translate(1294.87304688 0.0)" xlink:href="#ArialMT-74"/>
      <use transform="translate(1322.65625 0.0)" xlink:href="#ArialMT-72"/>
      <use transform="translate(1355.95703125 0.0)" xlink:href="#ArialMT-69"/>
      <use transform="translate(1378.17382812 0.0)" xlink:href="#ArialMT-62"/>
      <use transform="translate(1433.7890625 0.0)" xlink:href="#ArialMT-75"/>
      <use transform="translate(1489.40429688 0.0)" xlink:href="#ArialMT-74"/>
      <use transform="translate(1517.1875 0.0)" xlink:href="#ArialMT-69"/>
      <use transform="translate(1539.40429688 0.0)" xlink:href="#ArialMT-6f"/>
      <use transform="translate(1595.01953125 0.0)" xlink:href="#ArialMT-6e"/>
      <use transform="translate(1650.63476562 0.0)" xlink:href="#ArialMT-20"/>
      <use transform="translate(1678.41796875 0.0)" xlink:href="#Cmmi10-70"/>
      <use transform="translate(1728.7109375 0.0)" xlink:href="#Cmr10-28"/>
      <use transform="translate(1767.52929688 0.0)" xlink:href="#Cmmi10-78"/>
      <use transform="translate(1824.609375 0.0)" xlink:href="#Cmr10-29"/>
     </g>
    </g>
    <g id="line2d_39">
     <path d="M 935.991406 65.678906 
L 955.991406 65.678906 
" style="fill:none;stroke:#4c72b0;stroke-dasharray:6.000000,6.000000;stroke-dashoffset:0.0;stroke-width:1.75;"/>
    </g>
    <g id="line2d_40"/>
    <g id="text_17">
     <!-- $p_k(x \mid \Theta_k)$ -->
     <defs>
      <path d="M 11.921875 -23.1875 
L 11.921875 73.1875 
Q 11.921875 73.96875 12.5 74.484375 
Q 13.09375 75 13.921875 75 
Q 14.65625 75 15.28125 74.484375 
Q 15.921875 73.96875 15.921875 73.1875 
L 15.921875 -23.1875 
Q 15.921875 -23.96875 15.28125 -24.484375 
Q 14.65625 -25 13.921875 -25 
Q 13.09375 -25 12.5 -24.484375 
Q 11.921875 -23.96875 11.921875 -23.1875 
" id="Cmsy10-6a"/>
      <path d="M 5.328125 1.8125 
Q 5.328125 2.390625 5.421875 2.6875 
L 19.921875 60.5 
Q 20.3125 62.203125 20.40625 63.1875 
Q 20.40625 64.796875 13.921875 64.796875 
Q 12.890625 64.796875 12.890625 66.109375 
Q 12.9375 66.359375 13.109375 66.984375 
Q 13.28125 67.625 13.546875 67.96875 
Q 13.8125 68.3125 14.3125 68.3125 
L 27.78125 69.390625 
L 28.078125 69.390625 
Q 28.078125 69.28125 28.421875 69.109375 
Q 28.765625 68.953125 28.8125 68.890625 
Q 29 68.40625 29 68.109375 
L 18.5 26.3125 
Q 22.125 27.828125 27.609375 33.515625 
Q 33.109375 39.203125 36.203125 41.6875 
Q 39.3125 44.1875 44 44.1875 
Q 46.78125 44.1875 48.734375 42.28125 
Q 50.6875 40.375 50.6875 37.59375 
Q 50.6875 35.84375 49.953125 34.34375 
Q 49.21875 32.859375 47.890625 31.921875 
Q 46.578125 31 44.828125 31 
Q 43.21875 31 42.109375 32 
Q 41.015625 33.015625 41.015625 34.625 
Q 41.015625 37.015625 42.703125 38.640625 
Q 44.390625 40.28125 46.78125 40.28125 
Q 45.796875 41.609375 43.796875 41.609375 
Q 40.828125 41.609375 38.0625 39.890625 
Q 35.296875 38.1875 32.09375 34.984375 
Q 28.90625 31.78125 26.265625 29.125 
Q 23.640625 26.46875 21.390625 25.09375 
Q 27.296875 24.421875 31.640625 22 
Q 35.984375 19.578125 35.984375 14.59375 
Q 35.984375 13.578125 35.59375 12.015625 
Q 34.71875 8.25 34.71875 6 
Q 34.71875 1.515625 37.796875 1.515625 
Q 41.40625 1.515625 43.28125 5.46875 
Q 45.171875 9.421875 46.390625 14.703125 
Q 46.578125 15.28125 47.21875 15.28125 
L 48.390625 15.28125 
Q 48.78125 15.28125 49.046875 15.03125 
Q 49.3125 14.796875 49.3125 14.40625 
Q 49.3125 14.3125 49.21875 14.109375 
Q 45.453125 -1.125 37.59375 -1.125 
Q 34.765625 -1.125 32.59375 0.1875 
Q 30.421875 1.515625 29.25 3.78125 
Q 28.078125 6.0625 28.078125 8.890625 
Q 28.078125 10.5 28.515625 12.203125 
Q 28.8125 13.375 28.8125 14.40625 
Q 28.8125 18.265625 25.390625 20.265625 
Q 21.96875 22.265625 17.578125 22.703125 
L 12.5 2.296875 
Q 12.109375 0.78125 10.984375 -0.171875 
Q 9.859375 -1.125 8.40625 -1.125 
Q 7.125 -1.125 6.21875 -0.265625 
Q 5.328125 0.59375 5.328125 1.8125 
" id="Cmmi10-6b"/>
      <path d="M 38.921875 -2.203125 
Q 29.390625 -2.203125 21.796875 2.84375 
Q 14.203125 7.90625 9.90625 16.28125 
Q 5.609375 24.65625 5.609375 33.890625 
Q 5.609375 40.71875 8.078125 47.40625 
Q 10.546875 54.109375 14.96875 59.28125 
Q 19.390625 64.453125 25.578125 67.484375 
Q 31.78125 70.515625 38.921875 70.515625 
Q 46 70.515625 52.21875 67.453125 
Q 58.453125 64.40625 62.890625 59.171875 
Q 67.328125 53.953125 69.71875 47.453125 
Q 72.125 40.96875 72.125 33.890625 
Q 72.125 24.65625 67.828125 16.28125 
Q 63.53125 7.90625 55.90625 2.84375 
Q 48.296875 -2.203125 38.921875 -2.203125 
M 21.921875 10.109375 
Q 23.828125 7.328125 26.4375 5.15625 
Q 29.046875 2.984375 32.25 1.734375 
Q 35.453125 0.484375 38.921875 0.484375 
Q 43.953125 0.484375 48.359375 3.09375 
Q 52.78125 5.71875 55.8125 10.109375 
Q 62.015625 19.046875 62.015625 33.890625 
Q 62.015625 48.875 55.8125 58.109375 
Q 52.828125 62.5 48.40625 65.203125 
Q 44 67.921875 38.921875 67.921875 
Q 33.734375 67.921875 29.3125 65.203125 
Q 24.90625 62.5 21.921875 58.109375 
Q 18.5625 53.078125 17.140625 47 
Q 15.71875 40.921875 15.71875 33.890625 
Q 15.71875 29.34375 16.28125 25.21875 
Q 16.84375 21.09375 18.234375 17.25 
Q 19.625 13.421875 21.921875 10.109375 
M 21.390625 26.8125 
L 21.390625 41.609375 
L 24.3125 41.609375 
L 24.3125 38.1875 
L 53.421875 38.1875 
L 53.421875 41.609375 
L 56.296875 41.609375 
L 56.296875 26.8125 
L 53.421875 26.8125 
L 53.421875 30.171875 
L 24.3125 30.171875 
L 24.3125 26.8125 
z
" id="Cmr10-a3"/>
     </defs>
     <g style="fill:#262626;" transform="translate(963.99140625 69.17890625)scale(0.1 -0.1)">
      <use xlink:href="#Cmmi10-70"/>
      <use transform="translate(50.29296875 -17.00625)scale(0.7)" xlink:href="#Cmmi10-6b"/>
      <use transform="translate(93.0716796875 0.0)" xlink:href="#Cmr10-28"/>
      <use transform="translate(131.890039062 0.0)" xlink:href="#Cmmi10-78"/>
      <use transform="translate(206.528710937 0.0)" xlink:href="#Cmsy10-6a"/>
      <use transform="translate(251.772851562 0.0)" xlink:href="#Cmr10-a3"/>
      <use transform="translate(333.922539063 -17.00625)scale(0.7)" xlink:href="#Cmmi10-6b"/>
      <use transform="translate(376.70125 0.0)" xlink:href="#Cmr10-29"/>
     </g>
    </g>
   </g>
  </g>
 </g>
 <defs>
  <clipPath id="p234fab5ec1">
   <rect height="558.0" width="1116.0" x="43.39140625" y="37.67890625"/>
  </clipPath>
 </defs>
</svg>
