<?xml version="1.0" encoding="utf-8" standalone="no"?>
<!DOCTYPE svg PUBLIC "-//W3C//DTD SVG 1.1//EN"
  "http://www.w3.org/Graphics/SVG/1.1/DTD/svg11.dtd">
<!-- Created with matplotlib (http://matplotlib.org/) -->
<svg height="178pt" version="1.1" viewBox="0 0 1458 178" width="1458pt" xmlns="http://www.w3.org/2000/svg" xmlns:xlink="http://www.w3.org/1999/xlink">
 <defs>
  <style type="text/css">
*{stroke-linecap:butt;stroke-linejoin:round;stroke-miterlimit:100000;}
  </style>
 </defs>
 <g id="figure_1">
  <g id="patch_1">
   <path d="M 0 178.828359 
L 1458.016406 178.828359 
L 1458.016406 0 
L 0 0 
L 0 178.828359 
z
" style="fill:none;"/>
  </g>
  <g id="axes_1">
   <g id="patch_2">
    <path d="M 64.375 133.958984 
L 489.675 133.958984 
L 489.675 14.058984 
L 64.375 14.058984 
L 64.375 133.958984 
z
" style="fill:none;"/>
   </g>
   <g id="matplotlib.axis_1">
    <g id="xtick_1">
     <g id="line2d_1">
      <defs>
       <path d="M 0 0 
L 0 0 
" id="m9494966d35" style="stroke:#262626;"/>
      </defs>
      <g>
       <use style="fill:#262626;stroke:#262626;" x="64.375" xlink:href="#m9494966d35" y="133.958984375"/>
      </g>
     </g>
     <g id="line2d_2">
      <g>
       <use style="fill:#262626;stroke:#262626;" x="64.375" xlink:href="#m9494966d35" y="14.058984375"/>
      </g>
     </g>
     <g id="text_1">
      <!-- 0 -->
      <defs>
       <path d="M 4.15625 35.296875 
Q 4.15625 48 6.765625 55.734375 
Q 9.375 63.484375 14.515625 67.671875 
Q 19.671875 71.875 27.484375 71.875 
Q 33.25 71.875 37.59375 69.546875 
Q 41.9375 67.234375 44.765625 62.859375 
Q 47.609375 58.5 49.21875 52.21875 
Q 50.828125 45.953125 50.828125 35.296875 
Q 50.828125 22.703125 48.234375 14.96875 
Q 45.65625 7.234375 40.5 3 
Q 35.359375 -1.21875 27.484375 -1.21875 
Q 17.140625 -1.21875 11.234375 6.203125 
Q 4.15625 15.140625 4.15625 35.296875 
M 13.1875 35.296875 
Q 13.1875 17.671875 17.3125 11.828125 
Q 21.4375 6 27.484375 6 
Q 33.546875 6 37.671875 11.859375 
Q 41.796875 17.71875 41.796875 35.296875 
Q 41.796875 52.984375 37.671875 58.78125 
Q 33.546875 64.59375 27.390625 64.59375 
Q 21.34375 64.59375 17.71875 59.46875 
Q 13.1875 52.9375 13.1875 35.296875 
" id="ArialMT-30"/>
      </defs>
      <g style="fill:#262626;" transform="translate(60.204296875 151.695703125)scale(0.15 -0.15)">
       <use xlink:href="#ArialMT-30"/>
      </g>
     </g>
    </g>
    <g id="xtick_2">
     <g id="line2d_3">
      <g>
       <use style="fill:#262626;stroke:#262626;" x="135.258333333" xlink:href="#m9494966d35" y="133.958984375"/>
      </g>
     </g>
     <g id="line2d_4">
      <g>
       <use style="fill:#262626;stroke:#262626;" x="135.258333333" xlink:href="#m9494966d35" y="14.058984375"/>
      </g>
     </g>
     <g id="text_2">
      <!-- 5 -->
      <defs>
       <path d="M 4.15625 18.75 
L 13.375 19.53125 
Q 14.40625 12.796875 18.140625 9.390625 
Q 21.875 6 27.15625 6 
Q 33.5 6 37.890625 10.78125 
Q 42.28125 15.578125 42.28125 23.484375 
Q 42.28125 31 38.0625 35.34375 
Q 33.84375 39.703125 27 39.703125 
Q 22.75 39.703125 19.328125 37.765625 
Q 15.921875 35.84375 13.96875 32.765625 
L 5.71875 33.84375 
L 12.640625 70.609375 
L 48.25 70.609375 
L 48.25 62.203125 
L 19.671875 62.203125 
L 15.828125 42.96875 
Q 22.265625 47.46875 29.34375 47.46875 
Q 38.71875 47.46875 45.15625 40.96875 
Q 51.609375 34.46875 51.609375 24.265625 
Q 51.609375 14.546875 45.953125 7.46875 
Q 39.0625 -1.21875 27.15625 -1.21875 
Q 17.390625 -1.21875 11.203125 4.25 
Q 5.03125 9.71875 4.15625 18.75 
" id="ArialMT-35"/>
      </defs>
      <g style="fill:#262626;" transform="translate(131.087630208 151.695703125)scale(0.15 -0.15)">
       <use xlink:href="#ArialMT-35"/>
      </g>
     </g>
    </g>
    <g id="xtick_3">
     <g id="line2d_5">
      <g>
       <use style="fill:#262626;stroke:#262626;" x="206.141666667" xlink:href="#m9494966d35" y="133.958984375"/>
      </g>
     </g>
     <g id="line2d_6">
      <g>
       <use style="fill:#262626;stroke:#262626;" x="206.141666667" xlink:href="#m9494966d35" y="14.058984375"/>
      </g>
     </g>
     <g id="text_3">
      <!-- 10 -->
      <defs>
       <path d="M 37.25 0 
L 28.46875 0 
L 28.46875 56 
Q 25.296875 52.984375 20.140625 49.953125 
Q 14.984375 46.921875 10.890625 45.40625 
L 10.890625 53.90625 
Q 18.265625 57.375 23.78125 62.296875 
Q 29.296875 67.234375 31.59375 71.875 
L 37.25 71.875 
z
" id="ArialMT-31"/>
      </defs>
      <g style="fill:#262626;" transform="translate(197.800260417 151.695703125)scale(0.15 -0.15)">
       <use xlink:href="#ArialMT-31"/>
       <use x="55.615234375" xlink:href="#ArialMT-30"/>
      </g>
     </g>
    </g>
    <g id="xtick_4">
     <g id="line2d_7">
      <g>
       <use style="fill:#262626;stroke:#262626;" x="277.025" xlink:href="#m9494966d35" y="133.958984375"/>
      </g>
     </g>
     <g id="line2d_8">
      <g>
       <use style="fill:#262626;stroke:#262626;" x="277.025" xlink:href="#m9494966d35" y="14.058984375"/>
      </g>
     </g>
     <g id="text_4">
      <!-- 15 -->
      <g style="fill:#262626;" transform="translate(268.68359375 151.695703125)scale(0.15 -0.15)">
       <use xlink:href="#ArialMT-31"/>
       <use x="55.615234375" xlink:href="#ArialMT-35"/>
      </g>
     </g>
    </g>
    <g id="xtick_5">
     <g id="line2d_9">
      <g>
       <use style="fill:#262626;stroke:#262626;" x="347.908333333" xlink:href="#m9494966d35" y="133.958984375"/>
      </g>
     </g>
     <g id="line2d_10">
      <g>
       <use style="fill:#262626;stroke:#262626;" x="347.908333333" xlink:href="#m9494966d35" y="14.058984375"/>
      </g>
     </g>
     <g id="text_5">
      <!-- 20 -->
      <defs>
       <path d="M 50.34375 8.453125 
L 50.34375 0 
L 3.03125 0 
Q 2.9375 3.171875 4.046875 6.109375 
Q 5.859375 10.9375 9.828125 15.625 
Q 13.8125 20.3125 21.34375 26.46875 
Q 33.015625 36.03125 37.109375 41.625 
Q 41.21875 47.21875 41.21875 52.203125 
Q 41.21875 57.421875 37.46875 61 
Q 33.734375 64.59375 27.734375 64.59375 
Q 21.390625 64.59375 17.578125 60.78125 
Q 13.765625 56.984375 13.71875 50.25 
L 4.6875 51.171875 
Q 5.609375 61.28125 11.65625 66.578125 
Q 17.71875 71.875 27.9375 71.875 
Q 38.234375 71.875 44.234375 66.15625 
Q 50.25 60.453125 50.25 52 
Q 50.25 47.703125 48.484375 43.546875 
Q 46.734375 39.40625 42.65625 34.8125 
Q 38.578125 30.21875 29.109375 22.21875 
Q 21.1875 15.578125 18.9375 13.203125 
Q 16.703125 10.84375 15.234375 8.453125 
z
" id="ArialMT-32"/>
      </defs>
      <g style="fill:#262626;" transform="translate(339.566927083 151.695703125)scale(0.15 -0.15)">
       <use xlink:href="#ArialMT-32"/>
       <use x="55.615234375" xlink:href="#ArialMT-30"/>
      </g>
     </g>
    </g>
    <g id="xtick_6">
     <g id="line2d_11">
      <g>
       <use style="fill:#262626;stroke:#262626;" x="418.791666667" xlink:href="#m9494966d35" y="133.958984375"/>
      </g>
     </g>
     <g id="line2d_12">
      <g>
       <use style="fill:#262626;stroke:#262626;" x="418.791666667" xlink:href="#m9494966d35" y="14.058984375"/>
      </g>
     </g>
     <g id="text_6">
      <!-- 25 -->
      <g style="fill:#262626;" transform="translate(410.450260417 151.695703125)scale(0.15 -0.15)">
       <use xlink:href="#ArialMT-32"/>
       <use x="55.615234375" xlink:href="#ArialMT-35"/>
      </g>
     </g>
    </g>
    <g id="xtick_7">
     <g id="line2d_13">
      <g>
       <use style="fill:#262626;stroke:#262626;" x="489.675" xlink:href="#m9494966d35" y="133.958984375"/>
      </g>
     </g>
     <g id="line2d_14">
      <g>
       <use style="fill:#262626;stroke:#262626;" x="489.675" xlink:href="#m9494966d35" y="14.058984375"/>
      </g>
     </g>
     <g id="text_7">
      <!-- 30 -->
      <defs>
       <path d="M 4.203125 18.890625 
L 12.984375 20.0625 
Q 14.5 12.59375 18.140625 9.296875 
Q 21.78125 6 27 6 
Q 33.203125 6 37.46875 10.296875 
Q 41.75 14.59375 41.75 20.953125 
Q 41.75 27 37.796875 30.921875 
Q 33.84375 34.859375 27.734375 34.859375 
Q 25.25 34.859375 21.53125 33.890625 
L 22.515625 41.609375 
Q 23.390625 41.5 23.921875 41.5 
Q 29.546875 41.5 34.03125 44.421875 
Q 38.53125 47.359375 38.53125 53.46875 
Q 38.53125 58.296875 35.25 61.46875 
Q 31.984375 64.65625 26.8125 64.65625 
Q 21.6875 64.65625 18.265625 61.421875 
Q 14.84375 58.203125 13.875 51.765625 
L 5.078125 53.328125 
Q 6.6875 62.15625 12.390625 67.015625 
Q 18.109375 71.875 26.609375 71.875 
Q 32.46875 71.875 37.390625 69.359375 
Q 42.328125 66.84375 44.9375 62.5 
Q 47.5625 58.15625 47.5625 53.265625 
Q 47.5625 48.640625 45.0625 44.828125 
Q 42.578125 41.015625 37.703125 38.765625 
Q 44.046875 37.3125 47.5625 32.6875 
Q 51.078125 28.078125 51.078125 21.140625 
Q 51.078125 11.765625 44.234375 5.25 
Q 37.40625 -1.265625 26.953125 -1.265625 
Q 17.53125 -1.265625 11.296875 4.34375 
Q 5.078125 9.96875 4.203125 18.890625 
" id="ArialMT-33"/>
      </defs>
      <g style="fill:#262626;" transform="translate(481.33359375 151.695703125)scale(0.15 -0.15)">
       <use xlink:href="#ArialMT-33"/>
       <use x="55.615234375" xlink:href="#ArialMT-30"/>
      </g>
     </g>
    </g>
   </g>
   <g id="matplotlib.axis_2">
    <g id="ytick_1">
     <g id="line2d_15">
      <g>
       <use style="fill:#262626;stroke:#262626;" x="64.375" xlink:href="#m9494966d35" y="133.958984375"/>
      </g>
     </g>
     <g id="line2d_16">
      <g>
       <use style="fill:#262626;stroke:#262626;" x="489.675" xlink:href="#m9494966d35" y="133.958984375"/>
      </g>
     </g>
     <g id="text_8">
      <!-- 0 -->
      <g style="fill:#262626;" transform="translate(49.03359375 137.83671875)scale(0.15 -0.15)">
       <use xlink:href="#ArialMT-30"/>
      </g>
     </g>
    </g>
    <g id="ytick_2">
     <g id="line2d_17">
      <g>
       <use style="fill:#262626;stroke:#262626;" x="64.375" xlink:href="#m9494966d35" y="116.830412946"/>
      </g>
     </g>
     <g id="line2d_18">
      <g>
       <use style="fill:#262626;stroke:#262626;" x="489.675" xlink:href="#m9494966d35" y="116.830412946"/>
      </g>
     </g>
     <g id="text_9">
      <!-- 50 -->
      <g style="fill:#262626;" transform="translate(40.6921875 120.708147321)scale(0.15 -0.15)">
       <use xlink:href="#ArialMT-35"/>
       <use x="55.615234375" xlink:href="#ArialMT-30"/>
      </g>
     </g>
    </g>
    <g id="ytick_3">
     <g id="line2d_19">
      <g>
       <use style="fill:#262626;stroke:#262626;" x="64.375" xlink:href="#m9494966d35" y="99.7018415179"/>
      </g>
     </g>
     <g id="line2d_20">
      <g>
       <use style="fill:#262626;stroke:#262626;" x="489.675" xlink:href="#m9494966d35" y="99.7018415179"/>
      </g>
     </g>
     <g id="text_10">
      <!-- 100 -->
      <g style="fill:#262626;" transform="translate(32.35078125 103.579575893)scale(0.15 -0.15)">
       <use xlink:href="#ArialMT-31"/>
       <use x="55.615234375" xlink:href="#ArialMT-30"/>
       <use x="111.23046875" xlink:href="#ArialMT-30"/>
      </g>
     </g>
    </g>
    <g id="ytick_4">
     <g id="line2d_21">
      <g>
       <use style="fill:#262626;stroke:#262626;" x="64.375" xlink:href="#m9494966d35" y="82.5732700893"/>
      </g>
     </g>
     <g id="line2d_22">
      <g>
       <use style="fill:#262626;stroke:#262626;" x="489.675" xlink:href="#m9494966d35" y="82.5732700893"/>
      </g>
     </g>
     <g id="text_11">
      <!-- 150 -->
      <g style="fill:#262626;" transform="translate(32.35078125 86.4510044643)scale(0.15 -0.15)">
       <use xlink:href="#ArialMT-31"/>
       <use x="55.615234375" xlink:href="#ArialMT-35"/>
       <use x="111.23046875" xlink:href="#ArialMT-30"/>
      </g>
     </g>
    </g>
    <g id="ytick_5">
     <g id="line2d_23">
      <g>
       <use style="fill:#262626;stroke:#262626;" x="64.375" xlink:href="#m9494966d35" y="65.4446986607"/>
      </g>
     </g>
     <g id="line2d_24">
      <g>
       <use style="fill:#262626;stroke:#262626;" x="489.675" xlink:href="#m9494966d35" y="65.4446986607"/>
      </g>
     </g>
     <g id="text_12">
      <!-- 200 -->
      <g style="fill:#262626;" transform="translate(32.35078125 69.3224330357)scale(0.15 -0.15)">
       <use xlink:href="#ArialMT-32"/>
       <use x="55.615234375" xlink:href="#ArialMT-30"/>
       <use x="111.23046875" xlink:href="#ArialMT-30"/>
      </g>
     </g>
    </g>
    <g id="ytick_6">
     <g id="line2d_25">
      <g>
       <use style="fill:#262626;stroke:#262626;" x="64.375" xlink:href="#m9494966d35" y="48.3161272321"/>
      </g>
     </g>
     <g id="line2d_26">
      <g>
       <use style="fill:#262626;stroke:#262626;" x="489.675" xlink:href="#m9494966d35" y="48.3161272321"/>
      </g>
     </g>
     <g id="text_13">
      <!-- 250 -->
      <g style="fill:#262626;" transform="translate(32.35078125 52.1938616071)scale(0.15 -0.15)">
       <use xlink:href="#ArialMT-32"/>
       <use x="55.615234375" xlink:href="#ArialMT-35"/>
       <use x="111.23046875" xlink:href="#ArialMT-30"/>
      </g>
     </g>
    </g>
    <g id="ytick_7">
     <g id="line2d_27">
      <g>
       <use style="fill:#262626;stroke:#262626;" x="64.375" xlink:href="#m9494966d35" y="31.1875558036"/>
      </g>
     </g>
     <g id="line2d_28">
      <g>
       <use style="fill:#262626;stroke:#262626;" x="489.675" xlink:href="#m9494966d35" y="31.1875558036"/>
      </g>
     </g>
     <g id="text_14">
      <!-- 300 -->
      <g style="fill:#262626;" transform="translate(32.35078125 35.0652901786)scale(0.15 -0.15)">
       <use xlink:href="#ArialMT-33"/>
       <use x="55.615234375" xlink:href="#ArialMT-30"/>
       <use x="111.23046875" xlink:href="#ArialMT-30"/>
      </g>
     </g>
    </g>
    <g id="ytick_8">
     <g id="line2d_29">
      <g>
       <use style="fill:#262626;stroke:#262626;" x="64.375" xlink:href="#m9494966d35" y="14.058984375"/>
      </g>
     </g>
     <g id="line2d_30">
      <g>
       <use style="fill:#262626;stroke:#262626;" x="489.675" xlink:href="#m9494966d35" y="14.058984375"/>
      </g>
     </g>
     <g id="text_15">
      <!-- 350 -->
      <g style="fill:#262626;" transform="translate(32.35078125 17.93671875)scale(0.15 -0.15)">
       <use xlink:href="#ArialMT-33"/>
       <use x="55.615234375" xlink:href="#ArialMT-35"/>
       <use x="111.23046875" xlink:href="#ArialMT-30"/>
      </g>
     </g>
    </g>
   </g>
   <g id="patch_3">
    <path clip-path="url(#p5b4226d205)" d="M 92.728333 133.958984 
L 104.069667 133.958984 
L 104.069667 133.616413 
L 92.728333 133.616413 
z
" style="fill:#ff0000;opacity:0.4;stroke:#1a1a1a;stroke-linejoin:miter;stroke-width:0.3;"/>
   </g>
   <g id="patch_4">
    <path clip-path="url(#p5b4226d205)" d="M 106.905 133.958984 
L 118.246333 133.958984 
L 118.246333 133.616413 
L 106.905 133.616413 
z
" style="fill:#ff0000;opacity:0.4;stroke:#1a1a1a;stroke-linejoin:miter;stroke-width:0.3;"/>
   </g>
   <g id="patch_5">
    <path clip-path="url(#p5b4226d205)" d="M 121.081667 133.958984 
L 132.423 133.958984 
L 132.423 133.298311 
L 121.081667 133.298311 
z
" style="fill:#ff0000;opacity:0.4;stroke:#1a1a1a;stroke-linejoin:miter;stroke-width:0.3;"/>
   </g>
   <g id="patch_6">
    <path clip-path="url(#p5b4226d205)" d="M 135.258333 133.958984 
L 146.599667 133.958984 
L 146.599667 133.174676 
L 135.258333 133.174676 
z
" style="fill:#ff0000;opacity:0.4;stroke:#1a1a1a;stroke-linejoin:miter;stroke-width:0.3;"/>
   </g>
   <g id="patch_7">
    <path clip-path="url(#p5b4226d205)" d="M 149.435 133.958984 
L 160.776333 133.958984 
L 160.776333 132.84318 
L 149.435 132.84318 
z
" style="fill:#ff0000;opacity:0.4;stroke:#1a1a1a;stroke-linejoin:miter;stroke-width:0.3;"/>
   </g>
   <g id="patch_8">
    <path clip-path="url(#p5b4226d205)" d="M 163.611667 133.958984 
L 174.953 133.958984 
L 174.953 131.739407 
L 163.611667 131.739407 
z
" style="fill:#ff0000;opacity:0.4;stroke:#1a1a1a;stroke-linejoin:miter;stroke-width:0.3;"/>
   </g>
   <g id="patch_9">
    <path clip-path="url(#p5b4226d205)" d="M 177.788333 133.958984 
L 189.129667 133.958984 
L 189.129667 129.351399 
L 177.788333 129.351399 
z
" style="fill:#ff0000;opacity:0.4;stroke:#1a1a1a;stroke-linejoin:miter;stroke-width:0.3;"/>
   </g>
   <g id="patch_10">
    <path clip-path="url(#p5b4226d205)" d="M 191.965 133.958984 
L 203.306333 133.958984 
L 203.306333 124.565676 
L 191.965 124.565676 
z
" style="fill:#ff0000;opacity:0.4;stroke:#1a1a1a;stroke-linejoin:miter;stroke-width:0.3;"/>
   </g>
   <g id="patch_11">
    <path clip-path="url(#p5b4226d205)" d="M 206.141667 133.958984 
L 217.483 133.958984 
L 217.483 117.330567 
L 206.141667 117.330567 
z
" style="fill:#ff0000;opacity:0.4;stroke:#1a1a1a;stroke-linejoin:miter;stroke-width:0.3;"/>
   </g>
   <g id="patch_12">
    <path clip-path="url(#p5b4226d205)" d="M 220.318333 133.958984 
L 231.659667 133.958984 
L 231.659667 106.909544 
L 220.318333 106.909544 
z
" style="fill:#ff0000;opacity:0.4;stroke:#1a1a1a;stroke-linejoin:miter;stroke-width:0.3;"/>
   </g>
   <g id="patch_13">
    <path clip-path="url(#p5b4226d205)" d="M 234.495 133.958984 
L 245.836333 133.958984 
L 245.836333 94.217273 
L 234.495 94.217273 
z
" style="fill:#ff0000;opacity:0.4;stroke:#1a1a1a;stroke-linejoin:miter;stroke-width:0.3;"/>
   </g>
   <g id="patch_14">
    <path clip-path="url(#p5b4226d205)" d="M 248.671667 133.958984 
L 260.013 133.958984 
L 260.013 80.281467 
L 248.671667 80.281467 
z
" style="fill:#ff0000;opacity:0.4;stroke:#1a1a1a;stroke-linejoin:miter;stroke-width:0.3;"/>
   </g>
   <g id="patch_15">
    <path clip-path="url(#p5b4226d205)" d="M 262.848333 133.958984 
L 274.189667 133.958984 
L 274.189667 66.445007 
L 262.848333 66.445007 
z
" style="fill:#ff0000;opacity:0.4;stroke:#1a1a1a;stroke-linejoin:miter;stroke-width:0.3;"/>
   </g>
   <g id="patch_16">
    <path clip-path="url(#p5b4226d205)" d="M 277.025 133.958984 
L 288.366333 133.958984 
L 288.366333 55.773907 
L 277.025 55.773907 
z
" style="fill:#ff0000;opacity:0.4;stroke:#1a1a1a;stroke-linejoin:miter;stroke-width:0.3;"/>
   </g>
   <g id="patch_17">
    <path clip-path="url(#p5b4226d205)" d="M 291.201667 133.958984 
L 302.543 133.958984 
L 302.543 48.621016 
L 291.201667 48.621016 
z
" style="fill:#ff0000;opacity:0.4;stroke:#1a1a1a;stroke-linejoin:miter;stroke-width:0.3;"/>
   </g>
   <g id="patch_18">
    <path clip-path="url(#p5b4226d205)" d="M 305.378333 133.958984 
L 316.719667 133.958984 
L 316.719667 46.743724 
L 305.378333 46.743724 
z
" style="fill:#ff0000;opacity:0.4;stroke:#1a1a1a;stroke-linejoin:miter;stroke-width:0.3;"/>
   </g>
   <g id="patch_19">
    <path clip-path="url(#p5b4226d205)" d="M 319.555 133.958984 
L 330.896333 133.958984 
L 330.896333 51.27937 
L 319.555 51.27937 
z
" style="fill:#ff0000;opacity:0.4;stroke:#1a1a1a;stroke-linejoin:miter;stroke-width:0.3;"/>
   </g>
   <g id="patch_20">
    <path clip-path="url(#p5b4226d205)" d="M 333.731667 133.958984 
L 345.073 133.958984 
L 345.073 56.976333 
L 333.731667 56.976333 
z
" style="fill:#ff0000;opacity:0.4;stroke:#1a1a1a;stroke-linejoin:miter;stroke-width:0.3;"/>
   </g>
   <g id="patch_21">
    <path clip-path="url(#p5b4226d205)" d="M 347.908333 133.958984 
L 359.249667 133.958984 
L 359.249667 58.336342 
L 347.908333 58.336342 
z
" style="fill:#ff0000;opacity:0.4;stroke:#1a1a1a;stroke-linejoin:miter;stroke-width:0.3;"/>
   </g>
   <g id="patch_22">
    <path clip-path="url(#p5b4226d205)" d="M 362.085 133.958984 
L 373.426333 133.958984 
L 373.426333 60.39177 
L 362.085 60.39177 
z
" style="fill:#ff0000;opacity:0.4;stroke:#1a1a1a;stroke-linejoin:miter;stroke-width:0.3;"/>
   </g>
   <g id="patch_23">
    <path clip-path="url(#p5b4226d205)" d="M 376.261667 133.958984 
L 387.603 133.958984 
L 387.603 60.093733 
L 376.261667 60.093733 
z
" style="fill:#ff0000;opacity:0.4;stroke:#1a1a1a;stroke-linejoin:miter;stroke-width:0.3;"/>
   </g>
   <g id="patch_24">
    <path clip-path="url(#p5b4226d205)" d="M 390.438333 133.958984 
L 401.779667 133.958984 
L 401.779667 59.329799 
L 390.438333 59.329799 
z
" style="fill:#ff0000;opacity:0.4;stroke:#1a1a1a;stroke-linejoin:miter;stroke-width:0.3;"/>
   </g>
   <g id="patch_25">
    <path clip-path="url(#p5b4226d205)" d="M 404.615 133.958984 
L 415.956333 133.958984 
L 415.956333 57.743693 
L 404.615 57.743693 
z
" style="fill:#ff0000;opacity:0.4;stroke:#1a1a1a;stroke-linejoin:miter;stroke-width:0.3;"/>
   </g>
   <g id="patch_26">
    <path clip-path="url(#p5b4226d205)" d="M 418.791667 133.958984 
L 430.133 133.958984 
L 430.133 53.944576 
L 418.791667 53.944576 
z
" style="fill:#ff0000;opacity:0.4;stroke:#1a1a1a;stroke-linejoin:miter;stroke-width:0.3;"/>
   </g>
   <g id="patch_27">
    <path clip-path="url(#p5b4226d205)" d="M 432.968333 133.958984 
L 444.309667 133.958984 
L 444.309667 49.545959 
L 432.968333 49.545959 
z
" style="fill:#ff0000;opacity:0.4;stroke:#1a1a1a;stroke-linejoin:miter;stroke-width:0.3;"/>
   </g>
   <g id="patch_28">
    <path clip-path="url(#p5b4226d205)" d="M 447.145 133.958984 
L 458.486333 133.958984 
L 458.486333 42.444453 
L 447.145 42.444453 
z
" style="fill:#ff0000;opacity:0.4;stroke:#1a1a1a;stroke-linejoin:miter;stroke-width:0.3;"/>
   </g>
   <g id="patch_29">
    <path clip-path="url(#p5b4226d205)" d="M 106.905 133.958984 
L 118.246333 133.958984 
L 118.246333 133.616413 
L 106.905 133.616413 
z
" style="fill:#0000ff;opacity:0.4;stroke:#1a1a1a;stroke-linejoin:miter;stroke-width:0.3;"/>
   </g>
   <g id="patch_30">
    <path clip-path="url(#p5b4226d205)" d="M 121.081667 133.958984 
L 132.423 133.958984 
L 132.423 133.469597 
L 121.081667 133.469597 
z
" style="fill:#0000ff;opacity:0.4;stroke:#1a1a1a;stroke-linejoin:miter;stroke-width:0.3;"/>
   </g>
   <g id="patch_31">
    <path clip-path="url(#p5b4226d205)" d="M 135.258333 133.958984 
L 146.599667 133.958984 
L 146.599667 133.006208 
L 135.258333 133.006208 
z
" style="fill:#0000ff;opacity:0.4;stroke:#1a1a1a;stroke-linejoin:miter;stroke-width:0.3;"/>
   </g>
   <g id="patch_32">
    <path clip-path="url(#p5b4226d205)" d="M 149.435 133.958984 
L 160.776333 133.958984 
L 160.776333 132.898118 
L 149.435 132.898118 
z
" style="fill:#0000ff;opacity:0.4;stroke:#1a1a1a;stroke-linejoin:miter;stroke-width:0.3;"/>
   </g>
   <g id="patch_33">
    <path clip-path="url(#p5b4226d205)" d="M 163.611667 133.958984 
L 174.953 133.958984 
L 174.953 132.104817 
L 163.611667 132.104817 
z
" style="fill:#0000ff;opacity:0.4;stroke:#1a1a1a;stroke-linejoin:miter;stroke-width:0.3;"/>
   </g>
   <g id="patch_34">
    <path clip-path="url(#p5b4226d205)" d="M 177.788333 133.958984 
L 189.129667 133.958984 
L 189.129667 130.610967 
L 177.788333 130.610967 
z
" style="fill:#0000ff;opacity:0.4;stroke:#1a1a1a;stroke-linejoin:miter;stroke-width:0.3;"/>
   </g>
   <g id="patch_35">
    <path clip-path="url(#p5b4226d205)" d="M 191.965 133.958984 
L 203.306333 133.958984 
L 203.306333 127.00821 
L 191.965 127.00821 
z
" style="fill:#0000ff;opacity:0.4;stroke:#1a1a1a;stroke-linejoin:miter;stroke-width:0.3;"/>
   </g>
   <g id="patch_36">
    <path clip-path="url(#p5b4226d205)" d="M 206.141667 133.958984 
L 217.483 133.958984 
L 217.483 121.441424 
L 206.141667 121.441424 
z
" style="fill:#0000ff;opacity:0.4;stroke:#1a1a1a;stroke-linejoin:miter;stroke-width:0.3;"/>
   </g>
   <g id="patch_37">
    <path clip-path="url(#p5b4226d205)" d="M 220.318333 133.958984 
L 231.659667 133.958984 
L 231.659667 113.418402 
L 220.318333 113.418402 
z
" style="fill:#0000ff;opacity:0.4;stroke:#1a1a1a;stroke-linejoin:miter;stroke-width:0.3;"/>
   </g>
   <g id="patch_38">
    <path clip-path="url(#p5b4226d205)" d="M 234.495 133.958984 
L 245.836333 133.958984 
L 245.836333 102.993953 
L 234.495 102.993953 
z
" style="fill:#0000ff;opacity:0.4;stroke:#1a1a1a;stroke-linejoin:miter;stroke-width:0.3;"/>
   </g>
   <g id="patch_39">
    <path clip-path="url(#p5b4226d205)" d="M 248.671667 133.958984 
L 260.013 133.958984 
L 260.013 90.565462 
L 248.671667 90.565462 
z
" style="fill:#0000ff;opacity:0.4;stroke:#1a1a1a;stroke-linejoin:miter;stroke-width:0.3;"/>
   </g>
   <g id="patch_40">
    <path clip-path="url(#p5b4226d205)" d="M 262.848333 133.958984 
L 274.189667 133.958984 
L 274.189667 77.814953 
L 262.848333 77.814953 
z
" style="fill:#0000ff;opacity:0.4;stroke:#1a1a1a;stroke-linejoin:miter;stroke-width:0.3;"/>
   </g>
   <g id="patch_41">
    <path clip-path="url(#p5b4226d205)" d="M 277.025 133.958984 
L 288.366333 133.958984 
L 288.366333 67.013676 
L 277.025 67.013676 
z
" style="fill:#0000ff;opacity:0.4;stroke:#1a1a1a;stroke-linejoin:miter;stroke-width:0.3;"/>
   </g>
   <g id="patch_42">
    <path clip-path="url(#p5b4226d205)" d="M 291.201667 133.958984 
L 302.543 133.958984 
L 302.543 59.566173 
L 291.201667 59.566173 
z
" style="fill:#0000ff;opacity:0.4;stroke:#1a1a1a;stroke-linejoin:miter;stroke-width:0.3;"/>
   </g>
   <g id="patch_43">
    <path clip-path="url(#p5b4226d205)" d="M 305.378333 133.958984 
L 316.719667 133.958984 
L 316.719667 57.548427 
L 305.378333 57.548427 
z
" style="fill:#0000ff;opacity:0.4;stroke:#1a1a1a;stroke-linejoin:miter;stroke-width:0.3;"/>
   </g>
   <g id="patch_44">
    <path clip-path="url(#p5b4226d205)" d="M 319.555 133.958984 
L 330.896333 133.958984 
L 330.896333 58.123947 
L 319.555 58.123947 
z
" style="fill:#0000ff;opacity:0.4;stroke:#1a1a1a;stroke-linejoin:miter;stroke-width:0.3;"/>
   </g>
   <g id="patch_45">
    <path clip-path="url(#p5b4226d205)" d="M 333.731667 133.958984 
L 345.073 133.958984 
L 345.073 58.658359 
L 333.731667 58.658359 
z
" style="fill:#0000ff;opacity:0.4;stroke:#1a1a1a;stroke-linejoin:miter;stroke-width:0.3;"/>
   </g>
   <g id="patch_46">
    <path clip-path="url(#p5b4226d205)" d="M 347.908333 133.958984 
L 359.249667 133.958984 
L 359.249667 59.374333 
L 347.908333 59.374333 
z
" style="fill:#0000ff;opacity:0.4;stroke:#1a1a1a;stroke-linejoin:miter;stroke-width:0.3;"/>
   </g>
   <g id="patch_47">
    <path clip-path="url(#p5b4226d205)" d="M 362.085 133.958984 
L 373.426333 133.958984 
L 373.426333 59.247582 
L 362.085 59.247582 
z
" style="fill:#0000ff;opacity:0.4;stroke:#1a1a1a;stroke-linejoin:miter;stroke-width:0.3;"/>
   </g>
   <g id="patch_48">
    <path clip-path="url(#p5b4226d205)" d="M 376.261667 133.958984 
L 387.603 133.958984 
L 387.603 57.545002 
L 376.261667 57.545002 
z
" style="fill:#0000ff;opacity:0.4;stroke:#1a1a1a;stroke-linejoin:miter;stroke-width:0.3;"/>
   </g>
   <g id="patch_49">
    <path clip-path="url(#p5b4226d205)" d="M 390.438333 133.958984 
L 401.779667 133.958984 
L 401.779667 54.955162 
L 390.438333 54.955162 
z
" style="fill:#0000ff;opacity:0.4;stroke:#1a1a1a;stroke-linejoin:miter;stroke-width:0.3;"/>
   </g>
   <g id="patch_50">
    <path clip-path="url(#p5b4226d205)" d="M 404.615 133.958984 
L 415.956333 133.958984 
L 415.956333 49.676136 
L 404.615 49.676136 
z
" style="fill:#0000ff;opacity:0.4;stroke:#1a1a1a;stroke-linejoin:miter;stroke-width:0.3;"/>
   </g>
   <g id="patch_51">
    <path clip-path="url(#p5b4226d205)" d="M 418.791667 133.958984 
L 430.133 133.958984 
L 430.133 42.71851 
L 418.791667 42.71851 
z
" style="fill:#0000ff;opacity:0.4;stroke:#1a1a1a;stroke-linejoin:miter;stroke-width:0.3;"/>
   </g>
   <g id="patch_52">
    <path clip-path="url(#p5b4226d205)" d="M 432.968333 133.958984 
L 444.309667 133.958984 
L 444.309667 34.239867 
L 432.968333 34.239867 
z
" style="fill:#0000ff;opacity:0.4;stroke:#1a1a1a;stroke-linejoin:miter;stroke-width:0.3;"/>
   </g>
   <g id="patch_53">
    <path clip-path="url(#p5b4226d205)" d="M 447.145 133.958984 
L 458.486333 133.958984 
L 458.486333 22.619844 
L 447.145 22.619844 
z
" style="fill:#0000ff;opacity:0.4;stroke:#1a1a1a;stroke-linejoin:miter;stroke-width:0.3;"/>
   </g>
   <g id="patch_54">
    <path d="M 64.375 14.058984 
L 489.675 14.058984 
" style="fill:none;stroke:#262626;stroke-linecap:square;stroke-linejoin:miter;stroke-width:1.25;"/>
   </g>
   <g id="patch_55">
    <path d="M 489.675 133.958984 
L 489.675 14.058984 
" style="fill:none;stroke:#262626;stroke-linecap:square;stroke-linejoin:miter;stroke-width:1.25;"/>
   </g>
   <g id="patch_56">
    <path d="M 64.375 133.958984 
L 489.675 133.958984 
" style="fill:none;stroke:#262626;stroke-linecap:square;stroke-linejoin:miter;stroke-width:1.25;"/>
   </g>
   <g id="patch_57">
    <path d="M 64.375 133.958984 
L 64.375 14.058984 
" style="fill:none;stroke:#262626;stroke-linecap:square;stroke-linejoin:miter;stroke-width:1.25;"/>
   </g>
   <g id="text_16">
    <!-- k=5, c=18 -->
    <defs>
     <path d="M 40.4375 19 
L 49.078125 17.875 
Q 47.65625 8.9375 41.8125 3.875 
Q 35.984375 -1.171875 27.484375 -1.171875 
Q 16.84375 -1.171875 10.375 5.78125 
Q 3.90625 12.75 3.90625 25.734375 
Q 3.90625 34.125 6.6875 40.421875 
Q 9.46875 46.734375 15.15625 49.875 
Q 20.84375 53.03125 27.546875 53.03125 
Q 35.984375 53.03125 41.359375 48.75 
Q 46.734375 44.484375 48.25 36.625 
L 39.703125 35.296875 
Q 38.484375 40.53125 35.375 43.15625 
Q 32.28125 45.796875 27.875 45.796875 
Q 21.234375 45.796875 17.078125 41.03125 
Q 12.9375 36.28125 12.9375 25.984375 
Q 12.9375 15.53125 16.9375 10.796875 
Q 20.953125 6.0625 27.390625 6.0625 
Q 32.5625 6.0625 36.03125 9.234375 
Q 39.5 12.40625 40.4375 19 
" id="ArialMT-63"/>
     <path d="M 8.890625 0 
L 8.890625 10.015625 
L 18.890625 10.015625 
L 18.890625 0 
Q 18.890625 -5.515625 16.9375 -8.90625 
Q 14.984375 -12.3125 10.75 -14.15625 
L 8.296875 -10.40625 
Q 11.078125 -9.1875 12.390625 -6.8125 
Q 13.71875 -4.4375 13.875 0 
z
" id="ArialMT-2c"/>
     <path d="M 52.828125 42.09375 
L 5.5625 42.09375 
L 5.5625 50.296875 
L 52.828125 50.296875 
z
M 52.828125 20.359375 
L 5.5625 20.359375 
L 5.5625 28.5625 
L 52.828125 28.5625 
z
" id="ArialMT-3d"/>
     <path d="M 17.671875 38.8125 
Q 12.203125 40.828125 9.5625 44.53125 
Q 6.9375 48.25 6.9375 53.421875 
Q 6.9375 61.234375 12.546875 66.546875 
Q 18.171875 71.875 27.484375 71.875 
Q 36.859375 71.875 42.578125 66.421875 
Q 48.296875 60.984375 48.296875 53.171875 
Q 48.296875 48.1875 45.671875 44.5 
Q 43.0625 40.828125 37.75 38.8125 
Q 44.34375 36.671875 47.78125 31.875 
Q 51.21875 27.09375 51.21875 20.453125 
Q 51.21875 11.28125 44.71875 5.03125 
Q 38.234375 -1.21875 27.640625 -1.21875 
Q 17.046875 -1.21875 10.546875 5.046875 
Q 4.046875 11.328125 4.046875 20.703125 
Q 4.046875 27.6875 7.59375 32.390625 
Q 11.140625 37.109375 17.671875 38.8125 
M 15.921875 53.71875 
Q 15.921875 48.640625 19.1875 45.40625 
Q 22.46875 42.1875 27.6875 42.1875 
Q 32.765625 42.1875 36.015625 45.375 
Q 39.265625 48.578125 39.265625 53.21875 
Q 39.265625 58.0625 35.90625 61.359375 
Q 32.5625 64.65625 27.59375 64.65625 
Q 22.5625 64.65625 19.234375 61.421875 
Q 15.921875 58.203125 15.921875 53.71875 
M 13.09375 20.65625 
Q 13.09375 16.890625 14.875 13.375 
Q 16.65625 9.859375 20.171875 7.921875 
Q 23.6875 6 27.734375 6 
Q 34.03125 6 38.125 10.046875 
Q 42.234375 14.109375 42.234375 20.359375 
Q 42.234375 26.703125 38.015625 30.859375 
Q 33.796875 35.015625 27.4375 35.015625 
Q 21.234375 35.015625 17.15625 30.90625 
Q 13.09375 26.8125 13.09375 20.65625 
" id="ArialMT-38"/>
     <path d="M 6.640625 0 
L 6.640625 71.578125 
L 15.4375 71.578125 
L 15.4375 30.765625 
L 36.234375 51.859375 
L 47.609375 51.859375 
L 27.78125 32.625 
L 49.609375 0 
L 38.765625 0 
L 21.625 26.515625 
L 15.4375 20.5625 
L 15.4375 0 
z
" id="ArialMT-6b"/>
     <path id="ArialMT-20"/>
    </defs>
    <g style="fill:#262626;" transform="translate(72.881 36.785703125)scale(0.15 -0.15)">
     <use xlink:href="#ArialMT-6b"/>
     <use x="50.0" xlink:href="#ArialMT-3d"/>
     <use x="108.3984375" xlink:href="#ArialMT-35"/>
     <use x="164.013671875" xlink:href="#ArialMT-2c"/>
     <use x="191.796875" xlink:href="#ArialMT-20"/>
     <use x="219.580078125" xlink:href="#ArialMT-63"/>
     <use x="269.580078125" xlink:href="#ArialMT-3d"/>
     <use x="327.978515625" xlink:href="#ArialMT-31"/>
     <use x="383.59375" xlink:href="#ArialMT-38"/>
    </g>
   </g>
  </g>
  <g id="axes_2">
   <g id="patch_58">
    <path d="M 540.775 133.958984 
L 966.075 133.958984 
L 966.075 14.058984 
L 540.775 14.058984 
L 540.775 133.958984 
z
" style="fill:none;"/>
   </g>
   <g id="matplotlib.axis_3">
    <g id="xtick_8">
     <g id="line2d_31">
      <g>
       <use style="fill:#262626;stroke:#262626;" x="540.775" xlink:href="#m9494966d35" y="133.958984375"/>
      </g>
     </g>
     <g id="line2d_32">
      <g>
       <use style="fill:#262626;stroke:#262626;" x="540.775" xlink:href="#m9494966d35" y="14.058984375"/>
      </g>
     </g>
     <g id="text_17">
      <!-- 0 -->
      <g style="fill:#262626;" transform="translate(536.604296875 151.695703125)scale(0.15 -0.15)">
       <use xlink:href="#ArialMT-30"/>
      </g>
     </g>
    </g>
    <g id="xtick_9">
     <g id="line2d_33">
      <g>
       <use style="fill:#262626;stroke:#262626;" x="611.658333333" xlink:href="#m9494966d35" y="133.958984375"/>
      </g>
     </g>
     <g id="line2d_34">
      <g>
       <use style="fill:#262626;stroke:#262626;" x="611.658333333" xlink:href="#m9494966d35" y="14.058984375"/>
      </g>
     </g>
     <g id="text_18">
      <!-- 5 -->
      <g style="fill:#262626;" transform="translate(607.487630208 151.695703125)scale(0.15 -0.15)">
       <use xlink:href="#ArialMT-35"/>
      </g>
     </g>
    </g>
    <g id="xtick_10">
     <g id="line2d_35">
      <g>
       <use style="fill:#262626;stroke:#262626;" x="682.541666667" xlink:href="#m9494966d35" y="133.958984375"/>
      </g>
     </g>
     <g id="line2d_36">
      <g>
       <use style="fill:#262626;stroke:#262626;" x="682.541666667" xlink:href="#m9494966d35" y="14.058984375"/>
      </g>
     </g>
     <g id="text_19">
      <!-- 10 -->
      <g style="fill:#262626;" transform="translate(674.200260417 151.695703125)scale(0.15 -0.15)">
       <use xlink:href="#ArialMT-31"/>
       <use x="55.615234375" xlink:href="#ArialMT-30"/>
      </g>
     </g>
    </g>
    <g id="xtick_11">
     <g id="line2d_37">
      <g>
       <use style="fill:#262626;stroke:#262626;" x="753.425" xlink:href="#m9494966d35" y="133.958984375"/>
      </g>
     </g>
     <g id="line2d_38">
      <g>
       <use style="fill:#262626;stroke:#262626;" x="753.425" xlink:href="#m9494966d35" y="14.058984375"/>
      </g>
     </g>
     <g id="text_20">
      <!-- 15 -->
      <g style="fill:#262626;" transform="translate(745.08359375 151.695703125)scale(0.15 -0.15)">
       <use xlink:href="#ArialMT-31"/>
       <use x="55.615234375" xlink:href="#ArialMT-35"/>
      </g>
     </g>
    </g>
    <g id="xtick_12">
     <g id="line2d_39">
      <g>
       <use style="fill:#262626;stroke:#262626;" x="824.308333333" xlink:href="#m9494966d35" y="133.958984375"/>
      </g>
     </g>
     <g id="line2d_40">
      <g>
       <use style="fill:#262626;stroke:#262626;" x="824.308333333" xlink:href="#m9494966d35" y="14.058984375"/>
      </g>
     </g>
     <g id="text_21">
      <!-- 20 -->
      <g style="fill:#262626;" transform="translate(815.966927083 151.695703125)scale(0.15 -0.15)">
       <use xlink:href="#ArialMT-32"/>
       <use x="55.615234375" xlink:href="#ArialMT-30"/>
      </g>
     </g>
    </g>
    <g id="xtick_13">
     <g id="line2d_41">
      <g>
       <use style="fill:#262626;stroke:#262626;" x="895.191666667" xlink:href="#m9494966d35" y="133.958984375"/>
      </g>
     </g>
     <g id="line2d_42">
      <g>
       <use style="fill:#262626;stroke:#262626;" x="895.191666667" xlink:href="#m9494966d35" y="14.058984375"/>
      </g>
     </g>
     <g id="text_22">
      <!-- 25 -->
      <g style="fill:#262626;" transform="translate(886.850260417 151.695703125)scale(0.15 -0.15)">
       <use xlink:href="#ArialMT-32"/>
       <use x="55.615234375" xlink:href="#ArialMT-35"/>
      </g>
     </g>
    </g>
    <g id="xtick_14">
     <g id="line2d_43">
      <g>
       <use style="fill:#262626;stroke:#262626;" x="966.075" xlink:href="#m9494966d35" y="133.958984375"/>
      </g>
     </g>
     <g id="line2d_44">
      <g>
       <use style="fill:#262626;stroke:#262626;" x="966.075" xlink:href="#m9494966d35" y="14.058984375"/>
      </g>
     </g>
     <g id="text_23">
      <!-- 30 -->
      <g style="fill:#262626;" transform="translate(957.73359375 151.695703125)scale(0.15 -0.15)">
       <use xlink:href="#ArialMT-33"/>
       <use x="55.615234375" xlink:href="#ArialMT-30"/>
      </g>
     </g>
    </g>
   </g>
   <g id="matplotlib.axis_4">
    <g id="ytick_9">
     <g id="line2d_45">
      <g>
       <use style="fill:#262626;stroke:#262626;" x="540.775" xlink:href="#m9494966d35" y="133.958984375"/>
      </g>
     </g>
     <g id="line2d_46">
      <g>
       <use style="fill:#262626;stroke:#262626;" x="966.075" xlink:href="#m9494966d35" y="133.958984375"/>
      </g>
     </g>
     <g id="text_24">
      <!-- 0 -->
      <g style="fill:#262626;" transform="translate(525.43359375 137.83671875)scale(0.15 -0.15)">
       <use xlink:href="#ArialMT-30"/>
      </g>
     </g>
    </g>
    <g id="ytick_10">
     <g id="line2d_47">
      <g>
       <use style="fill:#262626;stroke:#262626;" x="540.775" xlink:href="#m9494966d35" y="113.975651042"/>
      </g>
     </g>
     <g id="line2d_48">
      <g>
       <use style="fill:#262626;stroke:#262626;" x="966.075" xlink:href="#m9494966d35" y="113.975651042"/>
      </g>
     </g>
     <g id="text_25">
      <!-- 50 -->
      <g style="fill:#262626;" transform="translate(517.0921875 117.853385417)scale(0.15 -0.15)">
       <use xlink:href="#ArialMT-35"/>
       <use x="55.615234375" xlink:href="#ArialMT-30"/>
      </g>
     </g>
    </g>
    <g id="ytick_11">
     <g id="line2d_49">
      <g>
       <use style="fill:#262626;stroke:#262626;" x="540.775" xlink:href="#m9494966d35" y="93.9923177083"/>
      </g>
     </g>
     <g id="line2d_50">
      <g>
       <use style="fill:#262626;stroke:#262626;" x="966.075" xlink:href="#m9494966d35" y="93.9923177083"/>
      </g>
     </g>
     <g id="text_26">
      <!-- 100 -->
      <g style="fill:#262626;" transform="translate(508.75078125 97.8700520833)scale(0.15 -0.15)">
       <use xlink:href="#ArialMT-31"/>
       <use x="55.615234375" xlink:href="#ArialMT-30"/>
       <use x="111.23046875" xlink:href="#ArialMT-30"/>
      </g>
     </g>
    </g>
    <g id="ytick_12">
     <g id="line2d_51">
      <g>
       <use style="fill:#262626;stroke:#262626;" x="540.775" xlink:href="#m9494966d35" y="74.008984375"/>
      </g>
     </g>
     <g id="line2d_52">
      <g>
       <use style="fill:#262626;stroke:#262626;" x="966.075" xlink:href="#m9494966d35" y="74.008984375"/>
      </g>
     </g>
     <g id="text_27">
      <!-- 150 -->
      <g style="fill:#262626;" transform="translate(508.75078125 77.88671875)scale(0.15 -0.15)">
       <use xlink:href="#ArialMT-31"/>
       <use x="55.615234375" xlink:href="#ArialMT-35"/>
       <use x="111.23046875" xlink:href="#ArialMT-30"/>
      </g>
     </g>
    </g>
    <g id="ytick_13">
     <g id="line2d_53">
      <g>
       <use style="fill:#262626;stroke:#262626;" x="540.775" xlink:href="#m9494966d35" y="54.0256510417"/>
      </g>
     </g>
     <g id="line2d_54">
      <g>
       <use style="fill:#262626;stroke:#262626;" x="966.075" xlink:href="#m9494966d35" y="54.0256510417"/>
      </g>
     </g>
     <g id="text_28">
      <!-- 200 -->
      <g style="fill:#262626;" transform="translate(508.75078125 57.9033854167)scale(0.15 -0.15)">
       <use xlink:href="#ArialMT-32"/>
       <use x="55.615234375" xlink:href="#ArialMT-30"/>
       <use x="111.23046875" xlink:href="#ArialMT-30"/>
      </g>
     </g>
    </g>
    <g id="ytick_14">
     <g id="line2d_55">
      <g>
       <use style="fill:#262626;stroke:#262626;" x="540.775" xlink:href="#m9494966d35" y="34.0423177083"/>
      </g>
     </g>
     <g id="line2d_56">
      <g>
       <use style="fill:#262626;stroke:#262626;" x="966.075" xlink:href="#m9494966d35" y="34.0423177083"/>
      </g>
     </g>
     <g id="text_29">
      <!-- 250 -->
      <g style="fill:#262626;" transform="translate(508.75078125 37.9200520833)scale(0.15 -0.15)">
       <use xlink:href="#ArialMT-32"/>
       <use x="55.615234375" xlink:href="#ArialMT-35"/>
       <use x="111.23046875" xlink:href="#ArialMT-30"/>
      </g>
     </g>
    </g>
    <g id="ytick_15">
     <g id="line2d_57">
      <g>
       <use style="fill:#262626;stroke:#262626;" x="540.775" xlink:href="#m9494966d35" y="14.058984375"/>
      </g>
     </g>
     <g id="line2d_58">
      <g>
       <use style="fill:#262626;stroke:#262626;" x="966.075" xlink:href="#m9494966d35" y="14.058984375"/>
      </g>
     </g>
     <g id="text_30">
      <!-- 300 -->
      <g style="fill:#262626;" transform="translate(508.75078125 17.93671875)scale(0.15 -0.15)">
       <use xlink:href="#ArialMT-33"/>
       <use x="55.615234375" xlink:href="#ArialMT-30"/>
       <use x="111.23046875" xlink:href="#ArialMT-30"/>
      </g>
     </g>
    </g>
   </g>
   <g id="patch_59">
    <path clip-path="url(#p446a961505)" d="M 583.305 133.958984 
L 594.646333 133.958984 
L 594.646333 133.459401 
L 583.305 133.459401 
z
" style="fill:#ff0000;opacity:0.4;stroke:#1a1a1a;stroke-linejoin:miter;stroke-width:0.3;"/>
   </g>
   <g id="patch_60">
    <path clip-path="url(#p446a961505)" d="M 597.481667 133.958984 
L 608.823 133.958984 
L 608.823 133.41658 
L 597.481667 133.41658 
z
" style="fill:#ff0000;opacity:0.4;stroke:#1a1a1a;stroke-linejoin:miter;stroke-width:0.3;"/>
   </g>
   <g id="patch_61">
    <path clip-path="url(#p446a961505)" d="M 611.658333 133.958984 
L 622.999667 133.958984 
L 622.999667 133.191204 
L 611.658333 133.191204 
z
" style="fill:#ff0000;opacity:0.4;stroke:#1a1a1a;stroke-linejoin:miter;stroke-width:0.3;"/>
   </g>
   <g id="patch_62">
    <path clip-path="url(#p446a961505)" d="M 625.835 133.958984 
L 637.176333 133.958984 
L 637.176333 132.642435 
L 625.835 132.642435 
z
" style="fill:#ff0000;opacity:0.4;stroke:#1a1a1a;stroke-linejoin:miter;stroke-width:0.3;"/>
   </g>
   <g id="patch_63">
    <path clip-path="url(#p446a961505)" d="M 640.011667 133.958984 
L 651.353 133.958984 
L 651.353 131.27735 
L 640.011667 131.27735 
z
" style="fill:#ff0000;opacity:0.4;stroke:#1a1a1a;stroke-linejoin:miter;stroke-width:0.3;"/>
   </g>
   <g id="patch_64">
    <path clip-path="url(#p446a961505)" d="M 654.188333 133.958984 
L 665.529667 133.958984 
L 665.529667 128.691378 
L 654.188333 128.691378 
z
" style="fill:#ff0000;opacity:0.4;stroke:#1a1a1a;stroke-linejoin:miter;stroke-width:0.3;"/>
   </g>
   <g id="patch_65">
    <path clip-path="url(#p446a961505)" d="M 668.365 133.958984 
L 679.706333 133.958984 
L 679.706333 123.331848 
L 668.365 123.331848 
z
" style="fill:#ff0000;opacity:0.4;stroke:#1a1a1a;stroke-linejoin:miter;stroke-width:0.3;"/>
   </g>
   <g id="patch_66">
    <path clip-path="url(#p446a961505)" d="M 682.541667 133.958984 
L 693.883 133.958984 
L 693.883 114.063578 
L 682.541667 114.063578 
z
" style="fill:#ff0000;opacity:0.4;stroke:#1a1a1a;stroke-linejoin:miter;stroke-width:0.3;"/>
   </g>
   <g id="patch_67">
    <path clip-path="url(#p446a961505)" d="M 696.718333 133.958984 
L 708.059667 133.958984 
L 708.059667 100.698724 
L 696.718333 100.698724 
z
" style="fill:#ff0000;opacity:0.4;stroke:#1a1a1a;stroke-linejoin:miter;stroke-width:0.3;"/>
   </g>
   <g id="patch_68">
    <path clip-path="url(#p446a961505)" d="M 710.895 133.958984 
L 722.236333 133.958984 
L 722.236333 84.456271 
L 710.895 84.456271 
z
" style="fill:#ff0000;opacity:0.4;stroke:#1a1a1a;stroke-linejoin:miter;stroke-width:0.3;"/>
   </g>
   <g id="patch_69">
    <path clip-path="url(#p446a961505)" d="M 725.071667 133.958984 
L 736.413 133.958984 
L 736.413 65.516068 
L 725.071667 65.516068 
z
" style="fill:#ff0000;opacity:0.4;stroke:#1a1a1a;stroke-linejoin:miter;stroke-width:0.3;"/>
   </g>
   <g id="patch_70">
    <path clip-path="url(#p446a961505)" d="M 739.248333 133.958984 
L 750.589667 133.958984 
L 750.589667 46.316081 
L 739.248333 46.316081 
z
" style="fill:#ff0000;opacity:0.4;stroke:#1a1a1a;stroke-linejoin:miter;stroke-width:0.3;"/>
   </g>
   <g id="patch_71">
    <path clip-path="url(#p446a961505)" d="M 753.425 133.958984 
L 764.766333 133.958984 
L 764.766333 30.645151 
L 753.425 30.645151 
z
" style="fill:#ff0000;opacity:0.4;stroke:#1a1a1a;stroke-linejoin:miter;stroke-width:0.3;"/>
   </g>
   <g id="patch_72">
    <path clip-path="url(#p446a961505)" d="M 767.601667 133.958984 
L 778.943 133.958984 
L 778.943 19.802194 
L 767.601667 19.802194 
z
" style="fill:#ff0000;opacity:0.4;stroke:#1a1a1a;stroke-linejoin:miter;stroke-width:0.3;"/>
   </g>
   <g id="patch_73">
    <path clip-path="url(#p446a961505)" d="M 781.778333 133.958984 
L 793.119667 133.958984 
L 793.119667 18.487291 
L 781.778333 18.487291 
z
" style="fill:#ff0000;opacity:0.4;stroke:#1a1a1a;stroke-linejoin:miter;stroke-width:0.3;"/>
   </g>
   <g id="patch_74">
    <path clip-path="url(#p446a961505)" d="M 795.955 133.958984 
L 807.296333 133.958984 
L 807.296333 24.790034 
L 795.955 24.790034 
z
" style="fill:#ff0000;opacity:0.4;stroke:#1a1a1a;stroke-linejoin:miter;stroke-width:0.3;"/>
   </g>
   <g id="patch_75">
    <path clip-path="url(#p446a961505)" d="M 810.131667 133.958984 
L 821.473 133.958984 
L 821.473 33.338904 
L 810.131667 33.338904 
z
" style="fill:#ff0000;opacity:0.4;stroke:#1a1a1a;stroke-linejoin:miter;stroke-width:0.3;"/>
   </g>
   <g id="patch_76">
    <path clip-path="url(#p446a961505)" d="M 824.308333 133.958984 
L 835.649667 133.958984 
L 835.649667 41.771871 
L 824.308333 41.771871 
z
" style="fill:#ff0000;opacity:0.4;stroke:#1a1a1a;stroke-linejoin:miter;stroke-width:0.3;"/>
   </g>
   <g id="patch_77">
    <path clip-path="url(#p446a961505)" d="M 838.485 133.958984 
L 849.826333 133.958984 
L 849.826333 48.949884 
L 838.485 48.949884 
z
" style="fill:#ff0000;opacity:0.4;stroke:#1a1a1a;stroke-linejoin:miter;stroke-width:0.3;"/>
   </g>
   <g id="patch_78">
    <path clip-path="url(#p446a961505)" d="M 852.661667 133.958984 
L 864.003 133.958984 
L 864.003 53.578024 
L 852.661667 53.578024 
z
" style="fill:#ff0000;opacity:0.4;stroke:#1a1a1a;stroke-linejoin:miter;stroke-width:0.3;"/>
   </g>
   <g id="patch_79">
    <path clip-path="url(#p446a961505)" d="M 866.838333 133.958984 
L 878.179667 133.958984 
L 878.179667 57.702584 
L 866.838333 57.702584 
z
" style="fill:#ff0000;opacity:0.4;stroke:#1a1a1a;stroke-linejoin:miter;stroke-width:0.3;"/>
   </g>
   <g id="patch_80">
    <path clip-path="url(#p446a961505)" d="M 881.015 133.958984 
L 892.356333 133.958984 
L 892.356333 60.460284 
L 881.015 60.460284 
z
" style="fill:#ff0000;opacity:0.4;stroke:#1a1a1a;stroke-linejoin:miter;stroke-width:0.3;"/>
   </g>
   <g id="patch_81">
    <path clip-path="url(#p446a961505)" d="M 895.191667 133.958984 
L 906.533 133.958984 
L 906.533 62.306744 
L 895.191667 62.306744 
z
" style="fill:#ff0000;opacity:0.4;stroke:#1a1a1a;stroke-linejoin:miter;stroke-width:0.3;"/>
   </g>
   <g id="patch_82">
    <path clip-path="url(#p446a961505)" d="M 909.368333 133.958984 
L 920.709667 133.958984 
L 920.709667 63.777518 
L 909.368333 63.777518 
z
" style="fill:#ff0000;opacity:0.4;stroke:#1a1a1a;stroke-linejoin:miter;stroke-width:0.3;"/>
   </g>
   <g id="patch_83">
    <path clip-path="url(#p446a961505)" d="M 923.545 133.958984 
L 934.886333 133.958984 
L 934.886333 64.005328 
L 923.545 64.005328 
z
" style="fill:#ff0000;opacity:0.4;stroke:#1a1a1a;stroke-linejoin:miter;stroke-width:0.3;"/>
   </g>
   <g id="patch_84">
    <path clip-path="url(#p446a961505)" d="M 937.721667 133.958984 
L 949.063 133.958984 
L 949.063 60.756038 
L 937.721667 60.756038 
z
" style="fill:#ff0000;opacity:0.4;stroke:#1a1a1a;stroke-linejoin:miter;stroke-width:0.3;"/>
   </g>
   <g id="patch_85">
    <path clip-path="url(#p446a961505)" d="M 583.305 133.958984 
L 594.646333 133.958984 
L 594.646333 133.559318 
L 583.305 133.559318 
z
" style="fill:#0000ff;opacity:0.4;stroke:#1a1a1a;stroke-linejoin:miter;stroke-width:0.3;"/>
   </g>
   <g id="patch_86">
    <path clip-path="url(#p446a961505)" d="M 597.481667 133.958984 
L 608.823 133.958984 
L 608.823 133.009776 
L 597.481667 133.009776 
z
" style="fill:#0000ff;opacity:0.4;stroke:#1a1a1a;stroke-linejoin:miter;stroke-width:0.3;"/>
   </g>
   <g id="patch_87">
    <path clip-path="url(#p446a961505)" d="M 611.658333 133.958984 
L 622.999667 133.958984 
L 622.999667 133.097203 
L 611.658333 133.097203 
z
" style="fill:#0000ff;opacity:0.4;stroke:#1a1a1a;stroke-linejoin:miter;stroke-width:0.3;"/>
   </g>
   <g id="patch_88">
    <path clip-path="url(#p446a961505)" d="M 625.835 133.958984 
L 637.176333 133.958984 
L 637.176333 132.477461 
L 625.835 132.477461 
z
" style="fill:#0000ff;opacity:0.4;stroke:#1a1a1a;stroke-linejoin:miter;stroke-width:0.3;"/>
   </g>
   <g id="patch_89">
    <path clip-path="url(#p446a961505)" d="M 640.011667 133.958984 
L 651.353 133.958984 
L 651.353 131.767871 
L 640.011667 131.767871 
z
" style="fill:#0000ff;opacity:0.4;stroke:#1a1a1a;stroke-linejoin:miter;stroke-width:0.3;"/>
   </g>
   <g id="patch_90">
    <path clip-path="url(#p446a961505)" d="M 654.188333 133.958984 
L 665.529667 133.958984 
L 665.529667 129.69038 
L 654.188333 129.69038 
z
" style="fill:#0000ff;opacity:0.4;stroke:#1a1a1a;stroke-linejoin:miter;stroke-width:0.3;"/>
   </g>
   <g id="patch_91">
    <path clip-path="url(#p446a961505)" d="M 668.365 133.958984 
L 679.706333 133.958984 
L 679.706333 125.749831 
L 668.365 125.749831 
z
" style="fill:#0000ff;opacity:0.4;stroke:#1a1a1a;stroke-linejoin:miter;stroke-width:0.3;"/>
   </g>
   <g id="patch_92">
    <path clip-path="url(#p446a961505)" d="M 682.541667 133.958984 
L 693.883 133.958984 
L 693.883 118.260078 
L 682.541667 118.260078 
z
" style="fill:#0000ff;opacity:0.4;stroke:#1a1a1a;stroke-linejoin:miter;stroke-width:0.3;"/>
   </g>
   <g id="patch_93">
    <path clip-path="url(#p446a961505)" d="M 696.718333 133.958984 
L 708.059667 133.958984 
L 708.059667 108.404298 
L 696.718333 108.404298 
z
" style="fill:#0000ff;opacity:0.4;stroke:#1a1a1a;stroke-linejoin:miter;stroke-width:0.3;"/>
   </g>
   <g id="patch_94">
    <path clip-path="url(#p446a961505)" d="M 710.895 133.958984 
L 722.236333 133.958984 
L 722.236333 94.791651 
L 710.895 94.791651 
z
" style="fill:#0000ff;opacity:0.4;stroke:#1a1a1a;stroke-linejoin:miter;stroke-width:0.3;"/>
   </g>
   <g id="patch_95">
    <path clip-path="url(#p446a961505)" d="M 725.071667 133.958984 
L 736.413 133.958984 
L 736.413 78.513228 
L 725.071667 78.513228 
z
" style="fill:#0000ff;opacity:0.4;stroke:#1a1a1a;stroke-linejoin:miter;stroke-width:0.3;"/>
   </g>
   <g id="patch_96">
    <path clip-path="url(#p446a961505)" d="M 739.248333 133.958984 
L 750.589667 133.958984 
L 750.589667 61.931058 
L 739.248333 61.931058 
z
" style="fill:#0000ff;opacity:0.4;stroke:#1a1a1a;stroke-linejoin:miter;stroke-width:0.3;"/>
   </g>
   <g id="patch_97">
    <path clip-path="url(#p446a961505)" d="M 753.425 133.958984 
L 764.766333 133.958984 
L 764.766333 46.935564 
L 753.425 46.935564 
z
" style="fill:#0000ff;opacity:0.4;stroke:#1a1a1a;stroke-linejoin:miter;stroke-width:0.3;"/>
   </g>
   <g id="patch_98">
    <path clip-path="url(#p446a961505)" d="M 767.601667 133.958984 
L 778.943 133.958984 
L 778.943 36.724081 
L 767.601667 36.724081 
z
" style="fill:#0000ff;opacity:0.4;stroke:#1a1a1a;stroke-linejoin:miter;stroke-width:0.3;"/>
   </g>
   <g id="patch_99">
    <path clip-path="url(#p446a961505)" d="M 781.778333 133.958984 
L 793.119667 133.958984 
L 793.119667 31.968048 
L 781.778333 31.968048 
z
" style="fill:#0000ff;opacity:0.4;stroke:#1a1a1a;stroke-linejoin:miter;stroke-width:0.3;"/>
   </g>
   <g id="patch_100">
    <path clip-path="url(#p446a961505)" d="M 795.955 133.958984 
L 807.296333 133.958984 
L 807.296333 31.684284 
L 795.955 31.684284 
z
" style="fill:#0000ff;opacity:0.4;stroke:#1a1a1a;stroke-linejoin:miter;stroke-width:0.3;"/>
   </g>
   <g id="patch_101">
    <path clip-path="url(#p446a961505)" d="M 810.131667 133.958984 
L 821.473 133.958984 
L 821.473 37.347561 
L 810.131667 37.347561 
z
" style="fill:#0000ff;opacity:0.4;stroke:#1a1a1a;stroke-linejoin:miter;stroke-width:0.3;"/>
   </g>
   <g id="patch_102">
    <path clip-path="url(#p446a961505)" d="M 824.308333 133.958984 
L 835.649667 133.958984 
L 835.649667 41.811838 
L 824.308333 41.811838 
z
" style="fill:#0000ff;opacity:0.4;stroke:#1a1a1a;stroke-linejoin:miter;stroke-width:0.3;"/>
   </g>
   <g id="patch_103">
    <path clip-path="url(#p446a961505)" d="M 838.485 133.958984 
L 849.826333 133.958984 
L 849.826333 46.447971 
L 838.485 46.447971 
z
" style="fill:#0000ff;opacity:0.4;stroke:#1a1a1a;stroke-linejoin:miter;stroke-width:0.3;"/>
   </g>
   <g id="patch_104">
    <path clip-path="url(#p446a961505)" d="M 852.661667 133.958984 
L 864.003 133.958984 
L 864.003 49.697261 
L 852.661667 49.697261 
z
" style="fill:#0000ff;opacity:0.4;stroke:#1a1a1a;stroke-linejoin:miter;stroke-width:0.3;"/>
   </g>
   <g id="patch_105">
    <path clip-path="url(#p446a961505)" d="M 866.838333 133.958984 
L 878.179667 133.958984 
L 878.179667 51.419824 
L 866.838333 51.419824 
z
" style="fill:#0000ff;opacity:0.4;stroke:#1a1a1a;stroke-linejoin:miter;stroke-width:0.3;"/>
   </g>
   <g id="patch_106">
    <path clip-path="url(#p446a961505)" d="M 881.015 133.958984 
L 892.356333 133.958984 
L 892.356333 50.992181 
L 881.015 50.992181 
z
" style="fill:#0000ff;opacity:0.4;stroke:#1a1a1a;stroke-linejoin:miter;stroke-width:0.3;"/>
   </g>
   <g id="patch_107">
    <path clip-path="url(#p446a961505)" d="M 895.191667 133.958984 
L 906.533 133.958984 
L 906.533 50.660458 
L 895.191667 50.660458 
z
" style="fill:#0000ff;opacity:0.4;stroke:#1a1a1a;stroke-linejoin:miter;stroke-width:0.3;"/>
   </g>
   <g id="patch_108">
    <path clip-path="url(#p446a961505)" d="M 909.368333 133.958984 
L 920.709667 133.958984 
L 920.709667 48.150551 
L 909.368333 48.150551 
z
" style="fill:#0000ff;opacity:0.4;stroke:#1a1a1a;stroke-linejoin:miter;stroke-width:0.3;"/>
   </g>
   <g id="patch_109">
    <path clip-path="url(#p446a961505)" d="M 923.545 133.958984 
L 934.886333 133.958984 
L 934.886333 43.682278 
L 923.545 43.682278 
z
" style="fill:#0000ff;opacity:0.4;stroke:#1a1a1a;stroke-linejoin:miter;stroke-width:0.3;"/>
   </g>
   <g id="patch_110">
    <path clip-path="url(#p446a961505)" d="M 937.721667 133.958984 
L 949.063 133.958984 
L 949.063 37.519418 
L 937.721667 37.519418 
z
" style="fill:#0000ff;opacity:0.4;stroke:#1a1a1a;stroke-linejoin:miter;stroke-width:0.3;"/>
   </g>
   <g id="patch_111">
    <path d="M 540.775 14.058984 
L 966.075 14.058984 
" style="fill:none;stroke:#262626;stroke-linecap:square;stroke-linejoin:miter;stroke-width:1.25;"/>
   </g>
   <g id="patch_112">
    <path d="M 966.075 133.958984 
L 966.075 14.058984 
" style="fill:none;stroke:#262626;stroke-linecap:square;stroke-linejoin:miter;stroke-width:1.25;"/>
   </g>
   <g id="patch_113">
    <path d="M 540.775 133.958984 
L 966.075 133.958984 
" style="fill:none;stroke:#262626;stroke-linecap:square;stroke-linejoin:miter;stroke-width:1.25;"/>
   </g>
   <g id="patch_114">
    <path d="M 540.775 133.958984 
L 540.775 14.058984 
" style="fill:none;stroke:#262626;stroke-linecap:square;stroke-linejoin:miter;stroke-width:1.25;"/>
   </g>
   <g id="text_31">
    <!-- k=5, c=19 -->
    <defs>
     <path d="M 5.46875 16.546875 
L 13.921875 17.328125 
Q 14.984375 11.375 18.015625 8.6875 
Q 21.046875 6 25.78125 6 
Q 29.828125 6 32.875 7.859375 
Q 35.9375 9.71875 37.890625 12.8125 
Q 39.84375 15.921875 41.15625 21.1875 
Q 42.484375 26.46875 42.484375 31.9375 
Q 42.484375 32.515625 42.4375 33.6875 
Q 39.796875 29.5 35.234375 26.875 
Q 30.671875 24.265625 25.34375 24.265625 
Q 16.453125 24.265625 10.296875 30.703125 
Q 4.15625 37.15625 4.15625 47.703125 
Q 4.15625 58.59375 10.578125 65.234375 
Q 17 71.875 26.65625 71.875 
Q 33.640625 71.875 39.421875 68.109375 
Q 45.21875 64.359375 48.21875 57.390625 
Q 51.21875 50.4375 51.21875 37.25 
Q 51.21875 23.53125 48.234375 15.40625 
Q 45.265625 7.28125 39.375 3.03125 
Q 33.5 -1.21875 25.59375 -1.21875 
Q 17.1875 -1.21875 11.859375 3.4375 
Q 6.546875 8.109375 5.46875 16.546875 
M 41.453125 48.140625 
Q 41.453125 55.71875 37.421875 60.15625 
Q 33.40625 64.59375 27.734375 64.59375 
Q 21.875 64.59375 17.53125 59.8125 
Q 13.1875 55.03125 13.1875 47.40625 
Q 13.1875 40.578125 17.3125 36.296875 
Q 21.4375 32.03125 27.484375 32.03125 
Q 33.59375 32.03125 37.515625 36.296875 
Q 41.453125 40.578125 41.453125 48.140625 
" id="ArialMT-39"/>
    </defs>
    <g style="fill:#262626;" transform="translate(549.281 36.785703125)scale(0.15 -0.15)">
     <use xlink:href="#ArialMT-6b"/>
     <use x="50.0" xlink:href="#ArialMT-3d"/>
     <use x="108.3984375" xlink:href="#ArialMT-35"/>
     <use x="164.013671875" xlink:href="#ArialMT-2c"/>
     <use x="191.796875" xlink:href="#ArialMT-20"/>
     <use x="219.580078125" xlink:href="#ArialMT-63"/>
     <use x="269.580078125" xlink:href="#ArialMT-3d"/>
     <use x="327.978515625" xlink:href="#ArialMT-31"/>
     <use x="383.59375" xlink:href="#ArialMT-39"/>
    </g>
   </g>
  </g>
  <g id="axes_3">
   <g id="patch_115">
    <path d="M 1017.175 133.958984 
L 1442.475 133.958984 
L 1442.475 14.058984 
L 1017.175 14.058984 
L 1017.175 133.958984 
z
" style="fill:none;"/>
   </g>
   <g id="matplotlib.axis_5">
    <g id="xtick_15">
     <g id="line2d_59">
      <g>
       <use style="fill:#262626;stroke:#262626;" x="1017.175" xlink:href="#m9494966d35" y="133.958984375"/>
      </g>
     </g>
     <g id="line2d_60">
      <g>
       <use style="fill:#262626;stroke:#262626;" x="1017.175" xlink:href="#m9494966d35" y="14.058984375"/>
      </g>
     </g>
     <g id="text_32">
      <!-- 0 -->
      <g style="fill:#262626;" transform="translate(1013.00429688 151.695703125)scale(0.15 -0.15)">
       <use xlink:href="#ArialMT-30"/>
      </g>
     </g>
    </g>
    <g id="xtick_16">
     <g id="line2d_61">
      <g>
       <use style="fill:#262626;stroke:#262626;" x="1088.05833333" xlink:href="#m9494966d35" y="133.958984375"/>
      </g>
     </g>
     <g id="line2d_62">
      <g>
       <use style="fill:#262626;stroke:#262626;" x="1088.05833333" xlink:href="#m9494966d35" y="14.058984375"/>
      </g>
     </g>
     <g id="text_33">
      <!-- 5 -->
      <g style="fill:#262626;" transform="translate(1083.88763021 151.695703125)scale(0.15 -0.15)">
       <use xlink:href="#ArialMT-35"/>
      </g>
     </g>
    </g>
    <g id="xtick_17">
     <g id="line2d_63">
      <g>
       <use style="fill:#262626;stroke:#262626;" x="1158.94166667" xlink:href="#m9494966d35" y="133.958984375"/>
      </g>
     </g>
     <g id="line2d_64">
      <g>
       <use style="fill:#262626;stroke:#262626;" x="1158.94166667" xlink:href="#m9494966d35" y="14.058984375"/>
      </g>
     </g>
     <g id="text_34">
      <!-- 10 -->
      <g style="fill:#262626;" transform="translate(1150.60026042 151.695703125)scale(0.15 -0.15)">
       <use xlink:href="#ArialMT-31"/>
       <use x="55.615234375" xlink:href="#ArialMT-30"/>
      </g>
     </g>
    </g>
    <g id="xtick_18">
     <g id="line2d_65">
      <g>
       <use style="fill:#262626;stroke:#262626;" x="1229.825" xlink:href="#m9494966d35" y="133.958984375"/>
      </g>
     </g>
     <g id="line2d_66">
      <g>
       <use style="fill:#262626;stroke:#262626;" x="1229.825" xlink:href="#m9494966d35" y="14.058984375"/>
      </g>
     </g>
     <g id="text_35">
      <!-- 15 -->
      <g style="fill:#262626;" transform="translate(1221.48359375 151.695703125)scale(0.15 -0.15)">
       <use xlink:href="#ArialMT-31"/>
       <use x="55.615234375" xlink:href="#ArialMT-35"/>
      </g>
     </g>
    </g>
    <g id="xtick_19">
     <g id="line2d_67">
      <g>
       <use style="fill:#262626;stroke:#262626;" x="1300.70833333" xlink:href="#m9494966d35" y="133.958984375"/>
      </g>
     </g>
     <g id="line2d_68">
      <g>
       <use style="fill:#262626;stroke:#262626;" x="1300.70833333" xlink:href="#m9494966d35" y="14.058984375"/>
      </g>
     </g>
     <g id="text_36">
      <!-- 20 -->
      <g style="fill:#262626;" transform="translate(1292.36692708 151.695703125)scale(0.15 -0.15)">
       <use xlink:href="#ArialMT-32"/>
       <use x="55.615234375" xlink:href="#ArialMT-30"/>
      </g>
     </g>
    </g>
    <g id="xtick_20">
     <g id="line2d_69">
      <g>
       <use style="fill:#262626;stroke:#262626;" x="1371.59166667" xlink:href="#m9494966d35" y="133.958984375"/>
      </g>
     </g>
     <g id="line2d_70">
      <g>
       <use style="fill:#262626;stroke:#262626;" x="1371.59166667" xlink:href="#m9494966d35" y="14.058984375"/>
      </g>
     </g>
     <g id="text_37">
      <!-- 25 -->
      <g style="fill:#262626;" transform="translate(1363.25026042 151.695703125)scale(0.15 -0.15)">
       <use xlink:href="#ArialMT-32"/>
       <use x="55.615234375" xlink:href="#ArialMT-35"/>
      </g>
     </g>
    </g>
    <g id="xtick_21">
     <g id="line2d_71">
      <g>
       <use style="fill:#262626;stroke:#262626;" x="1442.475" xlink:href="#m9494966d35" y="133.958984375"/>
      </g>
     </g>
     <g id="line2d_72">
      <g>
       <use style="fill:#262626;stroke:#262626;" x="1442.475" xlink:href="#m9494966d35" y="14.058984375"/>
      </g>
     </g>
     <g id="text_38">
      <!-- 30 -->
      <g style="fill:#262626;" transform="translate(1434.13359375 151.695703125)scale(0.15 -0.15)">
       <use xlink:href="#ArialMT-33"/>
       <use x="55.615234375" xlink:href="#ArialMT-30"/>
      </g>
     </g>
    </g>
   </g>
   <g id="matplotlib.axis_6">
    <g id="ytick_16">
     <g id="line2d_73">
      <g>
       <use style="fill:#262626;stroke:#262626;" x="1017.175" xlink:href="#m9494966d35" y="133.958984375"/>
      </g>
     </g>
     <g id="line2d_74">
      <g>
       <use style="fill:#262626;stroke:#262626;" x="1442.475" xlink:href="#m9494966d35" y="133.958984375"/>
      </g>
     </g>
     <g id="text_39">
      <!-- 0 -->
      <g style="fill:#262626;" transform="translate(1001.83359375 137.83671875)scale(0.15 -0.15)">
       <use xlink:href="#ArialMT-30"/>
      </g>
     </g>
    </g>
    <g id="ytick_17">
     <g id="line2d_75">
      <g>
       <use style="fill:#262626;stroke:#262626;" x="1017.175" xlink:href="#m9494966d35" y="116.830412946"/>
      </g>
     </g>
     <g id="line2d_76">
      <g>
       <use style="fill:#262626;stroke:#262626;" x="1442.475" xlink:href="#m9494966d35" y="116.830412946"/>
      </g>
     </g>
     <g id="text_40">
      <!-- 50 -->
      <g style="fill:#262626;" transform="translate(993.4921875 120.708147321)scale(0.15 -0.15)">
       <use xlink:href="#ArialMT-35"/>
       <use x="55.615234375" xlink:href="#ArialMT-30"/>
      </g>
     </g>
    </g>
    <g id="ytick_18">
     <g id="line2d_77">
      <g>
       <use style="fill:#262626;stroke:#262626;" x="1017.175" xlink:href="#m9494966d35" y="99.7018415179"/>
      </g>
     </g>
     <g id="line2d_78">
      <g>
       <use style="fill:#262626;stroke:#262626;" x="1442.475" xlink:href="#m9494966d35" y="99.7018415179"/>
      </g>
     </g>
     <g id="text_41">
      <!-- 100 -->
      <g style="fill:#262626;" transform="translate(985.15078125 103.579575893)scale(0.15 -0.15)">
       <use xlink:href="#ArialMT-31"/>
       <use x="55.615234375" xlink:href="#ArialMT-30"/>
       <use x="111.23046875" xlink:href="#ArialMT-30"/>
      </g>
     </g>
    </g>
    <g id="ytick_19">
     <g id="line2d_79">
      <g>
       <use style="fill:#262626;stroke:#262626;" x="1017.175" xlink:href="#m9494966d35" y="82.5732700893"/>
      </g>
     </g>
     <g id="line2d_80">
      <g>
       <use style="fill:#262626;stroke:#262626;" x="1442.475" xlink:href="#m9494966d35" y="82.5732700893"/>
      </g>
     </g>
     <g id="text_42">
      <!-- 150 -->
      <g style="fill:#262626;" transform="translate(985.15078125 86.4510044643)scale(0.15 -0.15)">
       <use xlink:href="#ArialMT-31"/>
       <use x="55.615234375" xlink:href="#ArialMT-35"/>
       <use x="111.23046875" xlink:href="#ArialMT-30"/>
      </g>
     </g>
    </g>
    <g id="ytick_20">
     <g id="line2d_81">
      <g>
       <use style="fill:#262626;stroke:#262626;" x="1017.175" xlink:href="#m9494966d35" y="65.4446986607"/>
      </g>
     </g>
     <g id="line2d_82">
      <g>
       <use style="fill:#262626;stroke:#262626;" x="1442.475" xlink:href="#m9494966d35" y="65.4446986607"/>
      </g>
     </g>
     <g id="text_43">
      <!-- 200 -->
      <g style="fill:#262626;" transform="translate(985.15078125 69.3224330357)scale(0.15 -0.15)">
       <use xlink:href="#ArialMT-32"/>
       <use x="55.615234375" xlink:href="#ArialMT-30"/>
       <use x="111.23046875" xlink:href="#ArialMT-30"/>
      </g>
     </g>
    </g>
    <g id="ytick_21">
     <g id="line2d_83">
      <g>
       <use style="fill:#262626;stroke:#262626;" x="1017.175" xlink:href="#m9494966d35" y="48.3161272321"/>
      </g>
     </g>
     <g id="line2d_84">
      <g>
       <use style="fill:#262626;stroke:#262626;" x="1442.475" xlink:href="#m9494966d35" y="48.3161272321"/>
      </g>
     </g>
     <g id="text_44">
      <!-- 250 -->
      <g style="fill:#262626;" transform="translate(985.15078125 52.1938616071)scale(0.15 -0.15)">
       <use xlink:href="#ArialMT-32"/>
       <use x="55.615234375" xlink:href="#ArialMT-35"/>
       <use x="111.23046875" xlink:href="#ArialMT-30"/>
      </g>
     </g>
    </g>
    <g id="ytick_22">
     <g id="line2d_85">
      <g>
       <use style="fill:#262626;stroke:#262626;" x="1017.175" xlink:href="#m9494966d35" y="31.1875558036"/>
      </g>
     </g>
     <g id="line2d_86">
      <g>
       <use style="fill:#262626;stroke:#262626;" x="1442.475" xlink:href="#m9494966d35" y="31.1875558036"/>
      </g>
     </g>
     <g id="text_45">
      <!-- 300 -->
      <g style="fill:#262626;" transform="translate(985.15078125 35.0652901786)scale(0.15 -0.15)">
       <use xlink:href="#ArialMT-33"/>
       <use x="55.615234375" xlink:href="#ArialMT-30"/>
       <use x="111.23046875" xlink:href="#ArialMT-30"/>
      </g>
     </g>
    </g>
    <g id="ytick_23">
     <g id="line2d_87">
      <g>
       <use style="fill:#262626;stroke:#262626;" x="1017.175" xlink:href="#m9494966d35" y="14.058984375"/>
      </g>
     </g>
     <g id="line2d_88">
      <g>
       <use style="fill:#262626;stroke:#262626;" x="1442.475" xlink:href="#m9494966d35" y="14.058984375"/>
      </g>
     </g>
     <g id="text_46">
      <!-- 350 -->
      <g style="fill:#262626;" transform="translate(985.15078125 17.93671875)scale(0.15 -0.15)">
       <use xlink:href="#ArialMT-33"/>
       <use x="55.615234375" xlink:href="#ArialMT-35"/>
       <use x="111.23046875" xlink:href="#ArialMT-30"/>
      </g>
     </g>
    </g>
   </g>
   <g id="patch_116">
    <path clip-path="url(#pa656d18633)" d="M 1045.528333 133.958984 
L 1056.869667 133.958984 
L 1056.869667 133.273842 
L 1045.528333 133.273842 
z
" style="fill:#ff0000;opacity:0.4;stroke:#1a1a1a;stroke-linejoin:miter;stroke-width:0.3;"/>
   </g>
   <g id="patch_117">
    <path clip-path="url(#pa656d18633)" d="M 1059.705 133.958984 
L 1071.046333 133.958984 
L 1071.046333 133.273842 
L 1059.705 133.273842 
z
" style="fill:#ff0000;opacity:0.4;stroke:#1a1a1a;stroke-linejoin:miter;stroke-width:0.3;"/>
   </g>
   <g id="patch_118">
    <path clip-path="url(#pa656d18633)" d="M 1073.881667 133.958984 
L 1085.223 133.958984 
L 1085.223 133.298311 
L 1073.881667 133.298311 
z
" style="fill:#ff0000;opacity:0.4;stroke:#1a1a1a;stroke-linejoin:miter;stroke-width:0.3;"/>
   </g>
   <g id="patch_119">
    <path clip-path="url(#pa656d18633)" d="M 1088.058333 133.958984 
L 1099.399667 133.958984 
L 1099.399667 133.218289 
L 1088.058333 133.218289 
z
" style="fill:#ff0000;opacity:0.4;stroke:#1a1a1a;stroke-linejoin:miter;stroke-width:0.3;"/>
   </g>
   <g id="patch_120">
    <path clip-path="url(#pa656d18633)" d="M 1102.235 133.958984 
L 1113.576333 133.958984 
L 1113.576333 132.782326 
L 1102.235 132.782326 
z
" style="fill:#ff0000;opacity:0.4;stroke:#1a1a1a;stroke-linejoin:miter;stroke-width:0.3;"/>
   </g>
   <g id="patch_121">
    <path clip-path="url(#pa656d18633)" d="M 1116.411667 133.958984 
L 1127.753 133.958984 
L 1127.753 131.590773 
L 1116.411667 131.590773 
z
" style="fill:#ff0000;opacity:0.4;stroke:#1a1a1a;stroke-linejoin:miter;stroke-width:0.3;"/>
   </g>
   <g id="patch_122">
    <path clip-path="url(#pa656d18633)" d="M 1130.588333 133.958984 
L 1141.929667 133.958984 
L 1141.929667 128.844635 
L 1130.588333 128.844635 
z
" style="fill:#ff0000;opacity:0.4;stroke:#1a1a1a;stroke-linejoin:miter;stroke-width:0.3;"/>
   </g>
   <g id="patch_123">
    <path clip-path="url(#pa656d18633)" d="M 1144.765 133.958984 
L 1156.106333 133.958984 
L 1156.106333 123.822296 
L 1144.765 123.822296 
z
" style="fill:#ff0000;opacity:0.4;stroke:#1a1a1a;stroke-linejoin:miter;stroke-width:0.3;"/>
   </g>
   <g id="patch_124">
    <path clip-path="url(#pa656d18633)" d="M 1158.941667 133.958984 
L 1170.283 133.958984 
L 1170.283 115.610859 
L 1158.941667 115.610859 
z
" style="fill:#ff0000;opacity:0.4;stroke:#1a1a1a;stroke-linejoin:miter;stroke-width:0.3;"/>
   </g>
   <g id="patch_125">
    <path clip-path="url(#pa656d18633)" d="M 1173.118333 133.958984 
L 1184.459667 133.958984 
L 1184.459667 103.709927 
L 1173.118333 103.709927 
z
" style="fill:#ff0000;opacity:0.4;stroke:#1a1a1a;stroke-linejoin:miter;stroke-width:0.3;"/>
   </g>
   <g id="patch_126">
    <path clip-path="url(#pa656d18633)" d="M 1187.295 133.958984 
L 1198.636333 133.958984 
L 1198.636333 89.041019 
L 1187.295 89.041019 
z
" style="fill:#ff0000;opacity:0.4;stroke:#1a1a1a;stroke-linejoin:miter;stroke-width:0.3;"/>
   </g>
   <g id="patch_127">
    <path clip-path="url(#pa656d18633)" d="M 1201.471667 133.958984 
L 1212.813 133.958984 
L 1212.813 72.200207 
L 1201.471667 72.200207 
z
" style="fill:#ff0000;opacity:0.4;stroke:#1a1a1a;stroke-linejoin:miter;stroke-width:0.3;"/>
   </g>
   <g id="patch_128">
    <path clip-path="url(#pa656d18633)" d="M 1215.648333 133.958984 
L 1226.989667 133.958984 
L 1226.989667 54.040496 
L 1215.648333 54.040496 
z
" style="fill:#ff0000;opacity:0.4;stroke:#1a1a1a;stroke-linejoin:miter;stroke-width:0.3;"/>
   </g>
   <g id="patch_129">
    <path clip-path="url(#pa656d18633)" d="M 1229.825 133.958984 
L 1241.166333 133.958984 
L 1241.166333 37.716967 
L 1229.825 37.716967 
z
" style="fill:#ff0000;opacity:0.4;stroke:#1a1a1a;stroke-linejoin:miter;stroke-width:0.3;"/>
   </g>
   <g id="patch_130">
    <path clip-path="url(#pa656d18633)" d="M 1244.001667 133.958984 
L 1255.343 133.958984 
L 1255.343 28.529202 
L 1244.001667 28.529202 
z
" style="fill:#ff0000;opacity:0.4;stroke:#1a1a1a;stroke-linejoin:miter;stroke-width:0.3;"/>
   </g>
   <g id="patch_131">
    <path clip-path="url(#pa656d18633)" d="M 1258.178333 133.958984 
L 1269.519667 133.958984 
L 1269.519667 24.055219 
L 1258.178333 24.055219 
z
" style="fill:#ff0000;opacity:0.4;stroke:#1a1a1a;stroke-linejoin:miter;stroke-width:0.3;"/>
   </g>
   <g id="patch_132">
    <path clip-path="url(#pa656d18633)" d="M 1272.355 133.958984 
L 1283.696333 133.958984 
L 1283.696333 27.73101 
L 1272.355 27.73101 
z
" style="fill:#ff0000;opacity:0.4;stroke:#1a1a1a;stroke-linejoin:miter;stroke-width:0.3;"/>
   </g>
   <g id="patch_133">
    <path clip-path="url(#pa656d18633)" d="M 1286.531667 133.958984 
L 1297.873 133.958984 
L 1297.873 37.645027 
L 1286.531667 37.645027 
z
" style="fill:#ff0000;opacity:0.4;stroke:#1a1a1a;stroke-linejoin:miter;stroke-width:0.3;"/>
   </g>
   <g id="patch_134">
    <path clip-path="url(#pa656d18633)" d="M 1300.708333 133.958984 
L 1312.049667 133.958984 
L 1312.049667 50.864859 
L 1300.708333 50.864859 
z
" style="fill:#ff0000;opacity:0.4;stroke:#1a1a1a;stroke-linejoin:miter;stroke-width:0.3;"/>
   </g>
   <g id="patch_135">
    <path clip-path="url(#pa656d18633)" d="M 1314.885 133.958984 
L 1326.226333 133.958984 
L 1326.226333 62.09435 
L 1314.885 62.09435 
z
" style="fill:#ff0000;opacity:0.4;stroke:#1a1a1a;stroke-linejoin:miter;stroke-width:0.3;"/>
   </g>
   <g id="patch_136">
    <path clip-path="url(#pa656d18633)" d="M 1329.061667 133.958984 
L 1340.403 133.958984 
L 1340.403 69.894702 
L 1329.061667 69.894702 
z
" style="fill:#ff0000;opacity:0.4;stroke:#1a1a1a;stroke-linejoin:miter;stroke-width:0.3;"/>
   </g>
   <g id="patch_137">
    <path clip-path="url(#pa656d18633)" d="M 1343.238333 133.958984 
L 1354.579667 133.958984 
L 1354.579667 76.77011 
L 1343.238333 76.77011 
z
" style="fill:#ff0000;opacity:0.4;stroke:#1a1a1a;stroke-linejoin:miter;stroke-width:0.3;"/>
   </g>
   <g id="patch_138">
    <path clip-path="url(#pa656d18633)" d="M 1357.415 133.958984 
L 1368.756333 133.958984 
L 1368.756333 82.234124 
L 1357.415 82.234124 
z
" style="fill:#ff0000;opacity:0.4;stroke:#1a1a1a;stroke-linejoin:miter;stroke-width:0.3;"/>
   </g>
   <g id="patch_139">
    <path clip-path="url(#pa656d18633)" d="M 1371.591667 133.958984 
L 1382.933 133.958984 
L 1382.933 86.420347 
L 1371.591667 86.420347 
z
" style="fill:#ff0000;opacity:0.4;stroke:#1a1a1a;stroke-linejoin:miter;stroke-width:0.3;"/>
   </g>
   <g id="patch_140">
    <path clip-path="url(#pa656d18633)" d="M 1385.768333 133.958984 
L 1397.109667 133.958984 
L 1397.109667 88.989633 
L 1385.768333 88.989633 
z
" style="fill:#ff0000;opacity:0.4;stroke:#1a1a1a;stroke-linejoin:miter;stroke-width:0.3;"/>
   </g>
   <g id="patch_141">
    <path clip-path="url(#pa656d18633)" d="M 1399.945 133.958984 
L 1411.286333 133.958984 
L 1411.286333 89.609687 
L 1399.945 89.609687 
z
" style="fill:#ff0000;opacity:0.4;stroke:#1a1a1a;stroke-linejoin:miter;stroke-width:0.3;"/>
   </g>
   <g id="patch_142">
    <path clip-path="url(#pa656d18633)" d="M 1414.121667 133.958984 
L 1425.463 133.958984 
L 1425.463 91.380782 
L 1414.121667 91.380782 
z
" style="fill:#ff0000;opacity:0.4;stroke:#1a1a1a;stroke-linejoin:miter;stroke-width:0.3;"/>
   </g>
   <g id="patch_143">
    <path clip-path="url(#pa656d18633)" d="M 1428.298333 133.958984 
L 1439.639667 133.958984 
L 1439.639667 91.003953 
L 1428.298333 91.003953 
z
" style="fill:#ff0000;opacity:0.4;stroke:#1a1a1a;stroke-linejoin:miter;stroke-width:0.3;"/>
   </g>
   <g id="patch_144">
    <path clip-path="url(#pa656d18633)" d="M 1073.881667 133.958984 
L 1085.223 133.958984 
L 1085.223 133.616413 
L 1073.881667 133.616413 
z
" style="fill:#0000ff;opacity:0.4;stroke:#1a1a1a;stroke-linejoin:miter;stroke-width:0.3;"/>
   </g>
   <g id="patch_145">
    <path clip-path="url(#pa656d18633)" d="M 1088.058333 133.958984 
L 1099.399667 133.958984 
L 1099.399667 133.436112 
L 1088.058333 133.436112 
z
" style="fill:#0000ff;opacity:0.4;stroke:#1a1a1a;stroke-linejoin:miter;stroke-width:0.3;"/>
   </g>
   <g id="patch_146">
    <path clip-path="url(#pa656d18633)" d="M 1102.235 133.958984 
L 1113.576333 133.958984 
L 1113.576333 133.022156 
L 1102.235 133.022156 
z
" style="fill:#0000ff;opacity:0.4;stroke:#1a1a1a;stroke-linejoin:miter;stroke-width:0.3;"/>
   </g>
   <g id="patch_147">
    <path clip-path="url(#pa656d18633)" d="M 1116.411667 133.958984 
L 1127.753 133.958984 
L 1127.753 132.280384 
L 1116.411667 132.280384 
z
" style="fill:#0000ff;opacity:0.4;stroke:#1a1a1a;stroke-linejoin:miter;stroke-width:0.3;"/>
   </g>
   <g id="patch_148">
    <path clip-path="url(#pa656d18633)" d="M 1130.588333 133.958984 
L 1141.929667 133.958984 
L 1141.929667 130.568226 
L 1130.588333 130.568226 
z
" style="fill:#0000ff;opacity:0.4;stroke:#1a1a1a;stroke-linejoin:miter;stroke-width:0.3;"/>
   </g>
   <g id="patch_149">
    <path clip-path="url(#pa656d18633)" d="M 1144.765 133.958984 
L 1156.106333 133.958984 
L 1156.106333 126.737579 
L 1144.765 126.737579 
z
" style="fill:#0000ff;opacity:0.4;stroke:#1a1a1a;stroke-linejoin:miter;stroke-width:0.3;"/>
   </g>
   <g id="patch_150">
    <path clip-path="url(#pa656d18633)" d="M 1158.941667 133.958984 
L 1170.283 133.958984 
L 1170.283 120.095119 
L 1158.941667 120.095119 
z
" style="fill:#0000ff;opacity:0.4;stroke:#1a1a1a;stroke-linejoin:miter;stroke-width:0.3;"/>
   </g>
   <g id="patch_151">
    <path clip-path="url(#pa656d18633)" d="M 1173.118333 133.958984 
L 1184.459667 133.958984 
L 1184.459667 111.551387 
L 1173.118333 111.551387 
z
" style="fill:#0000ff;opacity:0.4;stroke:#1a1a1a;stroke-linejoin:miter;stroke-width:0.3;"/>
   </g>
   <g id="patch_152">
    <path clip-path="url(#pa656d18633)" d="M 1187.295 133.958984 
L 1198.636333 133.958984 
L 1198.636333 99.266776 
L 1187.295 99.266776 
z
" style="fill:#0000ff;opacity:0.4;stroke:#1a1a1a;stroke-linejoin:miter;stroke-width:0.3;"/>
   </g>
   <g id="patch_153">
    <path clip-path="url(#pa656d18633)" d="M 1201.471667 133.958984 
L 1212.813 133.958984 
L 1212.813 84.614996 
L 1201.471667 84.614996 
z
" style="fill:#0000ff;opacity:0.4;stroke:#1a1a1a;stroke-linejoin:miter;stroke-width:0.3;"/>
   </g>
   <g id="patch_154">
    <path clip-path="url(#pa656d18633)" d="M 1215.648333 133.958984 
L 1226.989667 133.958984 
L 1226.989667 67.318564 
L 1215.648333 67.318564 
z
" style="fill:#0000ff;opacity:0.4;stroke:#1a1a1a;stroke-linejoin:miter;stroke-width:0.3;"/>
   </g>
   <g id="patch_155">
    <path clip-path="url(#pa656d18633)" d="M 1229.825 133.958984 
L 1241.166333 133.958984 
L 1241.166333 52.228293 
L 1229.825 52.228293 
z
" style="fill:#0000ff;opacity:0.4;stroke:#1a1a1a;stroke-linejoin:miter;stroke-width:0.3;"/>
   </g>
   <g id="patch_156">
    <path clip-path="url(#pa656d18633)" d="M 1244.001667 133.958984 
L 1255.343 133.958984 
L 1255.343 40.779556 
L 1244.001667 40.779556 
z
" style="fill:#0000ff;opacity:0.4;stroke:#1a1a1a;stroke-linejoin:miter;stroke-width:0.3;"/>
   </g>
   <g id="patch_157">
    <path clip-path="url(#pa656d18633)" d="M 1258.178333 133.958984 
L 1269.519667 133.958984 
L 1269.519667 35.075742 
L 1258.178333 35.075742 
z
" style="fill:#0000ff;opacity:0.4;stroke:#1a1a1a;stroke-linejoin:miter;stroke-width:0.3;"/>
   </g>
   <g id="patch_158">
    <path clip-path="url(#pa656d18633)" d="M 1272.355 133.958984 
L 1283.696333 133.958984 
L 1283.696333 34.568736 
L 1272.355 34.568736 
z
" style="fill:#0000ff;opacity:0.4;stroke:#1a1a1a;stroke-linejoin:miter;stroke-width:0.3;"/>
   </g>
   <g id="patch_159">
    <path clip-path="url(#pa656d18633)" d="M 1286.531667 133.958984 
L 1297.873 133.958984 
L 1297.873 39.827207 
L 1286.531667 39.827207 
z
" style="fill:#0000ff;opacity:0.4;stroke:#1a1a1a;stroke-linejoin:miter;stroke-width:0.3;"/>
   </g>
   <g id="patch_160">
    <path clip-path="url(#pa656d18633)" d="M 1300.708333 133.958984 
L 1312.049667 133.958984 
L 1312.049667 50.166013 
L 1300.708333 50.166013 
z
" style="fill:#0000ff;opacity:0.4;stroke:#1a1a1a;stroke-linejoin:miter;stroke-width:0.3;"/>
   </g>
   <g id="patch_161">
    <path clip-path="url(#pa656d18633)" d="M 1314.885 133.958984 
L 1326.226333 133.958984 
L 1326.226333 57.620367 
L 1314.885 57.620367 
z
" style="fill:#0000ff;opacity:0.4;stroke:#1a1a1a;stroke-linejoin:miter;stroke-width:0.3;"/>
   </g>
   <g id="patch_162">
    <path clip-path="url(#pa656d18633)" d="M 1329.061667 133.958984 
L 1340.403 133.958984 
L 1340.403 63.543427 
L 1329.061667 63.543427 
z
" style="fill:#0000ff;opacity:0.4;stroke:#1a1a1a;stroke-linejoin:miter;stroke-width:0.3;"/>
   </g>
   <g id="patch_163">
    <path clip-path="url(#pa656d18633)" d="M 1343.238333 133.958984 
L 1354.579667 133.958984 
L 1354.579667 68.921799 
L 1343.238333 68.921799 
z
" style="fill:#0000ff;opacity:0.4;stroke:#1a1a1a;stroke-linejoin:miter;stroke-width:0.3;"/>
   </g>
   <g id="patch_164">
    <path clip-path="url(#pa656d18633)" d="M 1357.415 133.958984 
L 1368.756333 133.958984 
L 1368.756333 74.42007 
L 1357.415 74.42007 
z
" style="fill:#0000ff;opacity:0.4;stroke:#1a1a1a;stroke-linejoin:miter;stroke-width:0.3;"/>
   </g>
   <g id="patch_165">
    <path clip-path="url(#pa656d18633)" d="M 1371.591667 133.958984 
L 1382.933 133.958984 
L 1382.933 76.862604 
L 1371.591667 76.862604 
z
" style="fill:#0000ff;opacity:0.4;stroke:#1a1a1a;stroke-linejoin:miter;stroke-width:0.3;"/>
   </g>
   <g id="patch_166">
    <path clip-path="url(#pa656d18633)" d="M 1385.768333 133.958984 
L 1397.109667 133.958984 
L 1397.109667 78.311682 
L 1385.768333 78.311682 
z
" style="fill:#0000ff;opacity:0.4;stroke:#1a1a1a;stroke-linejoin:miter;stroke-width:0.3;"/>
   </g>
   <g id="patch_167">
    <path clip-path="url(#pa656d18633)" d="M 1399.945 133.958984 
L 1411.286333 133.958984 
L 1411.286333 79.31199 
L 1399.945 79.31199 
z
" style="fill:#0000ff;opacity:0.4;stroke:#1a1a1a;stroke-linejoin:miter;stroke-width:0.3;"/>
   </g>
   <g id="patch_168">
    <path clip-path="url(#pa656d18633)" d="M 1414.121667 133.958984 
L 1425.463 133.958984 
L 1425.463 78.116416 
L 1414.121667 78.116416 
z
" style="fill:#0000ff;opacity:0.4;stroke:#1a1a1a;stroke-linejoin:miter;stroke-width:0.3;"/>
   </g>
   <g id="patch_169">
    <path clip-path="url(#pa656d18633)" d="M 1428.298333 133.958984 
L 1439.639667 133.958984 
L 1439.639667 76.588547 
L 1428.298333 76.588547 
z
" style="fill:#0000ff;opacity:0.4;stroke:#1a1a1a;stroke-linejoin:miter;stroke-width:0.3;"/>
   </g>
   <g id="patch_170">
    <path d="M 1017.175 14.058984 
L 1442.475 14.058984 
" style="fill:none;stroke:#262626;stroke-linecap:square;stroke-linejoin:miter;stroke-width:1.25;"/>
   </g>
   <g id="patch_171">
    <path d="M 1442.475 133.958984 
L 1442.475 14.058984 
" style="fill:none;stroke:#262626;stroke-linecap:square;stroke-linejoin:miter;stroke-width:1.25;"/>
   </g>
   <g id="patch_172">
    <path d="M 1017.175 133.958984 
L 1442.475 133.958984 
" style="fill:none;stroke:#262626;stroke-linecap:square;stroke-linejoin:miter;stroke-width:1.25;"/>
   </g>
   <g id="patch_173">
    <path d="M 1017.175 133.958984 
L 1017.175 14.058984 
" style="fill:none;stroke:#262626;stroke-linecap:square;stroke-linejoin:miter;stroke-width:1.25;"/>
   </g>
   <g id="text_47">
    <!-- k=5, c=20 -->
    <g style="fill:#262626;" transform="translate(1025.681 36.785703125)scale(0.15 -0.15)">
     <use xlink:href="#ArialMT-6b"/>
     <use x="50.0" xlink:href="#ArialMT-3d"/>
     <use x="108.3984375" xlink:href="#ArialMT-35"/>
     <use x="164.013671875" xlink:href="#ArialMT-2c"/>
     <use x="191.796875" xlink:href="#ArialMT-20"/>
     <use x="219.580078125" xlink:href="#ArialMT-63"/>
     <use x="269.580078125" xlink:href="#ArialMT-3d"/>
     <use x="327.978515625" xlink:href="#ArialMT-32"/>
     <use x="383.59375" xlink:href="#ArialMT-30"/>
    </g>
   </g>
  </g>
  <g id="text_48">
   <!-- Queue Length -->
   <defs>
    <path d="M 6.59375 0 
L 6.59375 71.578125 
L 15.375 71.578125 
L 15.375 45.90625 
Q 21.53125 53.03125 30.90625 53.03125 
Q 36.671875 53.03125 40.921875 50.75 
Q 45.171875 48.484375 47 44.484375 
Q 48.828125 40.484375 48.828125 32.859375 
L 48.828125 0 
L 40.046875 0 
L 40.046875 32.859375 
Q 40.046875 39.453125 37.1875 42.453125 
Q 34.328125 45.453125 29.109375 45.453125 
Q 25.203125 45.453125 21.75 43.421875 
Q 18.3125 41.40625 16.84375 37.9375 
Q 15.375 34.46875 15.375 28.375 
L 15.375 0 
z
" id="ArialMT-68"/>
    <path d="M 4.984375 -4.296875 
L 13.53125 -5.5625 
Q 14.0625 -9.515625 16.5 -11.328125 
Q 19.78125 -13.765625 25.4375 -13.765625 
Q 31.546875 -13.765625 34.859375 -11.328125 
Q 38.1875 -8.890625 39.359375 -4.5 
Q 40.046875 -1.8125 39.984375 6.78125 
Q 34.234375 0 25.640625 0 
Q 14.9375 0 9.078125 7.71875 
Q 3.21875 15.4375 3.21875 26.21875 
Q 3.21875 33.640625 5.90625 39.90625 
Q 8.59375 46.1875 13.6875 49.609375 
Q 18.796875 53.03125 25.6875 53.03125 
Q 34.859375 53.03125 40.828125 45.609375 
L 40.828125 51.859375 
L 48.921875 51.859375 
L 48.921875 7.03125 
Q 48.921875 -5.078125 46.453125 -10.125 
Q 44 -15.1875 38.640625 -18.109375 
Q 33.296875 -21.046875 25.484375 -21.046875 
Q 16.21875 -21.046875 10.5 -16.875 
Q 4.78125 -12.703125 4.984375 -4.296875 
M 12.25 26.859375 
Q 12.25 16.65625 16.296875 11.96875 
Q 20.359375 7.28125 26.46875 7.28125 
Q 32.515625 7.28125 36.609375 11.9375 
Q 40.71875 16.609375 40.71875 26.5625 
Q 40.71875 36.078125 36.5 40.90625 
Q 32.28125 45.75 26.3125 45.75 
Q 20.453125 45.75 16.34375 40.984375 
Q 12.25 36.234375 12.25 26.859375 
" id="ArialMT-67"/>
    <path d="M 42.09375 16.703125 
L 51.171875 15.578125 
Q 49.03125 7.625 43.21875 3.21875 
Q 37.40625 -1.171875 28.375 -1.171875 
Q 17 -1.171875 10.328125 5.828125 
Q 3.65625 12.84375 3.65625 25.484375 
Q 3.65625 38.578125 10.390625 45.796875 
Q 17.140625 53.03125 27.875 53.03125 
Q 38.28125 53.03125 44.875 45.953125 
Q 51.46875 38.875 51.46875 26.03125 
Q 51.46875 25.25 51.421875 23.6875 
L 12.75 23.6875 
Q 13.234375 15.140625 17.578125 10.59375 
Q 21.921875 6.0625 28.421875 6.0625 
Q 33.25 6.0625 36.671875 8.59375 
Q 40.09375 11.140625 42.09375 16.703125 
M 13.234375 30.90625 
L 42.1875 30.90625 
Q 41.609375 37.453125 38.875 40.71875 
Q 34.671875 45.796875 27.984375 45.796875 
Q 21.921875 45.796875 17.796875 41.75 
Q 13.671875 37.703125 13.234375 30.90625 
" id="ArialMT-65"/>
    <path d="M 25.78125 7.859375 
L 27.046875 0.09375 
Q 23.34375 -0.6875 20.40625 -0.6875 
Q 15.625 -0.6875 12.984375 0.828125 
Q 10.359375 2.34375 9.28125 4.8125 
Q 8.203125 7.28125 8.203125 15.1875 
L 8.203125 45.015625 
L 1.765625 45.015625 
L 1.765625 51.859375 
L 8.203125 51.859375 
L 8.203125 64.703125 
L 16.9375 69.96875 
L 16.9375 51.859375 
L 25.78125 51.859375 
L 25.78125 45.015625 
L 16.9375 45.015625 
L 16.9375 14.703125 
Q 16.9375 10.9375 17.40625 9.859375 
Q 17.875 8.796875 18.921875 8.15625 
Q 19.96875 7.515625 21.921875 7.515625 
Q 23.390625 7.515625 25.78125 7.859375 
" id="ArialMT-74"/>
    <path d="M 40.578125 0 
L 40.578125 7.625 
Q 34.515625 -1.171875 24.125 -1.171875 
Q 19.53125 -1.171875 15.546875 0.578125 
Q 11.578125 2.34375 9.640625 5 
Q 7.71875 7.671875 6.9375 11.53125 
Q 6.390625 14.109375 6.390625 19.734375 
L 6.390625 51.859375 
L 15.1875 51.859375 
L 15.1875 23.09375 
Q 15.1875 16.21875 15.71875 13.8125 
Q 16.546875 10.359375 19.234375 8.375 
Q 21.921875 6.390625 25.875 6.390625 
Q 29.828125 6.390625 33.296875 8.421875 
Q 36.765625 10.453125 38.203125 13.9375 
Q 39.65625 17.4375 39.65625 24.078125 
L 39.65625 51.859375 
L 48.4375 51.859375 
L 48.4375 0 
z
" id="ArialMT-75"/>
    <path d="M 61.96875 7.671875 
Q 68.5625 3.125 74.125 1.03125 
L 71.34375 -5.5625 
Q 63.625 -2.78125 55.953125 3.21875 
Q 48 -1.21875 38.375 -1.21875 
Q 28.65625 -1.21875 20.75 3.46875 
Q 12.84375 8.15625 8.5625 16.640625 
Q 4.296875 25.140625 4.296875 35.796875 
Q 4.296875 46.390625 8.59375 55.078125 
Q 12.890625 63.765625 20.828125 68.3125 
Q 28.765625 72.859375 38.578125 72.859375 
Q 48.484375 72.859375 56.4375 68.140625 
Q 64.40625 63.421875 68.578125 54.953125 
Q 72.75 46.484375 72.75 35.84375 
Q 72.75 27 70.0625 19.9375 
Q 67.390625 12.890625 61.96875 7.671875 
M 41.109375 19.78125 
Q 49.3125 17.484375 54.640625 12.9375 
Q 62.984375 20.5625 62.984375 35.84375 
Q 62.984375 44.53125 60.03125 51.015625 
Q 57.078125 57.515625 51.390625 61.109375 
Q 45.703125 64.703125 38.625 64.703125 
Q 28.03125 64.703125 21.046875 57.453125 
Q 14.0625 50.203125 14.0625 35.796875 
Q 14.0625 21.828125 20.96875 14.359375 
Q 27.875 6.890625 38.625 6.890625 
Q 43.703125 6.890625 48.1875 8.796875 
Q 43.75 11.671875 38.8125 12.890625 
z
" id="ArialMT-51"/>
    <path d="M 6.59375 0 
L 6.59375 51.859375 
L 14.5 51.859375 
L 14.5 44.484375 
Q 20.21875 53.03125 31 53.03125 
Q 35.6875 53.03125 39.625 51.34375 
Q 43.5625 49.65625 45.515625 46.921875 
Q 47.46875 44.1875 48.25 40.4375 
Q 48.734375 37.984375 48.734375 31.890625 
L 48.734375 0 
L 39.9375 0 
L 39.9375 31.546875 
Q 39.9375 36.921875 38.90625 39.578125 
Q 37.890625 42.234375 35.28125 43.8125 
Q 32.671875 45.40625 29.15625 45.40625 
Q 23.53125 45.40625 19.453125 41.84375 
Q 15.375 38.28125 15.375 28.328125 
L 15.375 0 
z
" id="ArialMT-6e"/>
    <path d="M 7.328125 0 
L 7.328125 71.578125 
L 16.796875 71.578125 
L 16.796875 8.453125 
L 52.046875 8.453125 
L 52.046875 0 
z
" id="ArialMT-4c"/>
   </defs>
   <g style="fill:#262626;" transform="translate(678.2171875 167.418984375)scale(0.2 -0.2)">
    <use xlink:href="#ArialMT-51"/>
    <use x="77.783203125" xlink:href="#ArialMT-75"/>
    <use x="133.3984375" xlink:href="#ArialMT-65"/>
    <use x="189.013671875" xlink:href="#ArialMT-75"/>
    <use x="244.62890625" xlink:href="#ArialMT-65"/>
    <use x="300.244140625" xlink:href="#ArialMT-20"/>
    <use x="328.02734375" xlink:href="#ArialMT-4c"/>
    <use x="383.642578125" xlink:href="#ArialMT-65"/>
    <use x="439.2578125" xlink:href="#ArialMT-6e"/>
    <use x="494.873046875" xlink:href="#ArialMT-67"/>
    <use x="550.48828125" xlink:href="#ArialMT-74"/>
    <use x="578.271484375" xlink:href="#ArialMT-68"/>
   </g>
  </g>
  <g id="text_49">
   <!-- Frequency -->
   <defs>
    <path d="M 6.203125 -19.96875 
L 5.21875 -11.71875 
Q 8.109375 -12.5 10.25 -12.5 
Q 13.1875 -12.5 14.9375 -11.515625 
Q 16.703125 -10.546875 17.828125 -8.796875 
Q 18.65625 -7.46875 20.515625 -2.25 
Q 20.75 -1.515625 21.296875 -0.09375 
L 1.609375 51.859375 
L 11.078125 51.859375 
L 21.875 21.828125 
Q 23.96875 16.109375 25.640625 9.8125 
Q 27.15625 15.875 29.25 21.625 
L 40.328125 51.859375 
L 49.125 51.859375 
L 29.390625 -0.875 
Q 26.21875 -9.421875 24.46875 -12.640625 
Q 22.125 -17 19.09375 -19.015625 
Q 16.0625 -21.046875 11.859375 -21.046875 
Q 9.328125 -21.046875 6.203125 -19.96875 
" id="ArialMT-79"/>
    <path d="M 39.65625 -19.875 
L 39.65625 5.515625 
Q 37.59375 2.640625 33.90625 0.734375 
Q 30.21875 -1.171875 26.078125 -1.171875 
Q 16.84375 -1.171875 10.171875 6.203125 
Q 3.515625 13.578125 3.515625 26.421875 
Q 3.515625 34.234375 6.21875 40.421875 
Q 8.9375 46.625 14.078125 49.828125 
Q 19.234375 53.03125 25.390625 53.03125 
Q 35.015625 53.03125 40.53125 44.921875 
L 40.53125 51.859375 
L 48.4375 51.859375 
L 48.4375 -19.875 
z
M 12.546875 26.078125 
Q 12.546875 16.0625 16.75 11.0625 
Q 20.953125 6.0625 26.8125 6.0625 
Q 32.421875 6.0625 36.46875 10.8125 
Q 40.53125 15.578125 40.53125 25.296875 
Q 40.53125 35.640625 36.25 40.859375 
Q 31.984375 46.09375 26.21875 46.09375 
Q 20.515625 46.09375 16.53125 41.234375 
Q 12.546875 36.375 12.546875 26.078125 
" id="ArialMT-71"/>
    <path d="M 6.5 0 
L 6.5 51.859375 
L 14.40625 51.859375 
L 14.40625 44 
Q 17.4375 49.515625 20 51.265625 
Q 22.5625 53.03125 25.640625 53.03125 
Q 30.078125 53.03125 34.671875 50.203125 
L 31.640625 42.046875 
Q 28.421875 43.953125 25.203125 43.953125 
Q 22.3125 43.953125 20.015625 42.21875 
Q 17.71875 40.484375 16.75 37.40625 
Q 15.28125 32.71875 15.28125 27.15625 
L 15.28125 0 
z
" id="ArialMT-72"/>
    <path d="M 8.203125 0 
L 8.203125 71.578125 
L 56.5 71.578125 
L 56.5 63.140625 
L 17.671875 63.140625 
L 17.671875 40.96875 
L 51.265625 40.96875 
L 51.265625 32.515625 
L 17.671875 32.515625 
L 17.671875 0 
z
" id="ArialMT-46"/>
   </defs>
   <g style="fill:#262626;" transform="translate(21.515625 104.501171875)rotate(-90.0)scale(0.2 -0.2)">
    <use xlink:href="#ArialMT-46"/>
    <use x="61.083984375" xlink:href="#ArialMT-72"/>
    <use x="94.384765625" xlink:href="#ArialMT-65"/>
    <use x="150.0" xlink:href="#ArialMT-71"/>
    <use x="205.615234375" xlink:href="#ArialMT-75"/>
    <use x="261.23046875" xlink:href="#ArialMT-65"/>
    <use x="316.845703125" xlink:href="#ArialMT-6e"/>
    <use x="372.4609375" xlink:href="#ArialMT-63"/>
    <use x="422.4609375" xlink:href="#ArialMT-79"/>
   </g>
  </g>
 </g>
 <defs>
  <clipPath id="pa656d18633">
   <rect height="119.9" width="425.3" x="1017.175" y="14.058984375"/>
  </clipPath>
  <clipPath id="p446a961505">
   <rect height="119.9" width="425.3" x="540.775" y="14.058984375"/>
  </clipPath>
  <clipPath id="p5b4226d205">
   <rect height="119.9" width="425.3" x="64.375" y="14.058984375"/>
  </clipPath>
 </defs>
</svg>
