<?xml version="1.0" encoding="utf-8" standalone="no"?>
<!DOCTYPE svg PUBLIC "-//W3C//DTD SVG 1.1//EN"
  "http://www.w3.org/Graphics/SVG/1.1/DTD/svg11.dtd">
<!-- Created with matplotlib (http://matplotlib.org/) -->
<svg height="656pt" version="1.1" viewBox="0 0 1179 656" width="1179pt" xmlns="http://www.w3.org/2000/svg" xmlns:xlink="http://www.w3.org/1999/xlink">
 <defs>
  <style type="text/css">
*{stroke-linecap:butt;stroke-linejoin:round;stroke-miterlimit:100000;}
  </style>
 </defs>
 <g id="figure_1">
  <g id="patch_1">
   <path d="M 0 656.323437 
L 1179.103516 656.323437 
L 1179.103516 0 
L 0 0 
L 0 656.323437 
z
" style="fill:none;"/>
  </g>
  <g id="axes_1">
   <g id="patch_2">
    <path d="M 43.391406 595.252344 
L 1159.391406 595.252344 
L 1159.391406 37.252344 
L 43.391406 37.252344 
L 43.391406 595.252344 
z
" style="fill:none;"/>
   </g>
   <g id="matplotlib.axis_1">
    <g id="xtick_1">
     <g id="line2d_1">
      <defs>
       <path d="M 0 0 
L 0 0 
" id="m63561991a4" style="stroke:#262626;"/>
      </defs>
      <g>
       <use style="fill:#262626;stroke:#262626;" x="43.39140625" xlink:href="#m63561991a4" y="595.25234375"/>
      </g>
     </g>
     <g id="line2d_2">
      <g>
       <use style="fill:#262626;stroke:#262626;" x="43.39140625" xlink:href="#m63561991a4" y="37.25234375"/>
      </g>
     </g>
     <g id="text_1">
      <!-- 0 -->
      <defs>
       <path d="M 4.15625 35.296875 
Q 4.15625 48 6.765625 55.734375 
Q 9.375 63.484375 14.515625 67.671875 
Q 19.671875 71.875 27.484375 71.875 
Q 33.25 71.875 37.59375 69.546875 
Q 41.9375 67.234375 44.765625 62.859375 
Q 47.609375 58.5 49.21875 52.21875 
Q 50.828125 45.953125 50.828125 35.296875 
Q 50.828125 22.703125 48.234375 14.96875 
Q 45.65625 7.234375 40.5 3 
Q 35.359375 -1.21875 27.484375 -1.21875 
Q 17.140625 -1.21875 11.234375 6.203125 
Q 4.15625 15.140625 4.15625 35.296875 
M 13.1875 35.296875 
Q 13.1875 17.671875 17.3125 11.828125 
Q 21.4375 6 27.484375 6 
Q 33.546875 6 37.671875 11.859375 
Q 41.796875 17.71875 41.796875 35.296875 
Q 41.796875 52.984375 37.671875 58.78125 
Q 33.546875 64.59375 27.390625 64.59375 
Q 21.34375 64.59375 17.71875 59.46875 
Q 13.1875 52.9375 13.1875 35.296875 
" id="ArialMT-30"/>
      </defs>
      <g style="fill:#262626;" transform="translate(39.220703125 612.9890625)scale(0.15 -0.15)">
       <use xlink:href="#ArialMT-30"/>
      </g>
     </g>
    </g>
    <g id="xtick_2">
     <g id="line2d_3">
      <g>
       <use style="fill:#262626;stroke:#262626;" x="266.59140625" xlink:href="#m63561991a4" y="595.25234375"/>
      </g>
     </g>
     <g id="line2d_4">
      <g>
       <use style="fill:#262626;stroke:#262626;" x="266.59140625" xlink:href="#m63561991a4" y="37.25234375"/>
      </g>
     </g>
     <g id="text_2">
      <!-- 20 -->
      <defs>
       <path d="M 50.34375 8.453125 
L 50.34375 0 
L 3.03125 0 
Q 2.9375 3.171875 4.046875 6.109375 
Q 5.859375 10.9375 9.828125 15.625 
Q 13.8125 20.3125 21.34375 26.46875 
Q 33.015625 36.03125 37.109375 41.625 
Q 41.21875 47.21875 41.21875 52.203125 
Q 41.21875 57.421875 37.46875 61 
Q 33.734375 64.59375 27.734375 64.59375 
Q 21.390625 64.59375 17.578125 60.78125 
Q 13.765625 56.984375 13.71875 50.25 
L 4.6875 51.171875 
Q 5.609375 61.28125 11.65625 66.578125 
Q 17.71875 71.875 27.9375 71.875 
Q 38.234375 71.875 44.234375 66.15625 
Q 50.25 60.453125 50.25 52 
Q 50.25 47.703125 48.484375 43.546875 
Q 46.734375 39.40625 42.65625 34.8125 
Q 38.578125 30.21875 29.109375 22.21875 
Q 21.1875 15.578125 18.9375 13.203125 
Q 16.703125 10.84375 15.234375 8.453125 
z
" id="ArialMT-32"/>
      </defs>
      <g style="fill:#262626;" transform="translate(258.25 612.9890625)scale(0.15 -0.15)">
       <use xlink:href="#ArialMT-32"/>
       <use x="55.615234375" xlink:href="#ArialMT-30"/>
      </g>
     </g>
    </g>
    <g id="xtick_3">
     <g id="line2d_5">
      <g>
       <use style="fill:#262626;stroke:#262626;" x="489.79140625" xlink:href="#m63561991a4" y="595.25234375"/>
      </g>
     </g>
     <g id="line2d_6">
      <g>
       <use style="fill:#262626;stroke:#262626;" x="489.79140625" xlink:href="#m63561991a4" y="37.25234375"/>
      </g>
     </g>
     <g id="text_3">
      <!-- 40 -->
      <defs>
       <path d="M 32.328125 0 
L 32.328125 17.140625 
L 1.265625 17.140625 
L 1.265625 25.203125 
L 33.9375 71.578125 
L 41.109375 71.578125 
L 41.109375 25.203125 
L 50.78125 25.203125 
L 50.78125 17.140625 
L 41.109375 17.140625 
L 41.109375 0 
z
M 32.328125 25.203125 
L 32.328125 57.46875 
L 9.90625 25.203125 
z
" id="ArialMT-34"/>
      </defs>
      <g style="fill:#262626;" transform="translate(481.45 612.9890625)scale(0.15 -0.15)">
       <use xlink:href="#ArialMT-34"/>
       <use x="55.615234375" xlink:href="#ArialMT-30"/>
      </g>
     </g>
    </g>
    <g id="xtick_4">
     <g id="line2d_7">
      <g>
       <use style="fill:#262626;stroke:#262626;" x="712.99140625" xlink:href="#m63561991a4" y="595.25234375"/>
      </g>
     </g>
     <g id="line2d_8">
      <g>
       <use style="fill:#262626;stroke:#262626;" x="712.99140625" xlink:href="#m63561991a4" y="37.25234375"/>
      </g>
     </g>
     <g id="text_4">
      <!-- 60 -->
      <defs>
       <path d="M 49.75 54.046875 
L 41.015625 53.375 
Q 39.84375 58.546875 37.703125 60.890625 
Q 34.125 64.65625 28.90625 64.65625 
Q 24.703125 64.65625 21.53125 62.3125 
Q 17.390625 59.28125 14.984375 53.46875 
Q 12.59375 47.65625 12.5 36.921875 
Q 15.671875 41.75 20.265625 44.09375 
Q 24.859375 46.4375 29.890625 46.4375 
Q 38.671875 46.4375 44.84375 39.96875 
Q 51.03125 33.5 51.03125 23.25 
Q 51.03125 16.5 48.125 10.71875 
Q 45.21875 4.9375 40.140625 1.859375 
Q 35.0625 -1.21875 28.609375 -1.21875 
Q 17.625 -1.21875 10.6875 6.859375 
Q 3.765625 14.9375 3.765625 33.5 
Q 3.765625 54.25 11.421875 63.671875 
Q 18.109375 71.875 29.4375 71.875 
Q 37.890625 71.875 43.28125 67.140625 
Q 48.6875 62.40625 49.75 54.046875 
M 13.875 23.1875 
Q 13.875 18.65625 15.796875 14.5 
Q 17.71875 10.359375 21.1875 8.171875 
Q 24.65625 6 28.46875 6 
Q 34.03125 6 38.03125 10.484375 
Q 42.046875 14.984375 42.046875 22.703125 
Q 42.046875 30.125 38.078125 34.390625 
Q 34.125 38.671875 28.125 38.671875 
Q 22.171875 38.671875 18.015625 34.390625 
Q 13.875 30.125 13.875 23.1875 
" id="ArialMT-36"/>
      </defs>
      <g style="fill:#262626;" transform="translate(704.65 612.9890625)scale(0.15 -0.15)">
       <use xlink:href="#ArialMT-36"/>
       <use x="55.615234375" xlink:href="#ArialMT-30"/>
      </g>
     </g>
    </g>
    <g id="xtick_5">
     <g id="line2d_9">
      <g>
       <use style="fill:#262626;stroke:#262626;" x="936.19140625" xlink:href="#m63561991a4" y="595.25234375"/>
      </g>
     </g>
     <g id="line2d_10">
      <g>
       <use style="fill:#262626;stroke:#262626;" x="936.19140625" xlink:href="#m63561991a4" y="37.25234375"/>
      </g>
     </g>
     <g id="text_5">
      <!-- 80 -->
      <defs>
       <path d="M 17.671875 38.8125 
Q 12.203125 40.828125 9.5625 44.53125 
Q 6.9375 48.25 6.9375 53.421875 
Q 6.9375 61.234375 12.546875 66.546875 
Q 18.171875 71.875 27.484375 71.875 
Q 36.859375 71.875 42.578125 66.421875 
Q 48.296875 60.984375 48.296875 53.171875 
Q 48.296875 48.1875 45.671875 44.5 
Q 43.0625 40.828125 37.75 38.8125 
Q 44.34375 36.671875 47.78125 31.875 
Q 51.21875 27.09375 51.21875 20.453125 
Q 51.21875 11.28125 44.71875 5.03125 
Q 38.234375 -1.21875 27.640625 -1.21875 
Q 17.046875 -1.21875 10.546875 5.046875 
Q 4.046875 11.328125 4.046875 20.703125 
Q 4.046875 27.6875 7.59375 32.390625 
Q 11.140625 37.109375 17.671875 38.8125 
M 15.921875 53.71875 
Q 15.921875 48.640625 19.1875 45.40625 
Q 22.46875 42.1875 27.6875 42.1875 
Q 32.765625 42.1875 36.015625 45.375 
Q 39.265625 48.578125 39.265625 53.21875 
Q 39.265625 58.0625 35.90625 61.359375 
Q 32.5625 64.65625 27.59375 64.65625 
Q 22.5625 64.65625 19.234375 61.421875 
Q 15.921875 58.203125 15.921875 53.71875 
M 13.09375 20.65625 
Q 13.09375 16.890625 14.875 13.375 
Q 16.65625 9.859375 20.171875 7.921875 
Q 23.6875 6 27.734375 6 
Q 34.03125 6 38.125 10.046875 
Q 42.234375 14.109375 42.234375 20.359375 
Q 42.234375 26.703125 38.015625 30.859375 
Q 33.796875 35.015625 27.4375 35.015625 
Q 21.234375 35.015625 17.15625 30.90625 
Q 13.09375 26.8125 13.09375 20.65625 
" id="ArialMT-38"/>
      </defs>
      <g style="fill:#262626;" transform="translate(927.85 612.9890625)scale(0.15 -0.15)">
       <use xlink:href="#ArialMT-38"/>
       <use x="55.615234375" xlink:href="#ArialMT-30"/>
      </g>
     </g>
    </g>
    <g id="xtick_6">
     <g id="line2d_11">
      <g>
       <use style="fill:#262626;stroke:#262626;" x="1159.39140625" xlink:href="#m63561991a4" y="595.25234375"/>
      </g>
     </g>
     <g id="line2d_12">
      <g>
       <use style="fill:#262626;stroke:#262626;" x="1159.39140625" xlink:href="#m63561991a4" y="37.25234375"/>
      </g>
     </g>
     <g id="text_6">
      <!-- 100 -->
      <defs>
       <path d="M 37.25 0 
L 28.46875 0 
L 28.46875 56 
Q 25.296875 52.984375 20.140625 49.953125 
Q 14.984375 46.921875 10.890625 45.40625 
L 10.890625 53.90625 
Q 18.265625 57.375 23.78125 62.296875 
Q 29.296875 67.234375 31.59375 71.875 
L 37.25 71.875 
z
" id="ArialMT-31"/>
      </defs>
      <g style="fill:#262626;" transform="translate(1146.87929688 612.9890625)scale(0.15 -0.15)">
       <use xlink:href="#ArialMT-31"/>
       <use x="55.615234375" xlink:href="#ArialMT-30"/>
       <use x="111.23046875" xlink:href="#ArialMT-30"/>
      </g>
     </g>
    </g>
    <g id="text_7">
     <!-- Length of Stay (days) -->
     <defs>
      <path d="M 40.4375 6.390625 
Q 35.546875 2.25 31.03125 0.53125 
Q 26.515625 -1.171875 21.34375 -1.171875 
Q 12.796875 -1.171875 8.203125 3 
Q 3.609375 7.171875 3.609375 13.671875 
Q 3.609375 17.484375 5.34375 20.625 
Q 7.078125 23.78125 9.890625 25.6875 
Q 12.703125 27.59375 16.21875 28.5625 
Q 18.796875 29.25 24.03125 29.890625 
Q 34.671875 31.15625 39.703125 32.90625 
Q 39.75 34.71875 39.75 35.203125 
Q 39.75 40.578125 37.25 42.78125 
Q 33.890625 45.75 27.25 45.75 
Q 21.046875 45.75 18.09375 43.578125 
Q 15.140625 41.40625 13.71875 35.890625 
L 5.125 37.0625 
Q 6.296875 42.578125 8.984375 45.96875 
Q 11.671875 49.359375 16.75 51.1875 
Q 21.828125 53.03125 28.515625 53.03125 
Q 35.15625 53.03125 39.296875 51.46875 
Q 43.453125 49.90625 45.40625 47.53125 
Q 47.359375 45.171875 48.140625 41.546875 
Q 48.578125 39.3125 48.578125 33.453125 
L 48.578125 21.734375 
Q 48.578125 9.46875 49.140625 6.21875 
Q 49.703125 2.984375 51.375 0 
L 42.1875 0 
Q 40.828125 2.734375 40.4375 6.390625 
M 39.703125 26.03125 
Q 34.90625 24.078125 25.34375 22.703125 
Q 19.921875 21.921875 17.671875 20.9375 
Q 15.4375 19.96875 14.203125 18.09375 
Q 12.984375 16.21875 12.984375 13.921875 
Q 12.984375 10.40625 15.640625 8.0625 
Q 18.3125 5.71875 23.4375 5.71875 
Q 28.515625 5.71875 32.46875 7.9375 
Q 36.421875 10.15625 38.28125 14.015625 
Q 39.703125 17 39.703125 22.796875 
z
" id="ArialMT-61"/>
      <path d="M 4.984375 -4.296875 
L 13.53125 -5.5625 
Q 14.0625 -9.515625 16.5 -11.328125 
Q 19.78125 -13.765625 25.4375 -13.765625 
Q 31.546875 -13.765625 34.859375 -11.328125 
Q 38.1875 -8.890625 39.359375 -4.5 
Q 40.046875 -1.8125 39.984375 6.78125 
Q 34.234375 0 25.640625 0 
Q 14.9375 0 9.078125 7.71875 
Q 3.21875 15.4375 3.21875 26.21875 
Q 3.21875 33.640625 5.90625 39.90625 
Q 8.59375 46.1875 13.6875 49.609375 
Q 18.796875 53.03125 25.6875 53.03125 
Q 34.859375 53.03125 40.828125 45.609375 
L 40.828125 51.859375 
L 48.921875 51.859375 
L 48.921875 7.03125 
Q 48.921875 -5.078125 46.453125 -10.125 
Q 44 -15.1875 38.640625 -18.109375 
Q 33.296875 -21.046875 25.484375 -21.046875 
Q 16.21875 -21.046875 10.5 -16.875 
Q 4.78125 -12.703125 4.984375 -4.296875 
M 12.25 26.859375 
Q 12.25 16.65625 16.296875 11.96875 
Q 20.359375 7.28125 26.46875 7.28125 
Q 32.515625 7.28125 36.609375 11.9375 
Q 40.71875 16.609375 40.71875 26.5625 
Q 40.71875 36.078125 36.5 40.90625 
Q 32.28125 45.75 26.3125 45.75 
Q 20.453125 45.75 16.34375 40.984375 
Q 12.25 36.234375 12.25 26.859375 
" id="ArialMT-67"/>
      <path d="M 8.6875 0 
L 8.6875 45.015625 
L 0.921875 45.015625 
L 0.921875 51.859375 
L 8.6875 51.859375 
L 8.6875 57.375 
Q 8.6875 62.59375 9.625 65.140625 
Q 10.890625 68.5625 14.078125 70.671875 
Q 17.28125 72.796875 23.046875 72.796875 
Q 26.765625 72.796875 31.25 71.921875 
L 29.9375 64.265625 
Q 27.203125 64.75 24.75 64.75 
Q 20.75 64.75 19.09375 63.03125 
Q 17.4375 61.328125 17.4375 56.640625 
L 17.4375 51.859375 
L 27.546875 51.859375 
L 27.546875 45.015625 
L 17.4375 45.015625 
L 17.4375 0 
z
" id="ArialMT-66"/>
      <path d="M 42.09375 16.703125 
L 51.171875 15.578125 
Q 49.03125 7.625 43.21875 3.21875 
Q 37.40625 -1.171875 28.375 -1.171875 
Q 17 -1.171875 10.328125 5.828125 
Q 3.65625 12.84375 3.65625 25.484375 
Q 3.65625 38.578125 10.390625 45.796875 
Q 17.140625 53.03125 27.875 53.03125 
Q 38.28125 53.03125 44.875 45.953125 
Q 51.46875 38.875 51.46875 26.03125 
Q 51.46875 25.25 51.421875 23.6875 
L 12.75 23.6875 
Q 13.234375 15.140625 17.578125 10.59375 
Q 21.921875 6.0625 28.421875 6.0625 
Q 33.25 6.0625 36.671875 8.59375 
Q 40.09375 11.140625 42.09375 16.703125 
M 13.234375 30.90625 
L 42.1875 30.90625 
Q 41.609375 37.453125 38.875 40.71875 
Q 34.671875 45.796875 27.984375 45.796875 
Q 21.921875 45.796875 17.796875 41.75 
Q 13.671875 37.703125 13.234375 30.90625 
" id="ArialMT-65"/>
      <path d="M 40.234375 0 
L 40.234375 6.546875 
Q 35.296875 -1.171875 25.734375 -1.171875 
Q 19.53125 -1.171875 14.328125 2.25 
Q 9.125 5.671875 6.265625 11.796875 
Q 3.421875 17.921875 3.421875 25.875 
Q 3.421875 33.640625 6 39.96875 
Q 8.59375 46.296875 13.765625 49.65625 
Q 18.953125 53.03125 25.34375 53.03125 
Q 30.03125 53.03125 33.6875 51.046875 
Q 37.359375 49.078125 39.65625 45.90625 
L 39.65625 71.578125 
L 48.390625 71.578125 
L 48.390625 0 
z
M 12.453125 25.875 
Q 12.453125 15.921875 16.640625 10.984375 
Q 20.84375 6.0625 26.5625 6.0625 
Q 32.328125 6.0625 36.34375 10.765625 
Q 40.375 15.484375 40.375 25.140625 
Q 40.375 35.796875 36.265625 40.765625 
Q 32.171875 45.75 26.171875 45.75 
Q 20.3125 45.75 16.375 40.96875 
Q 12.453125 36.1875 12.453125 25.875 
" id="ArialMT-64"/>
      <path d="M 25.78125 7.859375 
L 27.046875 0.09375 
Q 23.34375 -0.6875 20.40625 -0.6875 
Q 15.625 -0.6875 12.984375 0.828125 
Q 10.359375 2.34375 9.28125 4.8125 
Q 8.203125 7.28125 8.203125 15.1875 
L 8.203125 45.015625 
L 1.765625 45.015625 
L 1.765625 51.859375 
L 8.203125 51.859375 
L 8.203125 64.703125 
L 16.9375 69.96875 
L 16.9375 51.859375 
L 25.78125 51.859375 
L 25.78125 45.015625 
L 16.9375 45.015625 
L 16.9375 14.703125 
Q 16.9375 10.9375 17.40625 9.859375 
Q 17.875 8.796875 18.921875 8.15625 
Q 19.96875 7.515625 21.921875 7.515625 
Q 23.390625 7.515625 25.78125 7.859375 
" id="ArialMT-74"/>
      <path d="M 4.5 23 
L 13.421875 23.78125 
Q 14.0625 18.40625 16.375 14.96875 
Q 18.703125 11.53125 23.578125 9.40625 
Q 28.46875 7.28125 34.578125 7.28125 
Q 39.984375 7.28125 44.140625 8.890625 
Q 48.296875 10.5 50.3125 13.296875 
Q 52.34375 16.109375 52.34375 19.4375 
Q 52.34375 22.796875 50.390625 25.3125 
Q 48.4375 27.828125 43.953125 29.546875 
Q 41.0625 30.671875 31.203125 33.03125 
Q 21.34375 35.40625 17.390625 37.5 
Q 12.25 40.1875 9.734375 44.15625 
Q 7.234375 48.140625 7.234375 53.078125 
Q 7.234375 58.5 10.296875 63.203125 
Q 13.375 67.921875 19.28125 70.359375 
Q 25.203125 72.796875 32.421875 72.796875 
Q 40.375 72.796875 46.453125 70.234375 
Q 52.546875 67.671875 55.8125 62.6875 
Q 59.078125 57.71875 59.328125 51.421875 
L 50.25 50.734375 
Q 49.515625 57.515625 45.28125 60.984375 
Q 41.0625 64.453125 32.8125 64.453125 
Q 24.21875 64.453125 20.28125 61.296875 
Q 16.359375 58.15625 16.359375 53.71875 
Q 16.359375 49.859375 19.140625 47.359375 
Q 21.875 44.875 33.421875 42.265625 
Q 44.96875 39.65625 49.265625 37.703125 
Q 55.515625 34.8125 58.484375 30.390625 
Q 61.46875 25.984375 61.46875 20.21875 
Q 61.46875 14.5 58.203125 9.4375 
Q 54.9375 4.390625 48.796875 1.578125 
Q 42.671875 -1.21875 35.015625 -1.21875 
Q 25.296875 -1.21875 18.71875 1.609375 
Q 12.15625 4.4375 8.421875 10.125 
Q 4.6875 15.828125 4.5 23 
" id="ArialMT-53"/>
      <path d="M 6.59375 0 
L 6.59375 71.578125 
L 15.375 71.578125 
L 15.375 45.90625 
Q 21.53125 53.03125 30.90625 53.03125 
Q 36.671875 53.03125 40.921875 50.75 
Q 45.171875 48.484375 47 44.484375 
Q 48.828125 40.484375 48.828125 32.859375 
L 48.828125 0 
L 40.046875 0 
L 40.046875 32.859375 
Q 40.046875 39.453125 37.1875 42.453125 
Q 34.328125 45.453125 29.109375 45.453125 
Q 25.203125 45.453125 21.75 43.421875 
Q 18.3125 41.40625 16.84375 37.9375 
Q 15.375 34.46875 15.375 28.375 
L 15.375 0 
z
" id="ArialMT-68"/>
      <path d="M 6.203125 -19.96875 
L 5.21875 -11.71875 
Q 8.109375 -12.5 10.25 -12.5 
Q 13.1875 -12.5 14.9375 -11.515625 
Q 16.703125 -10.546875 17.828125 -8.796875 
Q 18.65625 -7.46875 20.515625 -2.25 
Q 20.75 -1.515625 21.296875 -0.09375 
L 1.609375 51.859375 
L 11.078125 51.859375 
L 21.875 21.828125 
Q 23.96875 16.109375 25.640625 9.8125 
Q 27.15625 15.875 29.25 21.625 
L 40.328125 51.859375 
L 49.125 51.859375 
L 29.390625 -0.875 
Q 26.21875 -9.421875 24.46875 -12.640625 
Q 22.125 -17 19.09375 -19.015625 
Q 16.0625 -21.046875 11.859375 -21.046875 
Q 9.328125 -21.046875 6.203125 -19.96875 
" id="ArialMT-79"/>
      <path d="M 12.359375 -21.046875 
L 6.0625 -21.046875 
Q 20.65625 2.390625 20.65625 25.875 
Q 20.65625 35.0625 18.5625 44.09375 
Q 16.890625 51.421875 13.921875 58.15625 
Q 12.015625 62.546875 6.0625 72.796875 
L 12.359375 72.796875 
Q 21.53125 60.546875 25.921875 48.1875 
Q 29.6875 37.546875 29.6875 25.921875 
Q 29.6875 12.75 24.625 0.4375 
Q 19.578125 -11.859375 12.359375 -21.046875 
" id="ArialMT-29"/>
      <path d="M 3.328125 25.921875 
Q 3.328125 40.328125 11.328125 47.265625 
Q 18.015625 53.03125 27.640625 53.03125 
Q 38.328125 53.03125 45.109375 46.015625 
Q 51.90625 39.015625 51.90625 26.65625 
Q 51.90625 16.65625 48.90625 10.90625 
Q 45.90625 5.171875 40.15625 2 
Q 34.421875 -1.171875 27.640625 -1.171875 
Q 16.75 -1.171875 10.03125 5.8125 
Q 3.328125 12.796875 3.328125 25.921875 
M 12.359375 25.921875 
Q 12.359375 15.96875 16.703125 11.015625 
Q 21.046875 6.0625 27.640625 6.0625 
Q 34.1875 6.0625 38.53125 11.03125 
Q 42.875 16.015625 42.875 26.21875 
Q 42.875 35.84375 38.5 40.796875 
Q 34.125 45.75 27.640625 45.75 
Q 21.046875 45.75 16.703125 40.8125 
Q 12.359375 35.890625 12.359375 25.921875 
" id="ArialMT-6f"/>
      <path d="M 6.59375 0 
L 6.59375 51.859375 
L 14.5 51.859375 
L 14.5 44.484375 
Q 20.21875 53.03125 31 53.03125 
Q 35.6875 53.03125 39.625 51.34375 
Q 43.5625 49.65625 45.515625 46.921875 
Q 47.46875 44.1875 48.25 40.4375 
Q 48.734375 37.984375 48.734375 31.890625 
L 48.734375 0 
L 39.9375 0 
L 39.9375 31.546875 
Q 39.9375 36.921875 38.90625 39.578125 
Q 37.890625 42.234375 35.28125 43.8125 
Q 32.671875 45.40625 29.15625 45.40625 
Q 23.53125 45.40625 19.453125 41.84375 
Q 15.375 38.28125 15.375 28.328125 
L 15.375 0 
z
" id="ArialMT-6e"/>
      <path d="M 23.390625 -21.046875 
Q 16.109375 -11.859375 11.078125 0.4375 
Q 6.0625 12.75 6.0625 25.921875 
Q 6.0625 37.546875 9.8125 48.1875 
Q 14.203125 60.546875 23.390625 72.796875 
L 29.6875 72.796875 
Q 23.78125 62.640625 21.875 58.296875 
Q 18.890625 51.5625 17.1875 44.234375 
Q 15.09375 35.109375 15.09375 25.875 
Q 15.09375 2.390625 29.6875 -21.046875 
z
" id="ArialMT-28"/>
      <path d="M 7.328125 0 
L 7.328125 71.578125 
L 16.796875 71.578125 
L 16.796875 8.453125 
L 52.046875 8.453125 
L 52.046875 0 
z
" id="ArialMT-4c"/>
      <path d="M 3.078125 15.484375 
L 11.765625 16.84375 
Q 12.5 11.625 15.84375 8.84375 
Q 19.1875 6.0625 25.203125 6.0625 
Q 31.25 6.0625 34.171875 8.515625 
Q 37.109375 10.984375 37.109375 14.3125 
Q 37.109375 17.28125 34.515625 19 
Q 32.71875 20.171875 25.53125 21.96875 
Q 15.875 24.421875 12.140625 26.203125 
Q 8.40625 27.984375 6.46875 31.125 
Q 4.546875 34.28125 4.546875 38.09375 
Q 4.546875 41.546875 6.125 44.5 
Q 7.71875 47.46875 10.453125 49.421875 
Q 12.5 50.921875 16.03125 51.96875 
Q 19.578125 53.03125 23.640625 53.03125 
Q 29.734375 53.03125 34.34375 51.265625 
Q 38.96875 49.515625 41.15625 46.5 
Q 43.359375 43.5 44.1875 38.484375 
L 35.59375 37.3125 
Q 35.015625 41.3125 32.203125 43.546875 
Q 29.390625 45.796875 24.265625 45.796875 
Q 18.21875 45.796875 15.625 43.796875 
Q 13.03125 41.796875 13.03125 39.109375 
Q 13.03125 37.40625 14.109375 36.03125 
Q 15.1875 34.625 17.484375 33.6875 
Q 18.796875 33.203125 25.25 31.453125 
Q 34.578125 28.953125 38.25 27.359375 
Q 41.9375 25.78125 44.03125 22.75 
Q 46.140625 19.734375 46.140625 15.234375 
Q 46.140625 10.84375 43.578125 6.953125 
Q 41.015625 3.078125 36.171875 0.953125 
Q 31.34375 -1.171875 25.25 -1.171875 
Q 15.140625 -1.171875 9.84375 3.03125 
Q 4.546875 7.234375 3.078125 15.484375 
" id="ArialMT-73"/>
      <path id="ArialMT-20"/>
     </defs>
     <g style="fill:#262626;" transform="translate(458.82109375 642.809375)scale(0.3 -0.3)">
      <use xlink:href="#ArialMT-4c"/>
      <use x="55.615234375" xlink:href="#ArialMT-65"/>
      <use x="111.23046875" xlink:href="#ArialMT-6e"/>
      <use x="166.845703125" xlink:href="#ArialMT-67"/>
      <use x="222.4609375" xlink:href="#ArialMT-74"/>
      <use x="250.244140625" xlink:href="#ArialMT-68"/>
      <use x="305.859375" xlink:href="#ArialMT-20"/>
      <use x="333.642578125" xlink:href="#ArialMT-6f"/>
      <use x="389.2578125" xlink:href="#ArialMT-66"/>
      <use x="417.041015625" xlink:href="#ArialMT-20"/>
      <use x="444.82421875" xlink:href="#ArialMT-53"/>
      <use x="511.5234375" xlink:href="#ArialMT-74"/>
      <use x="539.306640625" xlink:href="#ArialMT-61"/>
      <use x="594.921875" xlink:href="#ArialMT-79"/>
      <use x="644.921875" xlink:href="#ArialMT-20"/>
      <use x="672.705078125" xlink:href="#ArialMT-28"/>
      <use x="706.005859375" xlink:href="#ArialMT-64"/>
      <use x="761.62109375" xlink:href="#ArialMT-61"/>
      <use x="817.236328125" xlink:href="#ArialMT-79"/>
      <use x="867.236328125" xlink:href="#ArialMT-73"/>
      <use x="917.236328125" xlink:href="#ArialMT-29"/>
     </g>
    </g>
   </g>
   <g id="matplotlib.axis_2">
    <g id="ytick_1">
     <g id="line2d_13">
      <g>
       <use style="fill:#262626;stroke:#262626;" x="43.39140625" xlink:href="#m63561991a4" y="595.25234375"/>
      </g>
     </g>
     <g id="line2d_14">
      <g>
       <use style="fill:#262626;stroke:#262626;" x="1159.39140625" xlink:href="#m63561991a4" y="595.25234375"/>
      </g>
     </g>
     <g id="text_8">
      <!-- 0.00 -->
      <defs>
       <path d="M 9.078125 0 
L 9.078125 10.015625 
L 19.09375 10.015625 
L 19.09375 0 
z
" id="ArialMT-2e"/>
      </defs>
      <g style="fill:#262626;" transform="translate(7.2 599.130078125)scale(0.15 -0.15)">
       <use xlink:href="#ArialMT-30"/>
       <use x="55.615234375" xlink:href="#ArialMT-2e"/>
       <use x="83.3984375" xlink:href="#ArialMT-30"/>
       <use x="139.013671875" xlink:href="#ArialMT-30"/>
      </g>
     </g>
    </g>
    <g id="ytick_2">
     <g id="line2d_15">
      <g>
       <use style="fill:#262626;stroke:#262626;" x="43.39140625" xlink:href="#m63561991a4" y="502.25234375"/>
      </g>
     </g>
     <g id="line2d_16">
      <g>
       <use style="fill:#262626;stroke:#262626;" x="1159.39140625" xlink:href="#m63561991a4" y="502.25234375"/>
      </g>
     </g>
     <g id="text_9">
      <!-- 0.02 -->
      <g style="fill:#262626;" transform="translate(7.2 506.130078125)scale(0.15 -0.15)">
       <use xlink:href="#ArialMT-30"/>
       <use x="55.615234375" xlink:href="#ArialMT-2e"/>
       <use x="83.3984375" xlink:href="#ArialMT-30"/>
       <use x="139.013671875" xlink:href="#ArialMT-32"/>
      </g>
     </g>
    </g>
    <g id="ytick_3">
     <g id="line2d_17">
      <g>
       <use style="fill:#262626;stroke:#262626;" x="43.39140625" xlink:href="#m63561991a4" y="409.25234375"/>
      </g>
     </g>
     <g id="line2d_18">
      <g>
       <use style="fill:#262626;stroke:#262626;" x="1159.39140625" xlink:href="#m63561991a4" y="409.25234375"/>
      </g>
     </g>
     <g id="text_10">
      <!-- 0.04 -->
      <g style="fill:#262626;" transform="translate(7.2 413.130078125)scale(0.15 -0.15)">
       <use xlink:href="#ArialMT-30"/>
       <use x="55.615234375" xlink:href="#ArialMT-2e"/>
       <use x="83.3984375" xlink:href="#ArialMT-30"/>
       <use x="139.013671875" xlink:href="#ArialMT-34"/>
      </g>
     </g>
    </g>
    <g id="ytick_4">
     <g id="line2d_19">
      <g>
       <use style="fill:#262626;stroke:#262626;" x="43.39140625" xlink:href="#m63561991a4" y="316.25234375"/>
      </g>
     </g>
     <g id="line2d_20">
      <g>
       <use style="fill:#262626;stroke:#262626;" x="1159.39140625" xlink:href="#m63561991a4" y="316.25234375"/>
      </g>
     </g>
     <g id="text_11">
      <!-- 0.06 -->
      <g style="fill:#262626;" transform="translate(7.2 320.130078125)scale(0.15 -0.15)">
       <use xlink:href="#ArialMT-30"/>
       <use x="55.615234375" xlink:href="#ArialMT-2e"/>
       <use x="83.3984375" xlink:href="#ArialMT-30"/>
       <use x="139.013671875" xlink:href="#ArialMT-36"/>
      </g>
     </g>
    </g>
    <g id="ytick_5">
     <g id="line2d_21">
      <g>
       <use style="fill:#262626;stroke:#262626;" x="43.39140625" xlink:href="#m63561991a4" y="223.25234375"/>
      </g>
     </g>
     <g id="line2d_22">
      <g>
       <use style="fill:#262626;stroke:#262626;" x="1159.39140625" xlink:href="#m63561991a4" y="223.25234375"/>
      </g>
     </g>
     <g id="text_12">
      <!-- 0.08 -->
      <g style="fill:#262626;" transform="translate(7.2 227.130078125)scale(0.15 -0.15)">
       <use xlink:href="#ArialMT-30"/>
       <use x="55.615234375" xlink:href="#ArialMT-2e"/>
       <use x="83.3984375" xlink:href="#ArialMT-30"/>
       <use x="139.013671875" xlink:href="#ArialMT-38"/>
      </g>
     </g>
    </g>
    <g id="ytick_6">
     <g id="line2d_23">
      <g>
       <use style="fill:#262626;stroke:#262626;" x="43.39140625" xlink:href="#m63561991a4" y="130.25234375"/>
      </g>
     </g>
     <g id="line2d_24">
      <g>
       <use style="fill:#262626;stroke:#262626;" x="1159.39140625" xlink:href="#m63561991a4" y="130.25234375"/>
      </g>
     </g>
     <g id="text_13">
      <!-- 0.10 -->
      <g style="fill:#262626;" transform="translate(7.2 134.130078125)scale(0.15 -0.15)">
       <use xlink:href="#ArialMT-30"/>
       <use x="55.615234375" xlink:href="#ArialMT-2e"/>
       <use x="83.3984375" xlink:href="#ArialMT-31"/>
       <use x="139.013671875" xlink:href="#ArialMT-30"/>
      </g>
     </g>
    </g>
    <g id="ytick_7">
     <g id="line2d_25">
      <g>
       <use style="fill:#262626;stroke:#262626;" x="43.39140625" xlink:href="#m63561991a4" y="37.25234375"/>
      </g>
     </g>
     <g id="line2d_26">
      <g>
       <use style="fill:#262626;stroke:#262626;" x="1159.39140625" xlink:href="#m63561991a4" y="37.25234375"/>
      </g>
     </g>
     <g id="text_14">
      <!-- 0.12 -->
      <g style="fill:#262626;" transform="translate(7.2 41.130078125)scale(0.15 -0.15)">
       <use xlink:href="#ArialMT-30"/>
       <use x="55.615234375" xlink:href="#ArialMT-2e"/>
       <use x="83.3984375" xlink:href="#ArialMT-31"/>
       <use x="139.013671875" xlink:href="#ArialMT-32"/>
      </g>
     </g>
    </g>
   </g>
   <g id="patch_3">
    <path clip-path="url(#p21c25c47a4)" d="M 54.551406 595.252344 
L 76.425006 595.252344 
L 76.425006 122.509104 
L 54.551406 122.509104 
z
" style="fill:#dc322f;opacity:0.5;stroke:#eeeeee;stroke-linejoin:miter;stroke-width:0.3;"/>
   </g>
   <g id="patch_4">
    <path clip-path="url(#p21c25c47a4)" d="M 76.425006 595.252344 
L 98.298606 595.252344 
L 98.298606 254.282861 
L 76.425006 254.282861 
z
" style="fill:#dc322f;opacity:0.5;stroke:#eeeeee;stroke-linejoin:miter;stroke-width:0.3;"/>
   </g>
   <g id="patch_5">
    <path clip-path="url(#p21c25c47a4)" d="M 98.298606 595.252344 
L 120.172206 595.252344 
L 120.172206 344.347812 
L 98.298606 344.347812 
z
" style="fill:#dc322f;opacity:0.5;stroke:#eeeeee;stroke-linejoin:miter;stroke-width:0.3;"/>
   </g>
   <g id="patch_6">
    <path clip-path="url(#p21c25c47a4)" d="M 120.172206 595.252344 
L 142.045806 595.252344 
L 142.045806 390.748858 
L 120.172206 390.748858 
z
" style="fill:#dc322f;opacity:0.5;stroke:#eeeeee;stroke-linejoin:miter;stroke-width:0.3;"/>
   </g>
   <g id="patch_7">
    <path clip-path="url(#p21c25c47a4)" d="M 142.045806 595.252344 
L 163.919406 595.252344 
L 163.919406 440.929764 
L 142.045806 440.929764 
z
" style="fill:#dc322f;opacity:0.5;stroke:#eeeeee;stroke-linejoin:miter;stroke-width:0.3;"/>
   </g>
   <g id="patch_8">
    <path clip-path="url(#p21c25c47a4)" d="M 163.919406 595.252344 
L 185.793006 595.252344 
L 185.793006 475.730549 
L 163.919406 475.730549 
z
" style="fill:#dc322f;opacity:0.5;stroke:#eeeeee;stroke-linejoin:miter;stroke-width:0.3;"/>
   </g>
   <g id="patch_9">
    <path clip-path="url(#p21c25c47a4)" d="M 185.793006 595.252344 
L 207.666606 595.252344 
L 207.666606 489.80727 
L 185.793006 489.80727 
z
" style="fill:#dc322f;opacity:0.5;stroke:#eeeeee;stroke-linejoin:miter;stroke-width:0.3;"/>
   </g>
   <g id="patch_10">
    <path clip-path="url(#p21c25c47a4)" d="M 207.666606 595.252344 
L 229.540206 595.252344 
L 229.540206 515.093234 
L 207.666606 515.093234 
z
" style="fill:#dc322f;opacity:0.5;stroke:#eeeeee;stroke-linejoin:miter;stroke-width:0.3;"/>
   </g>
   <g id="patch_11">
    <path clip-path="url(#p21c25c47a4)" d="M 229.540206 595.252344 
L 251.413806 595.252344 
L 251.413806 528.518255 
L 229.540206 528.518255 
z
" style="fill:#dc322f;opacity:0.5;stroke:#eeeeee;stroke-linejoin:miter;stroke-width:0.3;"/>
   </g>
   <g id="patch_12">
    <path clip-path="url(#p21c25c47a4)" d="M 251.413806 595.252344 
L 273.287406 595.252344 
L 273.287406 543.116337 
L 251.413806 543.116337 
z
" style="fill:#dc322f;opacity:0.5;stroke:#eeeeee;stroke-linejoin:miter;stroke-width:0.3;"/>
   </g>
   <g id="patch_13">
    <path clip-path="url(#p21c25c47a4)" d="M 273.287406 595.252344 
L 295.161006 595.252344 
L 295.161006 542.073617 
L 273.287406 542.073617 
z
" style="fill:#dc322f;opacity:0.5;stroke:#eeeeee;stroke-linejoin:miter;stroke-width:0.3;"/>
   </g>
   <g id="patch_14">
    <path clip-path="url(#p21c25c47a4)" d="M 295.161006 595.252344 
L 317.034606 595.252344 
L 317.034606 555.368299 
L 295.161006 555.368299 
z
" style="fill:#dc322f;opacity:0.5;stroke:#eeeeee;stroke-linejoin:miter;stroke-width:0.3;"/>
   </g>
   <g id="patch_15">
    <path clip-path="url(#p21c25c47a4)" d="M 317.034606 595.252344 
L 338.908206 595.252344 
L 338.908206 562.01564 
L 317.034606 562.01564 
z
" style="fill:#dc322f;opacity:0.5;stroke:#eeeeee;stroke-linejoin:miter;stroke-width:0.3;"/>
   </g>
   <g id="patch_16">
    <path clip-path="url(#p21c25c47a4)" d="M 338.908206 595.252344 
L 360.781806 595.252344 
L 360.781806 563.8404 
L 338.908206 563.8404 
z
" style="fill:#dc322f;opacity:0.5;stroke:#eeeeee;stroke-linejoin:miter;stroke-width:0.3;"/>
   </g>
   <g id="patch_17">
    <path clip-path="url(#p21c25c47a4)" d="M 360.781806 595.252344 
L 382.655406 595.252344 
L 382.655406 567.7506 
L 360.781806 567.7506 
z
" style="fill:#dc322f;opacity:0.5;stroke:#eeeeee;stroke-linejoin:miter;stroke-width:0.3;"/>
   </g>
   <g id="patch_18">
    <path clip-path="url(#p21c25c47a4)" d="M 382.655406 595.252344 
L 404.529006 595.252344 
L 404.529006 571.139441 
L 382.655406 571.139441 
z
" style="fill:#dc322f;opacity:0.5;stroke:#eeeeee;stroke-linejoin:miter;stroke-width:0.3;"/>
   </g>
   <g id="patch_19">
    <path clip-path="url(#p21c25c47a4)" d="M 404.529006 595.252344 
L 426.402606 595.252344 
L 426.402606 569.575361 
L 404.529006 569.575361 
z
" style="fill:#dc322f;opacity:0.5;stroke:#eeeeee;stroke-linejoin:miter;stroke-width:0.3;"/>
   </g>
   <g id="patch_20">
    <path clip-path="url(#p21c25c47a4)" d="M 426.402606 595.252344 
L 448.276206 595.252344 
L 448.276206 573.224881 
L 426.402606 573.224881 
z
" style="fill:#dc322f;opacity:0.5;stroke:#eeeeee;stroke-linejoin:miter;stroke-width:0.3;"/>
   </g>
   <g id="patch_21">
    <path clip-path="url(#p21c25c47a4)" d="M 448.276206 595.252344 
L 470.149806 595.252344 
L 470.149806 575.831681 
L 448.276206 575.831681 
z
" style="fill:#dc322f;opacity:0.5;stroke:#eeeeee;stroke-linejoin:miter;stroke-width:0.3;"/>
   </g>
   <g id="patch_22">
    <path clip-path="url(#p21c25c47a4)" d="M 470.149806 595.252344 
L 492.023406 595.252344 
L 492.023406 578.568822 
L 470.149806 578.568822 
z
" style="fill:#dc322f;opacity:0.5;stroke:#eeeeee;stroke-linejoin:miter;stroke-width:0.3;"/>
   </g>
   <g id="patch_23">
    <path clip-path="url(#p21c25c47a4)" d="M 492.023406 595.252344 
L 513.897006 595.252344 
L 513.897006 577.786782 
L 492.023406 577.786782 
z
" style="fill:#dc322f;opacity:0.5;stroke:#eeeeee;stroke-linejoin:miter;stroke-width:0.3;"/>
   </g>
   <g id="patch_24">
    <path clip-path="url(#p21c25c47a4)" d="M 513.897006 595.252344 
L 535.770606 595.252344 
L 535.770606 580.393582 
L 513.897006 580.393582 
z
" style="fill:#dc322f;opacity:0.5;stroke:#eeeeee;stroke-linejoin:miter;stroke-width:0.3;"/>
   </g>
   <g id="patch_25">
    <path clip-path="url(#p21c25c47a4)" d="M 535.770606 595.252344 
L 557.644206 595.252344 
L 557.644206 583.782422 
L 535.770606 583.782422 
z
" style="fill:#dc322f;opacity:0.5;stroke:#eeeeee;stroke-linejoin:miter;stroke-width:0.3;"/>
   </g>
   <g id="patch_26">
    <path clip-path="url(#p21c25c47a4)" d="M 557.644206 595.252344 
L 579.517806 595.252344 
L 579.517806 583.521742 
L 557.644206 583.521742 
z
" style="fill:#dc322f;opacity:0.5;stroke:#eeeeee;stroke-linejoin:miter;stroke-width:0.3;"/>
   </g>
   <g id="patch_27">
    <path clip-path="url(#p21c25c47a4)" d="M 579.517806 595.252344 
L 601.391406 595.252344 
L 601.391406 587.040923 
L 579.517806 587.040923 
z
" style="fill:#dc322f;opacity:0.5;stroke:#eeeeee;stroke-linejoin:miter;stroke-width:0.3;"/>
   </g>
   <g id="patch_28">
    <path clip-path="url(#p21c25c47a4)" d="M 601.391406 595.252344 
L 623.265006 595.252344 
L 623.265006 583.391402 
L 601.391406 583.391402 
z
" style="fill:#dc322f;opacity:0.5;stroke:#eeeeee;stroke-linejoin:miter;stroke-width:0.3;"/>
   </g>
   <g id="patch_29">
    <path clip-path="url(#p21c25c47a4)" d="M 623.265006 595.252344 
L 645.138606 595.252344 
L 645.138606 584.173442 
L 623.265006 584.173442 
z
" style="fill:#dc322f;opacity:0.5;stroke:#eeeeee;stroke-linejoin:miter;stroke-width:0.3;"/>
   </g>
   <g id="patch_30">
    <path clip-path="url(#p21c25c47a4)" d="M 645.138606 595.252344 
L 667.012206 595.252344 
L 667.012206 585.476843 
L 645.138606 585.476843 
z
" style="fill:#dc322f;opacity:0.5;stroke:#eeeeee;stroke-linejoin:miter;stroke-width:0.3;"/>
   </g>
   <g id="patch_31">
    <path clip-path="url(#p21c25c47a4)" d="M 667.012206 595.252344 
L 688.885806 595.252344 
L 688.885806 583.261062 
L 667.012206 583.261062 
z
" style="fill:#dc322f;opacity:0.5;stroke:#eeeeee;stroke-linejoin:miter;stroke-width:0.3;"/>
   </g>
   <g id="patch_32">
    <path clip-path="url(#p21c25c47a4)" d="M 688.885806 595.252344 
L 710.759406 595.252344 
L 710.759406 585.998203 
L 688.885806 585.998203 
z
" style="fill:#dc322f;opacity:0.5;stroke:#eeeeee;stroke-linejoin:miter;stroke-width:0.3;"/>
   </g>
   <g id="patch_33">
    <path clip-path="url(#p21c25c47a4)" d="M 710.759406 595.252344 
L 732.633006 595.252344 
L 732.633006 586.519563 
L 710.759406 586.519563 
z
" style="fill:#dc322f;opacity:0.5;stroke:#eeeeee;stroke-linejoin:miter;stroke-width:0.3;"/>
   </g>
   <g id="patch_34">
    <path clip-path="url(#p21c25c47a4)" d="M 732.633006 595.252344 
L 754.506606 595.252344 
L 754.506606 585.085822 
L 732.633006 585.085822 
z
" style="fill:#dc322f;opacity:0.5;stroke:#eeeeee;stroke-linejoin:miter;stroke-width:0.3;"/>
   </g>
   <g id="patch_35">
    <path clip-path="url(#p21c25c47a4)" d="M 754.506606 595.252344 
L 776.380206 595.252344 
L 776.380206 585.085822 
L 754.506606 585.085822 
z
" style="fill:#dc322f;opacity:0.5;stroke:#eeeeee;stroke-linejoin:miter;stroke-width:0.3;"/>
   </g>
   <g id="patch_36">
    <path clip-path="url(#p21c25c47a4)" d="M 776.380206 595.252344 
L 798.253806 595.252344 
L 798.253806 587.171263 
L 776.380206 587.171263 
z
" style="fill:#dc322f;opacity:0.5;stroke:#eeeeee;stroke-linejoin:miter;stroke-width:0.3;"/>
   </g>
   <g id="patch_37">
    <path clip-path="url(#p21c25c47a4)" d="M 798.253806 595.252344 
L 820.127406 595.252344 
L 820.127406 590.429763 
L 798.253806 590.429763 
z
" style="fill:#dc322f;opacity:0.5;stroke:#eeeeee;stroke-linejoin:miter;stroke-width:0.3;"/>
   </g>
   <g id="patch_38">
    <path clip-path="url(#p21c25c47a4)" d="M 820.127406 595.252344 
L 842.001006 595.252344 
L 842.001006 587.953303 
L 820.127406 587.953303 
z
" style="fill:#dc322f;opacity:0.5;stroke:#eeeeee;stroke-linejoin:miter;stroke-width:0.3;"/>
   </g>
   <g id="patch_39">
    <path clip-path="url(#p21c25c47a4)" d="M 842.001006 595.252344 
L 863.874606 595.252344 
L 863.874606 588.605003 
L 842.001006 588.605003 
z
" style="fill:#dc322f;opacity:0.5;stroke:#eeeeee;stroke-linejoin:miter;stroke-width:0.3;"/>
   </g>
   <g id="patch_40">
    <path clip-path="url(#p21c25c47a4)" d="M 863.874606 595.252344 
L 885.748206 595.252344 
L 885.748206 588.996023 
L 863.874606 588.996023 
z
" style="fill:#dc322f;opacity:0.5;stroke:#eeeeee;stroke-linejoin:miter;stroke-width:0.3;"/>
   </g>
   <g id="patch_41">
    <path clip-path="url(#p21c25c47a4)" d="M 885.748206 595.252344 
L 907.621806 595.252344 
L 907.621806 589.647723 
L 885.748206 589.647723 
z
" style="fill:#dc322f;opacity:0.5;stroke:#eeeeee;stroke-linejoin:miter;stroke-width:0.3;"/>
   </g>
   <g id="patch_42">
    <path clip-path="url(#p21c25c47a4)" d="M 907.621806 595.252344 
L 929.495406 595.252344 
L 929.495406 589.778063 
L 907.621806 589.778063 
z
" style="fill:#dc322f;opacity:0.5;stroke:#eeeeee;stroke-linejoin:miter;stroke-width:0.3;"/>
   </g>
   <g id="patch_43">
    <path clip-path="url(#p21c25c47a4)" d="M 929.495406 595.252344 
L 951.369006 595.252344 
L 951.369006 590.690443 
L 929.495406 590.690443 
z
" style="fill:#dc322f;opacity:0.5;stroke:#eeeeee;stroke-linejoin:miter;stroke-width:0.3;"/>
   </g>
   <g id="patch_44">
    <path clip-path="url(#p21c25c47a4)" d="M 951.369006 595.252344 
L 973.242606 595.252344 
L 973.242606 591.733163 
L 951.369006 591.733163 
z
" style="fill:#dc322f;opacity:0.5;stroke:#eeeeee;stroke-linejoin:miter;stroke-width:0.3;"/>
   </g>
   <g id="patch_45">
    <path clip-path="url(#p21c25c47a4)" d="M 973.242606 595.252344 
L 995.116206 595.252344 
L 995.116206 587.562283 
L 973.242606 587.562283 
z
" style="fill:#dc322f;opacity:0.5;stroke:#eeeeee;stroke-linejoin:miter;stroke-width:0.3;"/>
   </g>
   <g id="patch_46">
    <path clip-path="url(#p21c25c47a4)" d="M 995.116206 595.252344 
L 1016.989806 595.252344 
L 1016.989806 590.820783 
L 995.116206 590.820783 
z
" style="fill:#dc322f;opacity:0.5;stroke:#eeeeee;stroke-linejoin:miter;stroke-width:0.3;"/>
   </g>
   <g id="patch_47">
    <path clip-path="url(#p21c25c47a4)" d="M 1016.989806 595.252344 
L 1038.863406 595.252344 
L 1038.863406 591.733163 
L 1016.989806 591.733163 
z
" style="fill:#dc322f;opacity:0.5;stroke:#eeeeee;stroke-linejoin:miter;stroke-width:0.3;"/>
   </g>
   <g id="patch_48">
    <path clip-path="url(#p21c25c47a4)" d="M 1038.863406 595.252344 
L 1060.737006 595.252344 
L 1060.737006 592.254523 
L 1038.863406 592.254523 
z
" style="fill:#dc322f;opacity:0.5;stroke:#eeeeee;stroke-linejoin:miter;stroke-width:0.3;"/>
   </g>
   <g id="patch_49">
    <path clip-path="url(#p21c25c47a4)" d="M 1060.737006 595.252344 
L 1082.610606 595.252344 
L 1082.610606 591.472483 
L 1060.737006 591.472483 
z
" style="fill:#dc322f;opacity:0.5;stroke:#eeeeee;stroke-linejoin:miter;stroke-width:0.3;"/>
   </g>
   <g id="patch_50">
    <path clip-path="url(#p21c25c47a4)" d="M 1082.610606 595.252344 
L 1104.484206 595.252344 
L 1104.484206 592.124183 
L 1082.610606 592.124183 
z
" style="fill:#dc322f;opacity:0.5;stroke:#eeeeee;stroke-linejoin:miter;stroke-width:0.3;"/>
   </g>
   <g id="patch_51">
    <path clip-path="url(#p21c25c47a4)" d="M 1104.484206 595.252344 
L 1126.357806 595.252344 
L 1126.357806 591.863503 
L 1104.484206 591.863503 
z
" style="fill:#dc322f;opacity:0.5;stroke:#eeeeee;stroke-linejoin:miter;stroke-width:0.3;"/>
   </g>
   <g id="patch_52">
    <path clip-path="url(#p21c25c47a4)" d="M 1126.357806 595.252344 
L 1148.231406 595.252344 
L 1148.231406 591.342143 
L 1126.357806 591.342143 
z
" style="fill:#dc322f;opacity:0.5;stroke:#eeeeee;stroke-linejoin:miter;stroke-width:0.3;"/>
   </g>
   <g id="line2d_27">
    <path clip-path="url(#p21c25c47a4)" d="M 54.551406 351.219441 
L 62.363406 360.514002 
L 70.175406 369.454559 
L 77.987406 378.054593 
L 85.799406 386.327075 
L 93.611406 394.284481 
L 101.423406 401.93881 
L 109.235406 409.301606 
L 117.047406 416.383973 
L 124.859406 423.196591 
L 133.787406 430.665298 
L 142.715406 437.809799 
L 151.643406 444.644166 
L 160.571406 451.181863 
L 169.499406 457.435767 
L 178.427406 463.418198 
L 187.355406 469.140939 
L 196.283406 474.615264 
L 205.211406 479.851956 
L 215.255406 485.472016 
L 225.299406 490.818375 
L 235.343406 495.904364 
L 245.387406 500.742662 
L 255.431406 505.345333 
L 265.475406 509.723851 
L 276.635406 514.339236 
L 287.795406 518.70556 
L 298.955406 522.836263 
L 310.115406 526.744061 
L 322.391406 530.79952 
L 334.667406 534.614909 
L 346.943406 538.20444 
L 360.335406 541.87839 
L 373.727406 545.315734 
L 387.119406 548.53171 
L 401.627406 551.782386 
L 416.135406 554.806891 
L 431.759406 557.829138 
L 447.383406 560.62555 
L 464.123406 563.390245 
L 480.863406 565.9342 
L 498.719406 568.424277 
L 517.691406 570.838673 
L 537.779406 573.158687 
L 557.867406 575.258232 
L 579.071406 577.258355 
L 601.391406 579.14798 
L 625.943406 580.998194 
L 651.611406 582.705633 
L 679.511406 584.330397 
L 708.527406 585.797355 
L 739.775406 587.157591 
L 774.371406 588.436516 
L 812.315406 589.608097 
L 853.607406 590.655435 
L 899.363406 591.590592 
L 950.699406 592.4153 
L 1009.847406 593.137985 
L 1079.039406 593.753319 
L 1158.275406 594.241332 
L 1158.275406 594.241332 
" style="fill:none;stroke:#000080;stroke-dasharray:6.000000,6.000000;stroke-dashoffset:0.0;stroke-width:1.75;"/>
   </g>
   <g id="line2d_28">
    <path clip-path="url(#p21c25c47a4)" d="M 54.551406 202.775522 
L 59.015406 220.896062 
L 63.479406 238.127394 
L 67.943406 254.513722 
L 72.407406 270.097046 
L 76.871406 284.917275 
L 81.335406 299.012325 
L 85.799406 312.418227 
L 90.263406 325.169213 
L 94.727406 337.29781 
L 99.191406 348.834924 
L 103.655406 359.809922 
L 108.119406 370.250706 
L 112.583406 380.183788 
L 117.047406 389.63436 
L 121.511406 398.626359 
L 125.975406 407.182527 
L 130.439406 415.324476 
L 134.903406 423.07274 
L 139.367406 430.446829 
L 143.831406 437.465283 
L 148.295406 444.145718 
L 153.875406 452.046343 
L 159.455406 459.475778 
L 165.035406 466.462985 
L 170.615406 473.035135 
L 176.195406 479.217719 
L 181.775406 485.034652 
L 187.355406 490.508367 
L 192.935406 495.659915 
L 198.515406 500.509041 
L 204.095406 505.074271 
L 209.675406 509.372988 
L 215.255406 513.421498 
L 220.835406 517.2351 
L 227.531406 521.521491 
L 234.227406 525.513367 
L 240.923406 529.232151 
L 247.619406 532.697693 
L 254.315406 535.928377 
L 261.011406 538.941236 
L 268.823406 542.201919 
L 276.635406 545.210618 
L 284.447406 547.98844 
L 293.375406 550.905075 
L 302.303406 553.571517 
L 311.231406 556.011434 
L 321.275406 558.512109 
L 331.319406 560.780421 
L 342.479406 563.057805 
L 353.639406 565.108013 
L 365.915406 567.131943 
L 379.307406 569.098023 
L 393.815406 570.981518 
L 409.439406 572.764573 
L 426.179406 574.435851 
L 444.035406 575.989858 
L 464.123406 577.504473 
L 486.443406 578.950825 
L 510.995406 580.311442 
L 538.895406 581.62724 
L 570.143406 582.876277 
L 606.971406 584.11818 
L 649.379406 585.319641 
L 699.599406 586.511855 
L 758.747406 587.683696 
L 826.823406 588.805143 
L 906.059406 589.882073 
L 996.455406 590.881812 
L 1099.127406 591.788583 
L 1158.275406 592.221888 
L 1158.275406 592.221888 
" style="fill:none;stroke:#0000ff;stroke-dasharray:6.000000,6.000000;stroke-dashoffset:0.0;stroke-width:1.75;"/>
   </g>
   <g id="line2d_29">
    <path clip-path="url(#p21c25c47a4)" d="M 54.551406 205.087045 
L 59.015406 222.672541 
L 63.479406 239.431321 
L 67.943406 255.402176 
L 72.407406 270.622093 
L 76.871406 285.126336 
L 81.335406 298.948526 
L 85.799406 312.120719 
L 90.263406 324.673477 
L 94.727406 336.635936 
L 99.191406 348.035874 
L 103.655406 358.899772 
L 108.119406 369.252876 
L 112.583406 379.119253 
L 117.047406 388.521845 
L 121.511406 397.482523 
L 125.975406 406.022135 
L 130.439406 414.160554 
L 134.903406 421.916722 
L 139.367406 429.308698 
L 143.831406 436.35369 
L 149.411406 444.696905 
L 154.991406 452.553896 
L 160.571406 459.953256 
L 166.151406 466.92191 
L 171.731406 473.485211 
L 177.311406 479.667035 
L 182.891406 485.48986 
L 188.471406 490.974855 
L 194.051406 496.141948 
L 199.631406 501.009901 
L 205.211406 505.59638 
L 210.791406 509.918014 
L 216.371406 513.990459 
L 221.951406 517.82845 
L 228.647406 522.144037 
L 235.343406 526.164376 
L 242.039406 529.910326 
L 248.735406 533.401282 
L 255.431406 536.655278 
L 262.127406 539.689078 
L 269.939406 542.970942 
L 277.751406 545.997141 
L 285.563406 548.788679 
L 293.375406 551.364842 
L 302.303406 554.067951 
L 311.231406 556.536956 
L 321.275406 559.061915 
L 331.319406 561.346286 
L 341.363406 563.415208 
L 352.523406 565.488615 
L 364.799406 567.52687 
L 377.075406 569.342153 
L 390.467406 571.101038 
L 404.975406 572.781212 
L 420.599406 574.366877 
L 437.339406 575.84843 
L 456.311406 577.301443 
L 477.515406 578.693257 
L 500.951406 580.003669 
L 527.735406 581.272366 
L 558.983406 582.517883 
L 594.695406 583.712831 
L 637.103406 584.904709 
L 688.439406 586.116188 
L 749.819406 587.333345 
L 822.359406 588.540785 
L 904.943406 589.687437 
L 997.571406 590.746059 
L 1100.243406 591.692206 
L 1158.275406 592.138638 
L 1158.275406 592.138638 
" style="fill:none;stroke:#0080ff;stroke-dasharray:6.000000,6.000000;stroke-dashoffset:0.0;stroke-width:1.75;"/>
   </g>
   <g id="line2d_30">
    <path clip-path="url(#p21c25c47a4)" d="M 54.551406 205.468649 
L 59.015406 222.961926 
L 63.479406 239.639249 
L 67.943406 255.538516 
L 72.407406 270.69588 
L 76.871406 285.145829 
L 81.335406 298.921264 
L 85.799406 312.053571 
L 90.263406 324.572686 
L 94.727406 336.507168 
L 99.191406 347.884258 
L 103.655406 358.729939 
L 108.119406 369.068995 
L 112.583406 378.925067 
L 117.047406 388.320702 
L 121.511406 397.277407 
L 125.975406 405.815692 
L 130.439406 413.95512 
L 134.903406 421.714351 
L 139.367406 429.111176 
L 143.831406 436.162567 
L 149.411406 444.515622 
L 154.991406 452.384138 
L 160.571406 459.796358 
L 166.151406 466.778896 
L 171.731406 473.356831 
L 177.311406 479.553794 
L 182.891406 485.39205 
L 188.471406 490.892578 
L 194.051406 496.075143 
L 199.631406 500.958366 
L 205.211406 505.559789 
L 210.791406 509.895939 
L 216.371406 513.982383 
L 221.951406 517.833785 
L 228.647406 522.164602 
L 235.343406 526.199156 
L 242.039406 529.958246 
L 248.735406 533.461227 
L 255.431406 536.726109 
L 262.127406 539.769646 
L 269.939406 543.061422 
L 277.751406 546.095992 
L 285.563406 548.8944 
L 293.375406 551.475982 
L 302.303406 554.183583 
L 311.231406 556.655366 
L 320.159406 558.913316 
L 330.203406 561.22268 
L 340.247406 563.312233 
L 351.407406 565.404002 
L 363.683406 567.457576 
L 375.959406 569.283756 
L 389.351406 571.050242 
L 403.859406 572.734453 
L 419.483406 574.320533 
L 436.223406 575.799034 
L 455.195406 577.245409 
L 476.399406 578.627194 
L 499.835406 579.924831 
L 526.619406 581.178423 
L 557.867406 582.407444 
L 594.695406 583.620505 
L 638.219406 584.822706 
L 690.671406 586.042852 
L 754.283406 587.293318 
L 829.055406 588.535538 
L 913.871406 589.718521 
L 1007.615406 590.799606 
L 1110.287406 591.756843 
L 1158.275406 592.134558 
L 1158.275406 592.134558 
" style="fill:none;stroke:#16ffe1;stroke-dasharray:6.000000,6.000000;stroke-dashoffset:0.0;stroke-width:1.75;"/>
   </g>
   <g id="line2d_31">
    <path clip-path="url(#p21c25c47a4)" d="M 54.551406 213.712617 
L 55.667406 204.101701 
L 56.783406 196.928815 
L 57.899406 191.812914 
L 59.015406 188.43014 
L 60.131406 186.505276 
L 61.247406 185.804487 
L 62.363406 186.129135 
L 63.479406 187.310524 
L 64.595406 189.205425 
L 65.711406 191.692268 
L 66.827406 194.667908 
L 69.059406 201.748987 
L 71.291406 209.897063 
L 74.639406 223.286613 
L 90.263406 287.782635 
L 94.727406 304.67149 
L 99.191406 320.608085 
L 103.655406 335.598346 
L 108.119406 349.675973 
L 112.583406 362.886923 
L 117.047406 375.281467 
L 121.511406 386.910205 
L 125.975406 397.82214 
L 130.439406 408.063812 
L 134.903406 417.678974 
L 139.367406 426.708546 
L 143.831406 435.190695 
L 148.295406 443.160977 
L 152.759406 450.652505 
L 157.223406 457.696112 
L 161.687406 464.320517 
L 166.151406 470.552483 
L 170.615406 476.416954 
L 175.079406 481.937193 
L 179.543406 487.134906 
L 184.007406 492.030349 
L 188.471406 496.642437 
L 192.935406 500.988841 
L 198.515406 506.073276 
L 204.095406 510.7982 
L 209.675406 515.191113 
L 215.255406 519.277318 
L 220.835406 523.080104 
L 226.415406 526.620919 
L 231.995406 529.91952 
L 237.575406 532.994118 
L 244.271406 536.411491 
L 250.967406 539.556948 
L 257.663406 542.454582 
L 264.359406 545.126277 
L 272.171406 547.984106 
L 279.983406 550.589855 
L 287.795406 552.968996 
L 296.723406 555.439668 
L 305.651406 557.674306 
L 315.695406 559.939218 
L 325.739406 561.972314 
L 336.899406 563.994428 
L 349.175406 565.969942 
L 361.451406 567.722158 
L 374.843406 569.417199 
L 389.351406 571.038354 
L 406.091406 572.677877 
L 423.947406 574.203191 
L 444.035406 575.697035 
L 467.471406 577.204601 
L 493.139406 578.629781 
L 523.271406 580.072875 
L 557.867406 581.498992 
L 598.043406 582.924007 
L 643.799406 584.320045 
L 696.251406 585.693932 
L 755.399406 587.016801 
L 821.243406 588.264035 
L 894.899406 589.431155 
L 976.367406 590.493802 
L 1066.763406 591.446235 
L 1158.275406 592.215835 
L 1158.275406 592.215835 
" style="fill:none;stroke:#7dff7a;stroke-dasharray:6.000000,6.000000;stroke-dashoffset:0.0;stroke-width:1.75;"/>
   </g>
   <g id="line2d_32">
    <path clip-path="url(#p21c25c47a4)" d="M 54.551406 190.887482 
L 55.667406 179.131667 
L 56.783406 170.327913 
L 57.899406 164.093013 
L 59.015406 160.085259 
L 60.131406 158.000379 
L 61.247406 157.567837 
L 62.363406 158.547484 
L 63.479406 160.726515 
L 64.595406 163.916706 
L 65.711406 167.951917 
L 66.827406 172.685824 
L 69.059406 183.751387 
L 71.291406 196.265886 
L 75.755406 223.23246 
L 81.335406 256.706229 
L 84.683406 275.420283 
L 88.031406 292.731342 
L 91.379406 308.554112 
L 94.727406 322.915166 
L 98.075406 335.907003 
L 101.423406 347.656697 
L 104.771406 358.305058 
L 108.119406 367.993267 
L 111.467406 376.854759 
L 114.815406 385.010726 
L 118.163406 392.568059 
L 121.511406 399.618891 
L 124.859406 406.241139 
L 129.323406 414.514435 
L 133.787406 422.26174 
L 138.251406 429.574587 
L 142.715406 436.520147 
L 148.295406 444.757764 
L 153.875406 452.560103 
L 159.455406 459.967813 
L 165.035406 467.006453 
L 170.615406 473.692509 
L 176.195406 480.037499 
L 181.775406 486.050666 
L 187.355406 491.740626 
L 192.935406 497.116298 
L 198.515406 502.187358 
L 204.095406 506.964376 
L 209.675406 511.458766 
L 215.255406 515.682644 
L 220.835406 519.648628 
L 226.415406 523.369637 
L 231.995406 526.858697 
L 238.691406 530.757632 
L 245.387406 534.363195 
L 252.083406 537.696656 
L 258.779406 540.77838 
L 265.475406 543.627682 
L 272.171406 546.262753 
L 279.983406 549.088895 
L 287.795406 551.671619 
L 295.607406 554.033864 
L 304.535406 556.490353 
L 313.463406 558.714352 
L 323.507406 560.969759 
L 333.551406 562.994608 
L 344.711406 565.007896 
L 356.987406 566.973165 
L 369.263406 568.713948 
L 382.655406 570.394773 
L 397.163406 571.998302 
L 413.903406 573.614669 
L 431.759406 575.112272 
L 451.847406 576.571841 
L 474.167406 577.971514 
L 499.835406 579.356156 
L 529.967406 580.747568 
L 564.563406 582.112241 
L 604.739406 583.466681 
L 651.611406 584.816458 
L 705.179406 586.132492 
L 766.559406 587.413631 
L 835.751406 588.63002 
L 912.755406 589.756648 
L 998.687406 590.786256 
L 1094.663406 591.708678 
L 1158.275406 592.212127 
L 1158.275406 592.212127 
" style="fill:none;stroke:#e4ff13;stroke-dasharray:6.000000,6.000000;stroke-dashoffset:0.0;stroke-width:1.75;"/>
   </g>
   <g id="line2d_33">
    <path clip-path="url(#p21c25c47a4)" d="M 54.551406 206.709691 
L 59.015406 223.785116 
L 63.479406 240.104483 
L 67.943406 255.699824 
L 72.407406 270.601885 
L 76.871406 284.840174 
L 81.335406 298.443009 
L 85.799406 311.437564 
L 90.263406 323.849912 
L 94.727406 335.705068 
L 99.191406 347.027028 
L 103.655406 357.838809 
L 108.119406 368.162489 
L 112.583406 378.019238 
L 117.047406 387.429359 
L 121.511406 396.412319 
L 125.975406 404.986781 
L 130.439406 413.170635 
L 134.903406 420.981031 
L 140.483406 430.243827 
L 146.063406 438.979332 
L 151.643406 447.216564 
L 157.223406 454.983026 
L 162.803406 462.304785 
L 168.383406 469.20654 
L 173.963406 475.711694 
L 179.543406 481.842412 
L 185.123406 487.61969 
L 190.703406 493.063408 
L 196.283406 498.192386 
L 201.863406 503.024443 
L 207.443406 507.576439 
L 213.023406 511.864331 
L 218.603406 515.903214 
L 224.183406 519.707367 
L 230.879406 523.981469 
L 237.575406 527.95891 
L 244.271406 531.660203 
L 250.967406 535.104518 
L 257.663406 538.309763 
L 264.359406 541.292662 
L 272.171406 544.512468 
L 279.983406 547.473869 
L 287.795406 550.198096 
L 295.607406 552.704726 
L 304.535406 555.326075 
L 313.463406 557.711396 
L 322.391406 559.883132 
L 332.435406 562.096374 
L 342.479406 564.091338 
L 353.639406 566.080534 
L 365.915406 568.025217 
L 378.191406 569.747487 
L 391.583406 571.407173 
L 406.091406 572.984266 
L 421.715406 574.465765 
L 439.571406 575.930496 
L 459.659406 577.34209 
L 481.979406 578.67869 
L 507.647406 579.984077 
L 537.779406 581.281565 
L 573.491406 582.584384 
L 615.899406 583.902306 
L 667.235406 585.269759 
L 727.499406 586.649126 
L 795.575406 587.98143 
L 869.231406 589.197498 
L 948.467406 590.279925 
L 1034.399406 591.228991 
L 1130.375406 592.063608 
L 1158.275406 592.269196 
L 1158.275406 592.269196 
" style="fill:none;stroke:#ff9400;stroke-dasharray:6.000000,6.000000;stroke-dashoffset:0.0;stroke-width:1.75;"/>
   </g>
   <g id="line2d_34">
    <path clip-path="url(#p21c25c47a4)" d="M 54.551406 190.685269 
L 55.667406 178.944194 
L 56.783406 170.160122 
L 57.899406 163.949131 
L 59.015406 159.968783 
L 60.131406 157.914074 
L 61.247406 157.513756 
L 62.363406 158.526998 
L 63.479406 160.74035 
L 64.595406 163.964989 
L 65.711406 168.034227 
L 66.827406 172.801244 
L 69.059406 183.928571 
L 71.291406 196.496588 
L 75.755406 223.53814 
L 80.219406 250.528048 
L 83.567406 269.652251 
L 86.915406 287.41447 
L 90.263406 303.682848 
L 93.611406 318.457428 
L 96.959406 331.817748 
L 100.307406 343.886796 
L 103.655406 354.806822 
L 107.003406 364.723617 
L 110.351406 373.776785 
L 113.699406 382.09417 
L 117.047406 389.789125 
L 120.395406 396.959648 
L 123.743406 403.688716 
L 128.207406 412.091521 
L 132.671406 419.960313 
L 137.135406 427.391692 
L 141.599406 434.455843 
L 147.179406 442.843818 
L 152.759406 450.798998 
L 158.339406 458.360521 
L 163.919406 465.551522 
L 169.499406 472.385768 
L 175.079406 478.872195 
L 180.659406 485.017838 
L 186.239406 490.82962 
L 191.819406 496.315313 
L 197.399406 501.483972 
L 202.979406 506.346015 
L 208.559406 510.913104 
L 214.139406 515.197913 
L 219.719406 519.213854 
L 225.299406 522.974802 
L 230.879406 526.494835 
L 236.459406 529.78801 
L 243.155406 533.459848 
L 249.851406 536.84817 
L 256.547406 539.975205 
L 263.243406 542.861988 
L 269.939406 545.528254 
L 277.751406 548.384645 
L 285.563406 550.992733 
L 293.375406 553.376956 
L 302.303406 555.855928 
L 311.231406 558.100877 
L 321.275406 560.379202 
L 331.319406 562.427121 
L 342.479406 564.466813 
L 354.755406 566.462358 
L 367.031406 568.234656 
L 380.423406 569.950911 
L 394.931406 571.59342 
L 411.671406 573.254536 
L 429.527406 574.798415 
L 449.615406 576.306937 
L 471.935406 577.755929 
L 497.603406 579.189774 
L 526.619406 580.579118 
L 560.099406 581.950344 
L 598.043406 583.278917 
L 642.683406 584.613382 
L 694.019406 585.919709 
L 753.167406 587.195834 
L 820.127406 588.412022 
L 894.899406 589.544087 
L 978.599406 590.585527 
L 1072.343406 591.525794 
L 1158.275406 592.219489 
L 1158.275406 592.219489 
" style="fill:none;stroke:#ff1e00;stroke-dasharray:6.000000,6.000000;stroke-dashoffset:0.0;stroke-width:1.75;"/>
   </g>
   <g id="patch_53">
    <path d="M 43.391406 37.252344 
L 1159.391406 37.252344 
" style="fill:none;stroke:#262626;stroke-linecap:square;stroke-linejoin:miter;stroke-width:1.25;"/>
   </g>
   <g id="patch_54">
    <path d="M 1159.391406 595.252344 
L 1159.391406 37.252344 
" style="fill:none;stroke:#262626;stroke-linecap:square;stroke-linejoin:miter;stroke-width:1.25;"/>
   </g>
   <g id="patch_55">
    <path d="M 43.391406 595.252344 
L 1159.391406 595.252344 
" style="fill:none;stroke:#262626;stroke-linecap:square;stroke-linejoin:miter;stroke-width:1.25;"/>
   </g>
   <g id="patch_56">
    <path d="M 43.391406 595.252344 
L 43.391406 37.252344 
" style="fill:none;stroke:#262626;stroke-linecap:square;stroke-linejoin:miter;stroke-width:1.25;"/>
   </g>
   <g id="text_15">
    <!-- Phase Type Models -->
    <defs>
     <path d="M 6.390625 0 
L 6.390625 71.578125 
L 15.1875 71.578125 
L 15.1875 0 
z
" id="ArialMT-6c"/>
     <path d="M 7.71875 0 
L 7.71875 71.578125 
L 34.71875 71.578125 
Q 41.84375 71.578125 45.609375 70.90625 
Q 50.875 70.015625 54.4375 67.546875 
Q 58.015625 65.09375 60.1875 60.640625 
Q 62.359375 56.203125 62.359375 50.875 
Q 62.359375 41.75 56.546875 35.421875 
Q 50.734375 29.109375 35.546875 29.109375 
L 17.1875 29.109375 
L 17.1875 0 
z
M 17.1875 37.546875 
L 35.6875 37.546875 
Q 44.875 37.546875 48.734375 40.96875 
Q 52.59375 44.390625 52.59375 50.59375 
Q 52.59375 55.078125 50.3125 58.265625 
Q 48.046875 61.46875 44.34375 62.5 
Q 41.9375 63.140625 35.5 63.140625 
L 17.1875 63.140625 
z
" id="ArialMT-50"/>
     <path d="M 6.59375 -19.875 
L 6.59375 51.859375 
L 14.59375 51.859375 
L 14.59375 45.125 
Q 17.4375 49.078125 21 51.046875 
Q 24.5625 53.03125 29.640625 53.03125 
Q 36.28125 53.03125 41.359375 49.609375 
Q 46.4375 46.1875 49.015625 39.953125 
Q 51.609375 33.734375 51.609375 26.3125 
Q 51.609375 18.359375 48.75 11.984375 
Q 45.90625 5.609375 40.453125 2.21875 
Q 35.015625 -1.171875 29 -1.171875 
Q 24.609375 -1.171875 21.109375 0.6875 
Q 17.625 2.546875 15.375 5.375 
L 15.375 -19.875 
z
M 14.546875 25.640625 
Q 14.546875 15.625 18.59375 10.84375 
Q 22.65625 6.0625 28.421875 6.0625 
Q 34.28125 6.0625 38.453125 11.015625 
Q 42.625 15.96875 42.625 26.375 
Q 42.625 36.28125 38.546875 41.203125 
Q 34.46875 46.140625 28.8125 46.140625 
Q 23.1875 46.140625 18.859375 40.890625 
Q 14.546875 35.640625 14.546875 25.640625 
" id="ArialMT-70"/>
     <path d="M 7.421875 0 
L 7.421875 71.578125 
L 21.6875 71.578125 
L 38.625 20.90625 
Q 40.96875 13.8125 42.046875 10.296875 
Q 43.265625 14.203125 45.84375 21.78125 
L 62.984375 71.578125 
L 75.734375 71.578125 
L 75.734375 0 
L 66.609375 0 
L 66.609375 59.90625 
L 45.796875 0 
L 37.25 0 
L 16.546875 60.9375 
L 16.546875 0 
z
" id="ArialMT-4d"/>
     <path d="M 25.921875 0 
L 25.921875 63.140625 
L 2.34375 63.140625 
L 2.34375 71.578125 
L 59.078125 71.578125 
L 59.078125 63.140625 
L 35.40625 63.140625 
L 35.40625 0 
z
" id="ArialMT-54"/>
    </defs>
    <g style="fill:#262626;" transform="translate(446.754296875 32.25234375)scale(0.35 -0.35)">
     <use xlink:href="#ArialMT-50"/>
     <use x="66.69921875" xlink:href="#ArialMT-68"/>
     <use x="122.314453125" xlink:href="#ArialMT-61"/>
     <use x="177.9296875" xlink:href="#ArialMT-73"/>
     <use x="227.9296875" xlink:href="#ArialMT-65"/>
     <use x="283.544921875" xlink:href="#ArialMT-20"/>
     <use x="311.3125" xlink:href="#ArialMT-54"/>
     <use x="372.318359375" xlink:href="#ArialMT-79"/>
     <use x="422.318359375" xlink:href="#ArialMT-70"/>
     <use x="477.93359375" xlink:href="#ArialMT-65"/>
     <use x="533.548828125" xlink:href="#ArialMT-20"/>
     <use x="561.33203125" xlink:href="#ArialMT-4d"/>
     <use x="644.6328125" xlink:href="#ArialMT-6f"/>
     <use x="700.248046875" xlink:href="#ArialMT-64"/>
     <use x="755.86328125" xlink:href="#ArialMT-65"/>
     <use x="811.478515625" xlink:href="#ArialMT-6c"/>
     <use x="833.6953125" xlink:href="#ArialMT-73"/>
    </g>
   </g>
   <g id="legend_1">
    <g id="line2d_35">
     <path d="M 1079.791406 49.910156 
L 1099.791406 49.910156 
" style="fill:none;stroke:#000080;stroke-dasharray:6.000000,6.000000;stroke-dashoffset:0.0;stroke-width:1.75;"/>
    </g>
    <g id="line2d_36"/>
    <g id="text_16">
     <!-- PhT $k=1$ -->
     <defs>
      <path d="M 9.28125 0 
L 9.28125 3.515625 
Q 21.78125 3.515625 21.78125 6.6875 
L 21.78125 59.1875 
Q 16.609375 56.6875 8.6875 56.6875 
L 8.6875 60.203125 
Q 20.953125 60.203125 27.203125 66.609375 
L 28.609375 66.609375 
Q 28.953125 66.609375 29.265625 66.328125 
Q 29.59375 66.0625 29.59375 65.71875 
L 29.59375 6.6875 
Q 29.59375 3.515625 42.09375 3.515625 
L 42.09375 0 
z
" id="Cmr10-31"/>
      <path d="M 5.328125 1.8125 
Q 5.328125 2.390625 5.421875 2.6875 
L 19.921875 60.5 
Q 20.3125 62.203125 20.40625 63.1875 
Q 20.40625 64.796875 13.921875 64.796875 
Q 12.890625 64.796875 12.890625 66.109375 
Q 12.9375 66.359375 13.109375 66.984375 
Q 13.28125 67.625 13.546875 67.96875 
Q 13.8125 68.3125 14.3125 68.3125 
L 27.78125 69.390625 
L 28.078125 69.390625 
Q 28.078125 69.28125 28.421875 69.109375 
Q 28.765625 68.953125 28.8125 68.890625 
Q 29 68.40625 29 68.109375 
L 18.5 26.3125 
Q 22.125 27.828125 27.609375 33.515625 
Q 33.109375 39.203125 36.203125 41.6875 
Q 39.3125 44.1875 44 44.1875 
Q 46.78125 44.1875 48.734375 42.28125 
Q 50.6875 40.375 50.6875 37.59375 
Q 50.6875 35.84375 49.953125 34.34375 
Q 49.21875 32.859375 47.890625 31.921875 
Q 46.578125 31 44.828125 31 
Q 43.21875 31 42.109375 32 
Q 41.015625 33.015625 41.015625 34.625 
Q 41.015625 37.015625 42.703125 38.640625 
Q 44.390625 40.28125 46.78125 40.28125 
Q 45.796875 41.609375 43.796875 41.609375 
Q 40.828125 41.609375 38.0625 39.890625 
Q 35.296875 38.1875 32.09375 34.984375 
Q 28.90625 31.78125 26.265625 29.125 
Q 23.640625 26.46875 21.390625 25.09375 
Q 27.296875 24.421875 31.640625 22 
Q 35.984375 19.578125 35.984375 14.59375 
Q 35.984375 13.578125 35.59375 12.015625 
Q 34.71875 8.25 34.71875 6 
Q 34.71875 1.515625 37.796875 1.515625 
Q 41.40625 1.515625 43.28125 5.46875 
Q 45.171875 9.421875 46.390625 14.703125 
Q 46.578125 15.28125 47.21875 15.28125 
L 48.390625 15.28125 
Q 48.78125 15.28125 49.046875 15.03125 
Q 49.3125 14.796875 49.3125 14.40625 
Q 49.3125 14.3125 49.21875 14.109375 
Q 45.453125 -1.125 37.59375 -1.125 
Q 34.765625 -1.125 32.59375 0.1875 
Q 30.421875 1.515625 29.25 3.78125 
Q 28.078125 6.0625 28.078125 8.890625 
Q 28.078125 10.5 28.515625 12.203125 
Q 28.8125 13.375 28.8125 14.40625 
Q 28.8125 18.265625 25.390625 20.265625 
Q 21.96875 22.265625 17.578125 22.703125 
L 12.5 2.296875 
Q 12.109375 0.78125 10.984375 -0.171875 
Q 9.859375 -1.125 8.40625 -1.125 
Q 7.125 -1.125 6.21875 -0.265625 
Q 5.328125 0.59375 5.328125 1.8125 
" id="Cmmi10-6b"/>
      <path d="M 7.515625 13.28125 
Q 6.6875 13.28125 6.140625 13.90625 
Q 5.609375 14.546875 5.609375 15.28125 
Q 5.609375 16.109375 6.140625 16.6875 
Q 6.6875 17.28125 7.515625 17.28125 
L 70.3125 17.28125 
Q 71.046875 17.28125 71.578125 16.6875 
Q 72.125 16.109375 72.125 15.28125 
Q 72.125 14.546875 71.578125 13.90625 
Q 71.046875 13.28125 70.3125 13.28125 
z
M 7.515625 32.71875 
Q 6.6875 32.71875 6.140625 33.296875 
Q 5.609375 33.890625 5.609375 34.71875 
Q 5.609375 35.453125 6.140625 36.078125 
Q 6.6875 36.71875 7.515625 36.71875 
L 70.3125 36.71875 
Q 71.046875 36.71875 71.578125 36.078125 
Q 72.125 35.453125 72.125 34.71875 
Q 72.125 33.890625 71.578125 33.296875 
Q 71.046875 32.71875 70.3125 32.71875 
z
" id="Cmr10-3d"/>
     </defs>
     <g style="fill:#262626;" transform="translate(1107.79140625 53.41015625)scale(0.1 -0.1)">
      <use transform="translate(0.0 0.421875)" xlink:href="#ArialMT-50"/>
      <use transform="translate(66.69921875 0.421875)" xlink:href="#ArialMT-68"/>
      <use transform="translate(122.314453125 0.421875)" xlink:href="#ArialMT-54"/>
      <use transform="translate(183.3984375 0.421875)" xlink:href="#ArialMT-20"/>
      <use transform="translate(211.181640625 0.421875)" xlink:href="#Cmmi10-6b"/>
      <use transform="translate(280.7421875 0.421875)" xlink:href="#Cmr10-3d"/>
      <use transform="translate(375.986328125 0.421875)" xlink:href="#Cmr10-31"/>
     </g>
    </g>
    <g id="line2d_37">
     <path d="M 1079.791406 64.055469 
L 1099.791406 64.055469 
" style="fill:none;stroke:#0000ff;stroke-dasharray:6.000000,6.000000;stroke-dashoffset:0.0;stroke-width:1.75;"/>
    </g>
    <g id="line2d_38"/>
    <g id="text_17">
     <!-- PhT $k=2$ -->
     <defs>
      <path d="M 4.984375 0 
L 4.984375 2.6875 
Q 4.984375 2.9375 5.171875 3.21875 
L 20.703125 20.40625 
Q 24.21875 24.21875 26.40625 26.796875 
Q 28.609375 29.390625 30.75 32.765625 
Q 32.90625 36.140625 34.15625 39.625 
Q 35.40625 43.109375 35.40625 47.015625 
Q 35.40625 51.125 33.890625 54.859375 
Q 32.375 58.59375 29.375 60.84375 
Q 26.375 63.09375 22.125 63.09375 
Q 17.78125 63.09375 14.3125 60.46875 
Q 10.84375 57.859375 9.421875 53.71875 
Q 9.8125 53.8125 10.5 53.8125 
Q 12.75 53.8125 14.328125 52.296875 
Q 15.921875 50.78125 15.921875 48.390625 
Q 15.921875 46.09375 14.328125 44.5 
Q 12.75 42.921875 10.5 42.921875 
Q 8.15625 42.921875 6.5625 44.546875 
Q 4.984375 46.1875 4.984375 48.390625 
Q 4.984375 52.15625 6.390625 55.4375 
Q 7.8125 58.734375 10.46875 61.296875 
Q 13.140625 63.875 16.484375 65.234375 
Q 19.828125 66.609375 23.578125 66.609375 
Q 29.296875 66.609375 34.21875 64.1875 
Q 39.15625 61.765625 42.03125 57.34375 
Q 44.921875 52.9375 44.921875 47.015625 
Q 44.921875 42.671875 43.015625 38.765625 
Q 41.109375 34.859375 38.125 31.65625 
Q 35.15625 28.46875 30.515625 24.40625 
Q 25.875 20.359375 24.421875 19 
L 13.09375 8.109375 
L 22.703125 8.109375 
Q 29.78125 8.109375 34.546875 8.21875 
Q 39.3125 8.34375 39.59375 8.59375 
Q 40.765625 9.859375 42 17.828125 
L 44.921875 17.828125 
L 42.09375 0 
z
" id="Cmr10-32"/>
     </defs>
     <g style="fill:#262626;" transform="translate(1107.79140625 67.55546875)scale(0.1 -0.1)">
      <use transform="translate(0.0 0.421875)" xlink:href="#ArialMT-50"/>
      <use transform="translate(66.69921875 0.421875)" xlink:href="#ArialMT-68"/>
      <use transform="translate(122.314453125 0.421875)" xlink:href="#ArialMT-54"/>
      <use transform="translate(183.3984375 0.421875)" xlink:href="#ArialMT-20"/>
      <use transform="translate(211.181640625 0.421875)" xlink:href="#Cmmi10-6b"/>
      <use transform="translate(280.7421875 0.421875)" xlink:href="#Cmr10-3d"/>
      <use transform="translate(375.986328125 0.421875)" xlink:href="#Cmr10-32"/>
     </g>
    </g>
    <g id="line2d_39">
     <path d="M 1079.791406 78.200781 
L 1099.791406 78.200781 
" style="fill:none;stroke:#0080ff;stroke-dasharray:6.000000,6.000000;stroke-dashoffset:0.0;stroke-width:1.75;"/>
    </g>
    <g id="line2d_40"/>
    <g id="text_18">
     <!-- PhT $k=3$ -->
     <defs>
      <path d="M 9.515625 7.71875 
Q 11.859375 4.296875 15.8125 2.640625 
Q 19.78125 0.984375 24.3125 0.984375 
Q 30.125 0.984375 32.5625 5.9375 
Q 35.015625 10.890625 35.015625 17.1875 
Q 35.015625 20.015625 34.5 22.84375 
Q 33.984375 25.6875 32.765625 28.125 
Q 31.546875 30.5625 29.421875 32.03125 
Q 27.296875 33.5 24.21875 33.5 
L 17.578125 33.5 
Q 16.703125 33.5 16.703125 34.421875 
L 16.703125 35.296875 
Q 16.703125 36.078125 17.578125 36.078125 
L 23.09375 36.53125 
Q 26.609375 36.53125 28.921875 39.15625 
Q 31.25 41.796875 32.328125 45.578125 
Q 33.40625 49.359375 33.40625 52.78125 
Q 33.40625 57.5625 31.15625 60.640625 
Q 28.90625 63.71875 24.3125 63.71875 
Q 20.515625 63.71875 17.046875 62.28125 
Q 13.578125 60.84375 11.53125 57.90625 
Q 11.71875 57.953125 11.859375 57.984375 
Q 12.015625 58.015625 12.203125 58.015625 
Q 14.453125 58.015625 15.96875 56.453125 
Q 17.484375 54.890625 17.484375 52.6875 
Q 17.484375 50.53125 15.96875 48.96875 
Q 14.453125 47.40625 12.203125 47.40625 
Q 10.015625 47.40625 8.453125 48.96875 
Q 6.890625 50.53125 6.890625 52.6875 
Q 6.890625 56.984375 9.46875 60.15625 
Q 12.0625 63.328125 16.140625 64.96875 
Q 20.21875 66.609375 24.3125 66.609375 
Q 27.34375 66.609375 30.703125 65.703125 
Q 34.078125 64.796875 36.8125 63.109375 
Q 39.546875 61.421875 41.28125 58.78125 
Q 43.015625 56.15625 43.015625 52.78125 
Q 43.015625 48.578125 41.140625 45.015625 
Q 39.265625 41.453125 35.984375 38.859375 
Q 32.71875 36.28125 28.8125 35.015625 
Q 33.15625 34.1875 37.0625 31.734375 
Q 40.96875 29.296875 43.328125 25.484375 
Q 45.703125 21.6875 45.703125 17.28125 
Q 45.703125 11.765625 42.671875 7.296875 
Q 39.65625 2.828125 34.71875 0.3125 
Q 29.78125 -2.203125 24.3125 -2.203125 
Q 19.625 -2.203125 14.90625 -0.40625 
Q 10.203125 1.375 7.203125 4.9375 
Q 4.203125 8.5 4.203125 13.484375 
Q 4.203125 15.96875 5.859375 17.625 
Q 7.515625 19.28125 10.015625 19.28125 
Q 11.625 19.28125 12.96875 18.53125 
Q 14.3125 17.78125 15.0625 16.40625 
Q 15.828125 15.046875 15.828125 13.484375 
Q 15.828125 11.03125 14.109375 9.375 
Q 12.40625 7.71875 10.015625 7.71875 
z
" id="Cmr10-33"/>
     </defs>
     <g style="fill:#262626;" transform="translate(1107.79140625 81.70078125)scale(0.1 -0.1)">
      <use transform="translate(0.0 0.421875)" xlink:href="#ArialMT-50"/>
      <use transform="translate(66.69921875 0.421875)" xlink:href="#ArialMT-68"/>
      <use transform="translate(122.314453125 0.421875)" xlink:href="#ArialMT-54"/>
      <use transform="translate(183.3984375 0.421875)" xlink:href="#ArialMT-20"/>
      <use transform="translate(211.181640625 0.421875)" xlink:href="#Cmmi10-6b"/>
      <use transform="translate(280.7421875 0.421875)" xlink:href="#Cmr10-3d"/>
      <use transform="translate(375.986328125 0.421875)" xlink:href="#Cmr10-33"/>
     </g>
    </g>
    <g id="line2d_41">
     <path d="M 1079.791406 92.346094 
L 1099.791406 92.346094 
" style="fill:none;stroke:#16ffe1;stroke-dasharray:6.000000,6.000000;stroke-dashoffset:0.0;stroke-width:1.75;"/>
    </g>
    <g id="line2d_42"/>
    <g id="text_19">
     <!-- PhT $k=4$ -->
     <defs>
      <path d="M 2.78125 16.5 
L 2.78125 20.015625 
L 33.6875 66.109375 
Q 34.03125 66.609375 34.71875 66.609375 
L 36.1875 66.609375 
Q 37.3125 66.609375 37.3125 65.484375 
L 37.3125 20.015625 
L 47.125 20.015625 
L 47.125 16.5 
L 37.3125 16.5 
L 37.3125 6.6875 
Q 37.3125 4.640625 40.234375 4.078125 
Q 43.171875 3.515625 47.015625 3.515625 
L 47.015625 0 
L 19.484375 0 
L 19.484375 3.515625 
Q 23.34375 3.515625 26.265625 4.078125 
Q 29.203125 4.640625 29.203125 6.6875 
L 29.203125 16.5 
z
M 6.109375 20.015625 
L 29.78125 20.015625 
L 29.78125 55.421875 
z
" id="Cmr10-34"/>
     </defs>
     <g style="fill:#262626;" transform="translate(1107.79140625 95.84609375)scale(0.1 -0.1)">
      <use transform="translate(0.0 0.421875)" xlink:href="#ArialMT-50"/>
      <use transform="translate(66.69921875 0.421875)" xlink:href="#ArialMT-68"/>
      <use transform="translate(122.314453125 0.421875)" xlink:href="#ArialMT-54"/>
      <use transform="translate(183.3984375 0.421875)" xlink:href="#ArialMT-20"/>
      <use transform="translate(211.181640625 0.421875)" xlink:href="#Cmmi10-6b"/>
      <use transform="translate(280.7421875 0.421875)" xlink:href="#Cmr10-3d"/>
      <use transform="translate(375.986328125 0.421875)" xlink:href="#Cmr10-34"/>
     </g>
    </g>
    <g id="line2d_43">
     <path d="M 1079.791406 106.491406 
L 1099.791406 106.491406 
" style="fill:none;stroke:#7dff7a;stroke-dasharray:6.000000,6.000000;stroke-dashoffset:0.0;stroke-width:1.75;"/>
    </g>
    <g id="line2d_44"/>
    <g id="text_20">
     <!-- PhT $k=5$ -->
     <defs>
      <path d="M 8.6875 11.375 
Q 9.71875 8.453125 11.84375 6.046875 
Q 13.96875 3.65625 16.875 2.3125 
Q 19.78125 0.984375 22.90625 0.984375 
Q 30.125 0.984375 32.859375 6.59375 
Q 35.59375 12.203125 35.59375 20.21875 
Q 35.59375 23.6875 35.46875 26.046875 
Q 35.359375 28.421875 34.8125 30.609375 
Q 33.890625 34.125 31.5625 36.765625 
Q 29.25 39.40625 25.875 39.40625 
Q 22.515625 39.40625 20.09375 38.375 
Q 17.671875 37.359375 16.15625 35.984375 
Q 14.65625 34.625 13.484375 33.109375 
Q 12.3125 31.59375 12.015625 31.5 
L 10.890625 31.5 
Q 10.640625 31.5 10.265625 31.8125 
Q 9.90625 32.125 9.90625 32.421875 
L 9.90625 65.828125 
Q 9.90625 66.0625 10.21875 66.328125 
Q 10.546875 66.609375 10.890625 66.609375 
L 11.1875 66.609375 
Q 17.921875 63.375 25.484375 63.375 
Q 32.90625 63.375 39.796875 66.609375 
L 40.09375 66.609375 
Q 40.4375 66.609375 40.71875 66.359375 
Q 41.015625 66.109375 41.015625 65.828125 
L 41.015625 64.890625 
Q 41.015625 64.40625 40.828125 64.40625 
Q 37.40625 59.859375 32.25 57.3125 
Q 27.09375 54.78125 21.578125 54.78125 
Q 17.578125 54.78125 13.375 55.90625 
L 13.375 37.015625 
Q 16.703125 39.703125 19.3125 40.84375 
Q 21.921875 42 25.984375 42 
Q 31.5 42 35.859375 38.8125 
Q 40.234375 35.640625 42.578125 30.53125 
Q 44.921875 25.4375 44.921875 20.125 
Q 44.921875 14.109375 41.96875 8.984375 
Q 39.015625 3.859375 33.9375 0.828125 
Q 28.859375 -2.203125 22.90625 -2.203125 
Q 17.96875 -2.203125 13.84375 0.328125 
Q 9.71875 2.875 7.34375 7.171875 
Q 4.984375 11.46875 4.984375 16.3125 
Q 4.984375 18.5625 6.4375 19.96875 
Q 7.90625 21.390625 10.109375 21.390625 
Q 12.3125 21.390625 13.796875 19.9375 
Q 15.28125 18.5 15.28125 16.3125 
Q 15.28125 14.15625 13.796875 12.671875 
Q 12.3125 11.1875 10.109375 11.1875 
Q 9.765625 11.1875 9.328125 11.25 
Q 8.890625 11.328125 8.6875 11.375 
" id="Cmr10-35"/>
     </defs>
     <g style="fill:#262626;" transform="translate(1107.79140625 109.99140625)scale(0.1 -0.1)">
      <use transform="translate(0.0 0.421875)" xlink:href="#ArialMT-50"/>
      <use transform="translate(66.69921875 0.421875)" xlink:href="#ArialMT-68"/>
      <use transform="translate(122.314453125 0.421875)" xlink:href="#ArialMT-54"/>
      <use transform="translate(183.3984375 0.421875)" xlink:href="#ArialMT-20"/>
      <use transform="translate(211.181640625 0.421875)" xlink:href="#Cmmi10-6b"/>
      <use transform="translate(280.7421875 0.421875)" xlink:href="#Cmr10-3d"/>
      <use transform="translate(375.986328125 0.421875)" xlink:href="#Cmr10-35"/>
     </g>
    </g>
    <g id="line2d_45">
     <path d="M 1079.791406 120.636719 
L 1099.791406 120.636719 
" style="fill:none;stroke:#e4ff13;stroke-dasharray:6.000000,6.000000;stroke-dashoffset:0.0;stroke-width:1.75;"/>
    </g>
    <g id="line2d_46"/>
    <g id="text_21">
     <!-- PhT $k=6$ -->
     <defs>
      <path d="M 25 -2.203125 
Q 18.796875 -2.203125 14.640625 1.09375 
Q 10.5 4.390625 8.21875 9.640625 
Q 5.953125 14.890625 5.078125 20.65625 
Q 4.203125 26.421875 4.203125 32.328125 
Q 4.203125 40.234375 7.28125 48.1875 
Q 10.359375 56.15625 16.328125 61.375 
Q 22.3125 66.609375 30.515625 66.609375 
Q 33.9375 66.609375 36.890625 65.3125 
Q 39.84375 64.015625 41.53125 61.5 
Q 43.21875 58.984375 43.21875 55.421875 
Q 43.21875 53.375 41.828125 51.984375 
Q 40.4375 50.59375 38.375 50.59375 
Q 36.421875 50.59375 35 52 
Q 33.59375 53.421875 33.59375 55.421875 
Q 33.59375 57.375 35 58.78125 
Q 36.421875 60.203125 38.375 60.203125 
L 38.921875 60.203125 
Q 37.640625 62.015625 35.328125 62.859375 
Q 33.015625 63.71875 30.515625 63.71875 
Q 27.484375 63.71875 24.921875 62.390625 
Q 22.359375 61.078125 20.3125 58.828125 
Q 18.265625 56.59375 16.890625 53.875 
Q 15.53125 51.171875 14.765625 47.703125 
Q 14.015625 44.234375 13.8125 41.203125 
Q 13.625 38.1875 13.625 33.59375 
Q 15.375 37.703125 18.59375 40.3125 
Q 21.828125 42.921875 25.875 42.921875 
Q 30.328125 42.921875 33.984375 41.109375 
Q 37.640625 39.3125 40.28125 36.109375 
Q 42.921875 32.90625 44.3125 28.796875 
Q 45.703125 24.703125 45.703125 20.515625 
Q 45.703125 14.65625 43.09375 9.34375 
Q 40.484375 4.046875 35.734375 0.921875 
Q 31 -2.203125 25 -2.203125 
M 25 0.984375 
Q 28.859375 0.984375 31.203125 2.734375 
Q 33.546875 4.5 34.640625 7.390625 
Q 35.75 10.296875 36.015625 13.25 
Q 36.28125 16.21875 36.28125 20.515625 
Q 36.28125 26.171875 35.734375 30.171875 
Q 35.203125 34.1875 32.8125 37.234375 
Q 30.421875 40.28125 25.484375 40.28125 
Q 21.4375 40.28125 18.828125 37.546875 
Q 16.21875 34.8125 15.015625 30.640625 
Q 13.8125 26.46875 13.8125 22.609375 
Q 13.8125 21.296875 13.921875 20.609375 
Q 13.921875 20.453125 13.890625 20.359375 
Q 13.875 20.265625 13.8125 20.125 
Q 13.8125 15.828125 14.6875 11.421875 
Q 15.578125 7.03125 18.0625 4 
Q 20.5625 0.984375 25 0.984375 
" id="Cmr10-36"/>
     </defs>
     <g style="fill:#262626;" transform="translate(1107.79140625 124.13671875)scale(0.1 -0.1)">
      <use transform="translate(0.0 0.421875)" xlink:href="#ArialMT-50"/>
      <use transform="translate(66.69921875 0.421875)" xlink:href="#ArialMT-68"/>
      <use transform="translate(122.314453125 0.421875)" xlink:href="#ArialMT-54"/>
      <use transform="translate(183.3984375 0.421875)" xlink:href="#ArialMT-20"/>
      <use transform="translate(211.181640625 0.421875)" xlink:href="#Cmmi10-6b"/>
      <use transform="translate(280.7421875 0.421875)" xlink:href="#Cmr10-3d"/>
      <use transform="translate(375.986328125 0.421875)" xlink:href="#Cmr10-36"/>
     </g>
    </g>
    <g id="line2d_47">
     <path d="M 1079.791406 134.782031 
L 1099.791406 134.782031 
" style="fill:none;stroke:#ff9400;stroke-dasharray:6.000000,6.000000;stroke-dashoffset:0.0;stroke-width:1.75;"/>
    </g>
    <g id="line2d_48"/>
    <g id="text_22">
     <!-- PhT $k=7$ -->
     <defs>
      <path d="M 17.390625 2.59375 
Q 17.390625 8.15625 18.359375 13.46875 
Q 19.34375 18.796875 21.21875 24 
Q 23.09375 29.203125 25.75 34.203125 
Q 28.421875 39.203125 31.59375 43.609375 
L 40.71875 56.296875 
L 29.296875 56.296875 
Q 11.53125 56.296875 10.984375 55.8125 
Q 9.671875 54.203125 8.5 46.578125 
L 5.609375 46.578125 
L 8.890625 67.578125 
L 11.8125 67.578125 
L 11.8125 67.28125 
Q 11.8125 65.484375 17.921875 64.9375 
Q 24.03125 64.40625 29.890625 64.40625 
L 48.484375 64.40625 
L 48.484375 61.8125 
Q 48.484375 61.71875 48.453125 61.671875 
Q 48.4375 61.625 48.390625 61.53125 
L 34.625 42.1875 
Q 29.546875 34.671875 28.265625 25.484375 
Q 27 16.3125 27 2.59375 
Q 27 0.640625 25.578125 -0.78125 
Q 24.171875 -2.203125 22.21875 -2.203125 
Q 20.21875 -2.203125 18.796875 -0.78125 
Q 17.390625 0.640625 17.390625 2.59375 
" id="Cmr10-37"/>
     </defs>
     <g style="fill:#262626;" transform="translate(1107.79140625 138.28203125)scale(0.1 -0.1)">
      <use transform="translate(0.0 0.421875)" xlink:href="#ArialMT-50"/>
      <use transform="translate(66.69921875 0.421875)" xlink:href="#ArialMT-68"/>
      <use transform="translate(122.314453125 0.421875)" xlink:href="#ArialMT-54"/>
      <use transform="translate(183.3984375 0.421875)" xlink:href="#ArialMT-20"/>
      <use transform="translate(211.181640625 0.421875)" xlink:href="#Cmmi10-6b"/>
      <use transform="translate(280.7421875 0.421875)" xlink:href="#Cmr10-3d"/>
      <use transform="translate(375.986328125 0.421875)" xlink:href="#Cmr10-37"/>
     </g>
    </g>
    <g id="line2d_49">
     <path d="M 1079.791406 148.927344 
L 1099.791406 148.927344 
" style="fill:none;stroke:#ff1e00;stroke-dasharray:6.000000,6.000000;stroke-dashoffset:0.0;stroke-width:1.75;"/>
    </g>
    <g id="line2d_50"/>
    <g id="text_23">
     <!-- PhT $k=8$ -->
     <defs>
      <path d="M 4.203125 15.1875 
Q 4.203125 21.1875 8.15625 25.796875 
Q 12.109375 30.421875 18.3125 33.5 
L 14.59375 35.890625 
Q 11.1875 38.140625 9.03125 41.875 
Q 6.890625 45.609375 6.890625 49.703125 
Q 6.890625 54.5 9.40625 58.34375 
Q 11.921875 62.203125 16.09375 64.40625 
Q 20.265625 66.609375 25 66.609375 
Q 29.4375 66.609375 33.5625 64.796875 
Q 37.703125 62.984375 40.359375 59.609375 
Q 43.015625 56.25 43.015625 51.609375 
Q 43.015625 48.25 41.421875 45.359375 
Q 39.84375 42.484375 37.078125 40.1875 
Q 34.328125 37.890625 31.203125 36.28125 
L 36.921875 32.625 
Q 40.875 30.03125 43.28125 25.828125 
Q 45.703125 21.625 45.703125 17 
Q 45.703125 11.578125 42.796875 7.125 
Q 39.890625 2.6875 35.109375 0.234375 
Q 30.328125 -2.203125 25 -2.203125 
Q 19.828125 -2.203125 15.015625 -0.09375 
Q 10.203125 2 7.203125 5.984375 
Q 4.203125 9.96875 4.203125 15.1875 
M 9.625 15.1875 
Q 9.625 11.234375 11.796875 7.953125 
Q 13.96875 4.6875 17.53125 2.828125 
Q 21.09375 0.984375 25 0.984375 
Q 30.8125 0.984375 35.546875 4.375 
Q 40.28125 7.765625 40.28125 13.375 
Q 40.28125 15.28125 39.515625 17.15625 
Q 38.765625 19.046875 37.421875 20.578125 
Q 36.078125 22.125 34.421875 23.09375 
L 21 31.78125 
Q 17.875 30.125 15.25 27.578125 
Q 12.640625 25.046875 11.125 21.875 
Q 9.625 18.703125 9.625 15.1875 
M 16.5 45.703125 
L 28.609375 37.890625 
Q 32.8125 40.328125 35.5 43.796875 
Q 38.1875 47.265625 38.1875 51.609375 
Q 38.1875 54.984375 36.296875 57.78125 
Q 34.421875 60.59375 31.390625 62.15625 
Q 28.375 63.71875 24.90625 63.71875 
Q 21.875 63.71875 18.796875 62.546875 
Q 15.71875 61.375 13.71875 59.046875 
Q 11.71875 56.734375 11.71875 53.609375 
Q 11.71875 48.921875 16.5 45.703125 
" id="Cmr10-38"/>
     </defs>
     <g style="fill:#262626;" transform="translate(1107.79140625 152.42734375)scale(0.1 -0.1)">
      <use transform="translate(0.0 0.421875)" xlink:href="#ArialMT-50"/>
      <use transform="translate(66.69921875 0.421875)" xlink:href="#ArialMT-68"/>
      <use transform="translate(122.314453125 0.421875)" xlink:href="#ArialMT-54"/>
      <use transform="translate(183.3984375 0.421875)" xlink:href="#ArialMT-20"/>
      <use transform="translate(211.181640625 0.421875)" xlink:href="#Cmmi10-6b"/>
      <use transform="translate(280.7421875 0.421875)" xlink:href="#Cmr10-3d"/>
      <use transform="translate(375.986328125 0.421875)" xlink:href="#Cmr10-38"/>
     </g>
    </g>
   </g>
  </g>
 </g>
 <defs>
  <clipPath id="p21c25c47a4">
   <rect height="558.0" width="1116.0" x="43.39140625" y="37.25234375"/>
  </clipPath>
 </defs>
</svg>
